<?xml version="1.0" encoding="UTF-8" standalone="no"?>
<!-- Created with Inkscape (http://www.inkscape.org/) -->

<svg
   width="35mm"
   height="34.999996mm"
   viewBox="0 0 35 34.999996"
   version="1.1"
   id="svg1"
   inkscape:export-filename=".\logo.svg"
   inkscape:export-xdpi="98.213333"
   inkscape:export-ydpi="98.213333"
   xmlns:inkscape="http://www.inkscape.org/namespaces/inkscape"
   xmlns:sodipodi="http://sodipodi.sourceforge.net/DTD/sodipodi-0.dtd"
   xmlns="http://www.w3.org/2000/svg"
   xmlns:svg="http://www.w3.org/2000/svg">
  <sodipodi:namedview
     id="namedview1"
     pagecolor="#ffffff"
     bordercolor="#000000"
     borderopacity="0.25"
     inkscape:showpageshadow="2"
     inkscape:pageopacity="0.0"
     inkscape:pagecheckerboard="0"
     inkscape:deskcolor="#d1d1d1"
     inkscape:document-units="mm" />
  <defs
     id="defs1" />
  <g
     inkscape:label="logo"
     inkscape:groupmode="layer"
     id="layer1"
     transform="translate(-29.999999,-26.583762)">
    <circle
       style="fill:#e3f2f2;fill-opacity:1;stroke-width:0.02328;stroke-linecap:round"
       id="path2"
       cx="47.5"
       cy="44.083763"
       r="17.5" />
    <path
       style="fill:#1e683f;fill-opacity:1;stroke-width:0.0221154;stroke-linecap:round"
       d="m 41.738614,59.244694 c -0.355409,-0.163777 -0.886313,-0.82225 -0.924012,-1.14604 -0.01115,-0.0958 -0.06552,-0.243215 -0.120815,-0.327607 -0.08645,-0.131931 -0.09064,-0.186461 -0.02994,-0.389046 0.05588,-0.186511 0.05513,-0.272936 -0.0036,-0.414703 -0.105975,-0.255843 -0.09183,-0.45731 0.04249,-0.605344 0.07259,-0.07999 0.129959,-0.250201 0.151824,-0.450406 0.03789,-0.346961 0.222872,-0.585134 0.454456,-0.585134 0.153388,0 0.405064,-0.132736 0.545129,-0.287507 0.107516,-0.118804 0.107812,-0.127136 0.0072,-0.200752 -0.09845,-0.07199 -0.09448,-0.08513 0.06323,-0.209585 0.144588,-0.114088 0.217681,-0.128819 0.519349,-0.104659 0.352187,0.02821 0.891519,-0.04589 0.987518,-0.135675 0.08505,-0.07954 -0.01433,-0.341362 -0.167722,-0.441871 -0.134536,-0.08815 -0.156635,-0.08631 -0.342429,0.02851 -0.387089,0.239235 -0.60562,0.124446 -0.476488,-0.250287 0.04297,-0.124712 0.107738,-0.256368 0.143916,-0.292568 0.038,-0.03802 0.290997,-0.0686 0.599059,-0.07242 0.444215,-0.0054 0.546349,-0.02447 0.611504,-0.113583 0.0898,-0.122811 0.09881,-0.254059 0.0254,-0.369961 -0.04264,-0.06732 -0.102046,-0.06832 -0.361643,-0.006 l -0.310617,0.07452 -0.166119,-0.198753 c -0.321098,-0.38416 -0.116816,-0.576869 0.612919,-0.578259 l 0.453179,-9.2e-4 0.124828,-0.265559 c 0.06866,-0.14606 0.109005,-0.281387 0.08966,-0.300725 -0.01934,-0.01932 -0.189011,0.008 -0.377048,0.06076 -0.485169,0.136133 -0.621681,0.122514 -0.858793,-0.08568 -0.113758,-0.09988 -0.206832,-0.203185 -0.206832,-0.229564 0,-0.02638 0.06817,-0.128978 0.151485,-0.227993 0.149395,-0.177548 0.15908,-0.18003 0.70216,-0.18003 H 44.22853 V 50.70727 c 0,-0.126831 -0.02705,-0.24732 -0.06012,-0.267755 -0.03307,-0.02044 -0.171302,0.01508 -0.307195,0.0789 -0.396447,0.186212 -0.46585,0.191337 -0.709208,0.05235 -0.291378,-0.166413 -0.36789,-0.353484 -0.2094,-0.511973 0.09607,-0.09607 0.195541,-0.115649 0.587606,-0.115649 0.259574,0 0.522884,-0.02726 0.585133,-0.06057 0.136945,-0.0733 0.14834,-0.305503 0.02123,-0.432614 -0.122763,-0.122766 -0.219346,-0.115871 -0.346603,0.02475 -0.139126,0.153734 -0.480215,0.247838 -0.622433,0.171724 -0.134118,-0.07178 -0.271802,-0.342636 -0.241584,-0.475259 0.025,-0.109705 0.253156,-0.196466 0.670912,-0.255115 0.480193,-0.06741 0.582814,-0.253184 0.257584,-0.466281 -0.132411,-0.08676 -0.161896,-0.08736 -0.310341,-0.0063 -0.458832,0.250621 -0.434471,0.24475 -0.521519,0.125703 -0.162891,-0.222768 -0.102474,-0.360797 0.244928,-0.559559 0.357339,-0.204449 0.407047,-0.274862 0.351182,-0.497446 -0.05466,-0.217782 -0.160424,-0.228741 -0.528228,-0.05474 -0.313129,0.148134 -0.500322,0.160083 -0.500322,0.03194 0,-0.03211 0.104635,-0.220268 0.232523,-0.418139 0.189272,-0.292838 0.221173,-0.380966 0.171499,-0.473783 -0.05346,-0.0999 -0.100399,-0.109109 -0.378808,-0.07432 -0.376554,0.04705 -0.388409,0.01577 -0.200755,-0.52966 0.147168,-0.427749 0.151037,-0.571449 0.01462,-0.543409 -0.05633,0.01158 -0.134983,-0.01939 -0.174809,-0.06885 -0.0637,-0.07908 -0.08592,-0.07263 -0.18465,0.0535 -0.09578,0.122375 -0.125918,0.132048 -0.205529,0.06598 -0.125061,-0.103794 -0.120724,-0.137457 0.08623,-0.669508 0.09844,-0.253071 0.164971,-0.496634 0.147851,-0.541249 -0.04387,-0.114324 -0.196207,-0.100731 -0.365759,0.03264 -0.148613,0.1169 -0.31269,0.104979 -0.31269,-0.02272 0,-0.03959 0.07869,-0.332999 0.174873,-0.652017 0.172463,-0.572038 0.215825,-0.843342 0.13479,-0.843342 -0.02278,0 -0.138894,0.09518 -0.258029,0.211515 -0.119137,0.116333 -0.245318,0.193771 -0.280405,0.172086 -0.152594,-0.09431 -0.06686,-0.541657 0.198537,-1.035991 0.144283,-0.268741 0.262772,-0.521534 0.26331,-0.561762 0.0016,-0.116238 -0.197649,-0.08479 -0.27801,0.04388 -0.115507,0.184957 -0.189119,0.137402 -0.189119,-0.122176 0,-0.145643 0.08011,-0.421389 0.204796,-0.704994 0.235115,-0.534749 0.248537,-0.604677 0.100887,-0.525658 -0.128719,0.06889 -0.305683,-0.0189 -0.305683,-0.151657 0,-0.05189 0.121181,-0.301051 0.269293,-0.553689 0.274246,-0.467789 0.296114,-0.633441 0.08362,-0.633441 -0.304737,0 0.04329,-0.595683 0.549443,-0.940423 0.114727,-0.07814 0.208775,-0.173756 0.208995,-0.212479 2.14e-4,-0.03873 -0.11809,-0.122817 -0.262911,-0.186878 -0.14482,-0.06406 -0.26331,-0.142493 -0.26331,-0.174295 0,-0.07863 0.249014,-0.248426 0.687533,-0.468812 0.2857,-0.143584 0.365512,-0.212411 0.364812,-0.314606 -0.0017,-0.234536 -0.08355,-0.296876 -0.344262,-0.261906 -0.218382,0.02929 -0.239976,0.02053 -0.239976,-0.09734 0,-0.268492 0.120066,-0.336659 0.668015,-0.379266 0.410911,-0.03195 0.531269,-0.06272 0.597019,-0.152642 0.132459,-0.181149 0.06614,-0.2323 -0.347898,-0.268304 -0.214552,-0.01866 -0.405639,-0.04947 -0.424638,-0.06846 -0.0834,-0.0834 0.276426,-0.209232 0.701332,-0.245251 0.693414,-0.05878 0.795626,-0.08751 0.795626,-0.223599 0,-0.112173 -0.02422,-0.115793 -0.510738,-0.07632 -0.280905,0.0228 -0.583712,0.05604 -0.672905,0.07388 -0.190897,0.03818 -0.212802,-0.04859 -0.05269,-0.208699 0.08141,-0.08141 0.238888,-0.120257 0.614391,-0.151536 0.277702,-0.02313 0.504913,-0.06143 0.504913,-0.08512 0,-0.02368 -0.06618,-0.105231 -0.147058,-0.181216 -0.08088,-0.07598 -0.126961,-0.157647 -0.102398,-0.181473 0.03555,-0.03448 1.501444,-0.344419 1.628972,-0.344419 0.0181,0 0.02453,-0.05924 0.01426,-0.131656 -0.02604,-0.183319 -0.225528,-0.197426 -0.606312,-0.04287 -0.172782,0.07012 -0.340805,0.118337 -0.373385,0.107133 -0.127589,-0.04387 0.06067,-0.189213 0.587516,-0.453569 0.594736,-0.298421 0.738962,-0.473758 0.389689,-0.473758 -0.123695,0 -0.315791,0.07479 -0.515494,0.200709 -0.175077,0.11039 -0.328826,0.190205 -0.341666,0.177367 -0.06385,-0.06385 0.215346,-0.352007 0.53755,-0.554772 0.552769,-0.347864 0.574415,-0.367589 0.511155,-0.465811 -0.04831,-0.07502 -0.109595,-0.06798 -0.457008,0.0525 -0.220671,0.07653 -0.439053,0.126518 -0.485293,0.111103 -0.154284,-0.05143 0.249715,-0.378321 0.606584,-0.490814 0.24413,-0.07696 0.332764,-0.133218 0.332764,-0.211235 0,-0.145696 -0.260554,-0.140316 -0.650629,0.01344 -0.346287,0.136495 -0.461127,0.117651 -0.461127,-0.07566 0,-0.181928 0.132247,-0.358891 0.384885,-0.515031 0.181522,-0.112187 0.259204,-0.124336 0.582914,-0.09117 0.355817,0.03646 0.378131,0.03117 0.471816,-0.111812 0.07886,-0.120363 0.08535,-0.178569 0.03277,-0.293965 -0.07942,-0.174306 -0.20769,-0.180937 -0.544413,-0.02814 -0.325027,0.147484 -0.473638,0.14771 -0.606476,9.2e-4 -0.137742,-0.152202 -0.09564,-0.186535 0.336931,-0.274772 0.8649,-0.176424 1.230624,-0.322412 1.512766,-0.603861 0.178115,-0.177676 0.303685,-0.371734 0.370281,-0.572239 0.113037,-0.340314 0.118316,-0.340427 0.530476,-0.01132 0.340359,0.271776 0.638219,0.409306 0.886467,0.409306 0.188127,0 0.257439,-0.04236 0.502616,-0.307195 l 0.284396,-0.307195 0.10324,0.136313 c 0.05678,0.07497 0.167028,0.306871 0.244983,0.515329 0.128613,0.343899 0.181252,0.408752 0.568152,0.699956 0.234525,0.176517 0.498183,0.420458 0.585909,0.542089 0.08773,0.121633 0.289851,0.574738 0.449166,1.006902 0.398931,1.082146 0.566193,1.249445 1.945203,1.945617 0.99936,0.504509 1.188166,0.64738 1.188166,0.899089 0,0.191452 -0.31801,0.522585 -0.608375,0.633475 -0.417907,0.159602 -0.802962,0.01103 -1.771943,-0.683685 -0.748373,-0.536551 -0.856909,-0.572283 -1.744876,-0.574451 -0.848655,-0.0021 -0.882758,-0.01245 -1.813914,-0.552219 -0.393312,-0.22799 -0.509243,-0.268718 -0.725532,-0.254887 -0.347079,0.02219 -0.490712,0.209976 -0.490712,0.641531 0,0.511773 0.176687,1.050489 0.816706,2.490103 0.693001,1.55878 1.118843,3.01663 1.371823,4.696365 0.170286,1.130683 0.184371,3.274667 0.02902,4.41776 -0.343565,2.527968 -1.139581,4.856474 -2.383195,6.971309 -0.834016,1.418294 -1.184005,1.802864 -2.772564,3.046543 -0.579282,0.453515 -1.218504,0.97489 -1.420493,1.158607 -0.427442,0.388778 -0.853627,0.962066 -0.978666,1.316462 -0.119737,0.339372 -0.110033,0.817248 0.02374,1.169327 0.06128,0.161257 0.09419,0.290976 0.07314,0.288262 -0.02105,-0.0027 -0.14498,-0.0541 -0.275412,-0.114211 z M 50.621117,32.02911 c 0.145018,-0.171384 0.126984,-0.381349 -0.04777,-0.556098 -0.120186,-0.120187 -0.186236,-0.142947 -0.330874,-0.11402 -0.226896,0.04538 -0.317198,0.11954 -0.361759,0.297097 -0.112656,0.448858 0.440436,0.727513 0.740399,0.373021 z"
       id="path1" />
  </g>
</svg>
