<?xml version="1.0" encoding="UTF-8"?>
<svg width="1920" height="1080" version="1.1" viewBox="0 0 508 285.75" xmlns="http://www.w3.org/2000/svg">
<rect width="508" height="285.75" fill="none"/>
<g transform="matrix(1.0393 0 0 1.0393 -7.9372 -4.7628)">
<path d="m159.12-16.727 96.521 34.021 32.813-34.021z" fill="#77b690"/>
<path d="m-2.4447e-4 2.4447e-4 70.086 21.277-2.2303-38.004z" fill="#82c59d"/>
<path d="m328.92 43.201 63.675-59.928h-104.15z" fill="#83c09e"/>
<path d="m70.086 21.277 89.029-38.004h-91.26z" fill="#7ac294"/>
<path d="m405.84 32.86 102.16-32.86-115.4-16.727z" fill="#89c9a0"/>
<path d="m70.086 21.277 85.421 22.008 3.608-60.012z" fill="#54b57b"/>
<path d="m328.92 43.201 76.914-10.341-13.239-49.587z" fill="#8bc9a5"/>
<path d="m255.64 17.294 73.288 25.908-40.475-59.928z" fill="#88c4a1"/>
<path d="m110.71 67.061 44.801-23.776-85.421-22.008z" fill="#66c58a"/>
<path d="m155.51 43.285 100.13-25.992-96.521-34.021z" fill="#75c699"/>
<path d="m508 0-19.274 73.875 36.001-24.288z" fill="#93cdaa"/>
<path d="M 405.838,32.8599 488.726,73.8747 508,0 Z" fill="#60bb87"/>
<path d="m287.55 83.147 41.371-39.946-73.288-25.908z" fill="#70b98d"/>
<path d="m367.9 87.162 37.933-54.302-76.914 10.341z" fill="#8cc7a3"/>
<path d="m110.71 67.061 53.741 15.147-8.94-38.923z" fill="#8ac8a3"/>
<path d="m155.51 43.285 75.777 50.859 24.352-76.85z" fill="#6fd097"/>
<path d="m231.28 94.144 56.269-10.997-31.917-65.853z" fill="#95d0aa"/>
<path d="m-16.713 83.013 86.798-61.736-70.086-21.277z" fill="#7fcfa0"/>
<path d="m164.45 82.208 66.837 11.936-75.777-50.859z" fill="#6dba8c"/>
<path d="m49.261 99.74 61.445-32.679-40.62-45.784z" fill="#82c19c"/>
<path d="m-16.713 83.013 65.974 16.727 20.825-78.463z" fill="#51bf7c"/>
<path d="m287.55 83.147 80.352 4.0152-38.981-43.961z" fill="#6ebf8f"/>
<path d="m405.84 32.86 78.203 75.707 4.685-34.692z" fill="#8acea5"/>
<path d="m484.04 108.57 40.686-58.98-36.001 24.288z" fill="#95ceac"/>
<path d="m367.9 87.162 116.14 21.405-78.203-75.707z" fill="#84cca2"/>
<path d="m-16.727 142.88 65.988-43.135-65.974-16.727z" fill="#94ccaa"/>
<path d="m287.55 83.147 82.756 40.93-2.404-36.915z" fill="#a3d3b6"/>
<path d="m524.73 155.45v-105.86l-40.686 58.98z" fill="#6fbd90"/>
<path d="m370.31 124.08 113.73-15.51-116.14-21.405z" fill="#8eccab"/>
<path d="m231.28 94.144 57.165 62.076-0.896-73.073z" fill="#85be9b"/>
<path d="m288.45 156.22 81.86-32.143-82.756-40.93z" fill="#6ec58f"/>
<path d="m231.02 172.18 57.426-15.957-57.165-62.076z" fill="#77bf95"/>
<path d="m370.31 124.08 73.12 54.471 40.612-69.981z" fill="#71c594"/>
<path d="m49.261 99.74 58.794 86.624 2.651-119.3z" fill="#80cba0"/>
<path d="m108.06 186.36 56.392-104.16-53.741-15.147z" fill="#7fc499"/>
<path d="m164.45 82.208 66.576 89.968 0.261-78.033z" fill="#8bc3a0"/>
<path d="m402.61 193.77 40.819-15.223-73.12-54.471z" fill="#80c7a0"/>
<path d="m443.43 178.55 81.298-23.098-40.686-46.883z" fill="#74ca96"/>
<path d="m288.45 156.22 62.719 41.625 19.141-73.768z" fill="#92d0ab"/>
<path d="m108.06 186.36 51.409 14.097 4.983-118.25z" fill="#6ec792"/>
<path d="m159.46 200.46 71.559-28.284-66.576-89.968z" fill="#7fc49a"/>
<path d="m351.17 197.84 51.442-4.074-32.301-69.694z" fill="#95cdac"/>
<path d="m31.33 206.83 17.931-107.09-65.988 43.135z" fill="#74c298"/>
<path d="m31.33 206.83 76.725-20.465-58.794-86.624z" fill="#6dbe8e"/>
<path d="m288.45 156.22 27.479 65.789 35.24-24.164z" fill="#81cfa0"/>
<path d="m-16.727 219.82 48.057-12.99-48.057-63.954z" fill="#94c9aa"/>
<path d="m402.61 193.77 48.281 24.707-7.462-39.93z" fill="#8dcaa5"/>
<path d="m31.33 206.83 62.597 21.94 14.128-42.405z" fill="#8cc4a3"/>
<path d="m450.89 218.48 73.836-63.028-81.298 23.098z" fill="#96c9aa"/>
<path d="m108.06 186.36 30.616 52.137 20.793-38.04z" fill="#8acca3"/>
<path d="m450.89 218.48 73.836 10.291v-73.319z" fill="#97c9ab"/>
<path d="m93.927 228.77 44.744 9.732-30.616-52.137z" fill="#85c9a2"/>
<path d="m46.483 243.79 47.443-15.017-62.597-21.94z" fill="#6dbc8d"/>
<path d="m262.05 250.28 26.402-94.056-57.426 15.957z" fill="#89c5a1"/>
<path d="m262.05 250.28 53.881-28.267-27.479-65.789z" fill="#9ccfb0"/>
<path d="m-16.727 219.82 63.211 23.967-15.154-36.957z" fill="#67be88"/>
<path d="m402.61 193.77 43.199 63.338 5.082-38.631z" fill="#84c09c"/>
<path d="m159.46 200.46 102.58 49.815-31.024-78.099z" fill="#85cba0"/>
<path d="m-2.4447e-4 282.53 46.484-38.745-63.211-23.967z" fill="#86c59f"/>
<path d="m445.81 257.11 78.918-28.34-73.836-10.291z" fill="#58bb82"/>
<path d="m445.81 257.11 62.191 25.422 16.727-53.762z" fill="#71c692"/>
<path d="m108.06 302.31 30.616-63.811-44.744-9.732z" fill="#67c78e"/>
<path d="m138.67 238.5 123.38 11.775-102.58-49.815z" fill="#86c4a1"/>
<path d="m262.05 250.28 68.005 52.036-14.124-80.303z" fill="#83c29c"/>
<path d="m138.67 238.5 92.352 63.811 31.024-52.036z" fill="#83cda0"/>
<path d="m46.483 243.79 61.572 58.526-14.128-73.543z" fill="#68c68d"/>
<path d="m330.05 302.31 21.116-104.47-35.24 24.164z" fill="#98caac"/>
<path d="m351.17 197.84 94.641 59.264-43.199-63.338z" fill="#94cba9"/>
<path d="m330.05 302.31 115.76-45.203-94.641-59.264z" fill="#73c493"/>
<path d="m330.05 302.31h99.03l16.727-45.203z" fill="#8ec8a5"/>
<path d="m429.08 302.31 78.918-19.781-62.191-25.422z" fill="#96c8aa"/>
<path d="m231.02 302.31h99.029l-68.005-52.036z" fill="#8dc6a5"/>
<path d="m-2.4447e-4 282.53 108.06 19.781-61.572-58.526z" fill="#94c8aa"/>
<path d="m108.06 302.31h122.97l-92.352-63.811z" fill="#6fc090"/>
</g>
</svg>
