<?xml version="1.0" encoding="UTF-8"?>
<svg width="1920" height="1080" version="1.1" viewBox="0 0 508 285.75" xmlns="http://www.w3.org/2000/svg">
<g opacity=".5">
<rect transform="translate(-7.4567e-6 1.7641e-5)" width="508" height="285.75" fill-opacity="0"/>
</g>
<g transform="matrix(3.5223 3.5678 -3.5678 3.5223 332.39 -1172.8)" fill="none" opacity=".5" stroke="#408881" stroke-linecap="round" stroke-width=".20188">
<path d="m131.91 202.81 3.0394 0.7963m-4.521 4.8589 3.0394 0.7963m1.4817-5.6552c0.67787 0.1776 0.89571 1.5875 0.48656 3.1492s-1.2904 2.6836-1.9682 2.506-0.89571-1.5875-0.48656-3.1492 1.2904-2.6836 1.9682-2.506zm-3.0394-0.7963c0.67787 0.17759 0.89572 1.5875 0.48657 3.1492-0.40915 1.5616-1.2904 2.6836-1.9682 2.506-0.67787-0.1776-0.89571-1.5875-0.48656-3.1492 0.40915-1.5616 1.2904-2.6836 1.9682-2.506z"/>
<ellipse transform="rotate(-75.319)" cx="-165.68" cy="179" rx="1.6043" ry=".69961"/>
</g>
<g transform="matrix(.47729 2.018 -2.018 .47729 5.6067 78.656)" fill="none" opacity=".5" stroke="#298a56" stroke-linecap="round" stroke-width=".46322">
<rect x="-4.7736" y="-13.934" width="5.0049" height="6.9376" ry="1.7309"/>
<rect x="-17.043" y="-13.934" width="5.0049" height="6.9376" ry="1.7309"/>
<rect x="-12.019" y="-11.943" width="7.2291" height="3.187" opacity="1"/>
</g>
<g transform="matrix(4.3511 2.48 -2.48 4.3511 -22.045 -1118.7)" fill="none" opacity=".5" stroke="#408881" stroke-linecap="round" stroke-width=".20188">
<path d="m131.91 202.81 3.0394 0.7963m-4.521 4.8589 3.0394 0.7963m1.4817-5.6552c0.67787 0.1776 0.89571 1.5875 0.48656 3.1492s-1.2904 2.6836-1.9682 2.506-0.89571-1.5875-0.48656-3.1492 1.2904-2.6836 1.9682-2.506zm-3.0394-0.7963c0.67787 0.17759 0.89572 1.5875 0.48657 3.1492-0.40915 1.5616-1.2904 2.6836-1.9682 2.506-0.67787-0.1776-0.89571-1.5875-0.48656-3.1492 0.40915-1.5616 1.2904-2.6836 1.9682-2.506z"/>
<ellipse transform="rotate(-75.319)" cx="-165.68" cy="179" rx="1.6043" ry=".69961"/>
</g>
<g transform="matrix(.88969 4.4022 -4.4022 .88969 922.62 -714.75)" fill="none" opacity=".5" stroke="#408881" stroke-linecap="round" stroke-width=".20188">
<path d="m131.91 202.81 3.0394 0.7963m-4.521 4.8589 3.0394 0.7963m1.4817-5.6552c0.67787 0.1776 0.89571 1.5875 0.48656 3.1492s-1.2904 2.6836-1.9682 2.506-0.89571-1.5875-0.48656-3.1492 1.2904-2.6836 1.9682-2.506zm-3.0394-0.7963c0.67787 0.17759 0.89572 1.5875 0.48657 3.1492-0.40915 1.5616-1.2904 2.6836-1.9682 2.506-0.67787-0.1776-0.89571-1.5875-0.48656-3.1492 0.40915-1.5616 1.2904-2.6836 1.9682-2.506z"/>
<ellipse transform="rotate(-75.319)" cx="-165.68" cy="179" rx="1.6043" ry=".69961"/>
</g>
<g transform="matrix(2.5079 2.7903 -2.7903 2.5079 257.99 164.48)" fill="none" opacity=".5" stroke="#408881" stroke-linecap="round" stroke-width=".26458">
<ellipse cx="-31.503" cy="-1.9987" rx="5.8603" ry="5.8603" opacity="1"/>
<path d="m-35.893-5.8801s2.9959 0.46407 4.5056 0.45997c1.4334-0.00389 4.2756-0.45997 4.2756-0.45997" opacity="1"/>
<path d="m-36.878-4.3193s3.654 0.46331 5.4907 0.45997c1.7602-0.0032 5.2607-0.45997 5.2607-0.45997" opacity="1"/>
<path d="m-37.311-2.759s3.897 0.4631 5.8545 0.45997c1.8811-3e-3 5.6245-0.45997 5.6245-0.45997" opacity="1"/>
<path d="m-37.174-1.2009s3.8515 0.46314 5.7864 0.45997c1.8585-0.003037 5.5564-0.45997 5.5564-0.45997" opacity="1"/>
<path d="m-36.805 0.35614s3.6049 0.46336 5.4172 0.45997c1.7358-0.003243 5.1872-0.45997 5.1872-0.45997" opacity="1"/>
<path d="m-35.837 1.9153s2.958 0.46413 4.4488 0.45997c1.4146-0.00394 4.2188-0.45997 4.2188-0.45997" opacity="1"/>
</g>
<g transform="matrix(2.0017 .15808 -.15808 2.0017 214.09 39.669)" fill="none" opacity=".5" stroke="#298a56" stroke-linecap="round" stroke-width=".46322">
<rect x="-4.7736" y="-13.934" width="5.0049" height="6.9376" ry="1.7309"/>
<rect x="-17.043" y="-13.934" width="5.0049" height="6.9376" ry="1.7309"/>
<rect x="-12.019" y="-11.943" width="7.2291" height="3.187" opacity="1"/>
</g>
<g transform="matrix(3.3328 2.9602 -2.9602 3.3328 261.81 -1015.2)" fill="none" opacity=".5" stroke="#408881" stroke-linecap="round" stroke-width=".20188">
<path d="m131.91 202.81 3.0394 0.7963m-4.521 4.8589 3.0394 0.7963m1.4817-5.6552c0.67787 0.1776 0.89571 1.5875 0.48656 3.1492s-1.2904 2.6836-1.9682 2.506-0.89571-1.5875-0.48656-3.1492 1.2904-2.6836 1.9682-2.506zm-3.0394-0.7963c0.67787 0.17759 0.89572 1.5875 0.48657 3.1492-0.40915 1.5616-1.2904 2.6836-1.9682 2.506-0.67787-0.1776-0.89571-1.5875-0.48656-3.1492 0.40915-1.5616 1.2904-2.6836 1.9682-2.506z"/>
<ellipse transform="rotate(-75.319)" cx="-165.68" cy="179" rx="1.6043" ry=".69961"/>
</g>
<g transform="matrix(1.3823 -3.8891 3.8891 1.3823 199.73 15.825)" fill="none" opacity=".5" stroke="#408881" stroke-linecap="round" stroke-width=".26458">
<ellipse cx="-31.503" cy="-1.9987" rx="5.8603" ry="5.8603" opacity="1"/>
<path d="m-35.893-5.8801s2.9959 0.46407 4.5056 0.45997c1.4334-0.00389 4.2756-0.45997 4.2756-0.45997" opacity="1"/>
<path d="m-36.878-4.3193s3.654 0.46331 5.4907 0.45997c1.7602-0.0032 5.2607-0.45997 5.2607-0.45997" opacity="1"/>
<path d="m-37.311-2.759s3.897 0.4631 5.8545 0.45997c1.8811-3e-3 5.6245-0.45997 5.6245-0.45997" opacity="1"/>
<path d="m-37.174-1.2009s3.8515 0.46314 5.7864 0.45997c1.8585-0.003037 5.5564-0.45997 5.5564-0.45997" opacity="1"/>
<path d="m-36.805 0.35614s3.6049 0.46336 5.4172 0.45997c1.7358-0.003243 5.1872-0.45997 5.1872-0.45997" opacity="1"/>
<path d="m-35.837 1.9153s2.958 0.46413 4.4488 0.45997c1.4146-0.00394 4.2188-0.45997 4.2188-0.45997" opacity="1"/>
</g>
<g transform="matrix(4.3628 -.87387 .87387 4.3628 114.52 180.08)" fill="none" opacity=".5" stroke="#298a56" stroke-linecap="round" stroke-width=".26458">
<path d="m-16.51-12.744-0.09757 7.1916"/>
<path d="m-16.608-5.5522s-1.6963 2.0775-1.396 3.2027c0.1466 0.54945 0.80161 1.0279 1.3702 1.0164 0.55185-0.011186 1.1486-0.5058 1.2889-1.0396 0.2898-1.1029-1.263-3.1794-1.263-3.1794z"/>
<path d="m-14.748-11.954-0.09757 7.1916"/>
<path d="m-14.846-4.7623s-1.6963 2.0775-1.396 3.2027c0.1466 0.54945 0.80161 1.0279 1.3702 1.0164 0.55185-0.011186 1.1486-0.5058 1.2889-1.0396 0.2898-1.1029-1.263-3.1794-1.263-3.1794z"/>
</g>
<g transform="matrix(1.6407 5.0399 -5.0399 1.6407 869.1 -786.72)" fill="none" opacity=".5" stroke="#408881" stroke-linecap="round" stroke-width=".20188">
<path d="m131.91 202.81 3.0394 0.7963m-4.521 4.8589 3.0394 0.7963m1.4817-5.6552c0.67787 0.1776 0.89571 1.5875 0.48656 3.1492s-1.2904 2.6836-1.9682 2.506-0.89571-1.5875-0.48656-3.1492 1.2904-2.6836 1.9682-2.506zm-3.0394-0.7963c0.67787 0.17759 0.89572 1.5875 0.48657 3.1492-0.40915 1.5616-1.2904 2.6836-1.9682 2.506-0.67787-0.1776-0.89571-1.5875-0.48656-3.1492 0.40915-1.5616 1.2904-2.6836 1.9682-2.506z"/>
<ellipse transform="rotate(-75.319)" cx="-165.68" cy="179" rx="1.6043" ry=".69961"/>
</g>
<g transform="matrix(4.3101 -.56751 .56751 4.3101 165.05 142.75)" fill="none" opacity=".5" stroke="#298a56" stroke-linecap="round" stroke-width=".26458">
<path d="m-16.51-12.744-0.09757 7.1916"/>
<path d="m-16.608-5.5522s-1.6963 2.0775-1.396 3.2027c0.1466 0.54945 0.80161 1.0279 1.3702 1.0164 0.55185-0.011186 1.1486-0.5058 1.2889-1.0396 0.2898-1.1029-1.263-3.1794-1.263-3.1794z"/>
<path d="m-14.748-11.954-0.09757 7.1916"/>
<path d="m-14.846-4.7623s-1.6963 2.0775-1.396 3.2027c0.1466 0.54945 0.80161 1.0279 1.3702 1.0164 0.55185-0.011186 1.1486-0.5058 1.2889-1.0396 0.2898-1.1029-1.263-3.1794-1.263-3.1794z"/>
</g>
<g transform="matrix(4.3949 .27652 -.27652 4.3949 -421.84 -760.32)" fill="none" opacity=".5" stroke="#408881" stroke-linecap="round" stroke-width=".20188">
<path d="m131.91 202.81 3.0394 0.7963m-4.521 4.8589 3.0394 0.7963m1.4817-5.6552c0.67787 0.1776 0.89571 1.5875 0.48656 3.1492s-1.2904 2.6836-1.9682 2.506-0.89571-1.5875-0.48656-3.1492 1.2904-2.6836 1.9682-2.506zm-3.0394-0.7963c0.67787 0.17759 0.89572 1.5875 0.48657 3.1492-0.40915 1.5616-1.2904 2.6836-1.9682 2.506-0.67787-0.1776-0.89571-1.5875-0.48656-3.1492 0.40915-1.5616 1.2904-2.6836 1.9682-2.506z"/>
<ellipse transform="rotate(-75.319)" cx="-165.68" cy="179" rx="1.6043" ry=".69961"/>
</g>
<g transform="matrix(1.0753 -4.3441 4.3441 1.0753 -942.15 577.23)" fill="none" opacity=".5" stroke="#408881" stroke-linecap="round" stroke-width=".20188">
<path d="m131.91 202.81 3.0394 0.7963m-4.521 4.8589 3.0394 0.7963m1.4817-5.6552c0.67787 0.1776 0.89571 1.5875 0.48656 3.1492s-1.2904 2.6836-1.9682 2.506-0.89571-1.5875-0.48656-3.1492 1.2904-2.6836 1.9682-2.506zm-3.0394-0.7963c0.67787 0.17759 0.89572 1.5875 0.48657 3.1492-0.40915 1.5616-1.2904 2.6836-1.9682 2.506-0.67787-0.1776-0.89571-1.5875-0.48656-3.1492 0.40915-1.5616 1.2904-2.6836 1.9682-2.506z"/>
<ellipse transform="rotate(-75.319)" cx="-165.68" cy="179" rx="1.6043" ry=".69961"/>
</g>
<g transform="matrix(4.5632 2.5564 -2.5564 4.5632 173.67 -1230.4)" fill="none" opacity=".5" stroke="#408881" stroke-linecap="round" stroke-width=".20188">
<path d="m131.91 202.81 3.0394 0.7963m-4.521 4.8589 3.0394 0.7963m1.4817-5.6552c0.67787 0.1776 0.89571 1.5875 0.48656 3.1492s-1.2904 2.6836-1.9682 2.506-0.89571-1.5875-0.48656-3.1492 1.2904-2.6836 1.9682-2.506zm-3.0394-0.7963c0.67787 0.17759 0.89572 1.5875 0.48657 3.1492-0.40915 1.5616-1.2904 2.6836-1.9682 2.506-0.67787-0.1776-0.89571-1.5875-0.48656-3.1492 0.40915-1.5616 1.2904-2.6836 1.9682-2.506z"/>
<ellipse transform="rotate(-75.319)" cx="-165.68" cy="179" rx="1.6043" ry=".69961"/>
</g>
<g transform="matrix(.10134 -5.66 5.66 .10134 -930.39 834.05)" fill="none" opacity=".5" stroke="#408881" stroke-linecap="round" stroke-width=".20188">
<path d="m131.91 202.81 3.0394 0.7963m-4.521 4.8589 3.0394 0.7963m1.4817-5.6552c0.67787 0.1776 0.89571 1.5875 0.48656 3.1492s-1.2904 2.6836-1.9682 2.506-0.89571-1.5875-0.48656-3.1492 1.2904-2.6836 1.9682-2.506zm-3.0394-0.7963c0.67787 0.17759 0.89572 1.5875 0.48657 3.1492-0.40915 1.5616-1.2904 2.6836-1.9682 2.506-0.67787-0.1776-0.89571-1.5875-0.48656-3.1492 0.40915-1.5616 1.2904-2.6836 1.9682-2.506z"/>
<ellipse transform="rotate(-75.319)" cx="-165.68" cy="179" rx="1.6043" ry=".69961"/>
</g>
<g transform="matrix(4.065 2.1554 -2.1554 4.065 146.3 -981.26)" fill="none" opacity=".5" stroke="#408881" stroke-linecap="round" stroke-width=".20188">
<path d="m131.91 202.81 3.0394 0.7963m-4.521 4.8589 3.0394 0.7963m1.4817-5.6552c0.67787 0.1776 0.89571 1.5875 0.48656 3.1492s-1.2904 2.6836-1.9682 2.506-0.89571-1.5875-0.48656-3.1492 1.2904-2.6836 1.9682-2.506zm-3.0394-0.7963c0.67787 0.17759 0.89572 1.5875 0.48657 3.1492-0.40915 1.5616-1.2904 2.6836-1.9682 2.506-0.67787-0.1776-0.89571-1.5875-0.48656-3.1492 0.40915-1.5616 1.2904-2.6836 1.9682-2.506z"/>
<ellipse transform="rotate(-75.319)" cx="-165.68" cy="179" rx="1.6043" ry=".69961"/>
</g>
<g transform="matrix(2.0959 .87042 -.87042 2.0959 170.93 216.95)" fill="none" opacity=".5" stroke="#298a56" stroke-linecap="round" stroke-width=".46322">
<rect x="-4.7736" y="-13.934" width="5.0049" height="6.9376" ry="1.7309"/>
<rect x="-17.043" y="-13.934" width="5.0049" height="6.9376" ry="1.7309"/>
<rect x="-12.019" y="-11.943" width="7.2291" height="3.187" opacity="1"/>
</g>
<g transform="matrix(1.9154 .82352 -.82352 1.9154 101.39 289.36)" fill="none" opacity=".5" stroke="#298a56" stroke-linecap="round" stroke-width=".46322">
<rect x="-4.7736" y="-13.934" width="5.0049" height="6.9376" ry="1.7309"/>
<rect x="-17.043" y="-13.934" width="5.0049" height="6.9376" ry="1.7309"/>
<rect x="-12.019" y="-11.943" width="7.2291" height="3.187" opacity="1"/>
</g>
<g transform="matrix(4.3371 2.8261 -2.8261 4.3371 221.72 -1082.3)" fill="none" opacity=".5" stroke="#408881" stroke-linecap="round" stroke-width=".20188">
<path d="m131.91 202.81 3.0394 0.7963m-4.521 4.8589 3.0394 0.7963m1.4817-5.6552c0.67787 0.1776 0.89571 1.5875 0.48656 3.1492s-1.2904 2.6836-1.9682 2.506-0.89571-1.5875-0.48656-3.1492 1.2904-2.6836 1.9682-2.506zm-3.0394-0.7963c0.67787 0.17759 0.89572 1.5875 0.48657 3.1492-0.40915 1.5616-1.2904 2.6836-1.9682 2.506-0.67787-0.1776-0.89571-1.5875-0.48656-3.1492 0.40915-1.5616 1.2904-2.6836 1.9682-2.506z"/>
<ellipse transform="rotate(-75.319)" cx="-165.68" cy="179" rx="1.6043" ry=".69961"/>
</g>
<g transform="matrix(.11643 -3.8143 3.8143 .11643 325.93 76.428)" fill="none" opacity=".5" stroke="#298a56" stroke-linecap="round" stroke-width=".26458">
<path d="m-16.51-12.744-0.09757 7.1916"/>
<path d="m-16.608-5.5522s-1.6963 2.0775-1.396 3.2027c0.1466 0.54945 0.80161 1.0279 1.3702 1.0164 0.55185-0.011186 1.1486-0.5058 1.2889-1.0396 0.2898-1.1029-1.263-3.1794-1.263-3.1794z"/>
<path d="m-14.748-11.954-0.09757 7.1916"/>
<path d="m-14.846-4.7623s-1.6963 2.0775-1.396 3.2027c0.1466 0.54945 0.80161 1.0279 1.3702 1.0164 0.55185-0.011186 1.1486-0.5058 1.2889-1.0396 0.2898-1.1029-1.263-3.1794-1.263-3.1794z"/>
</g>
<g transform="matrix(.13923 -4.9785 4.9785 .13923 -902.03 889.5)" fill="none" opacity=".5" stroke="#408881" stroke-linecap="round" stroke-width=".20188">
<path d="m131.91 202.81 3.0394 0.7963m-4.521 4.8589 3.0394 0.7963m1.4817-5.6552c0.67787 0.1776 0.89571 1.5875 0.48656 3.1492s-1.2904 2.6836-1.9682 2.506-0.89571-1.5875-0.48656-3.1492 1.2904-2.6836 1.9682-2.506zm-3.0394-0.7963c0.67787 0.17759 0.89572 1.5875 0.48657 3.1492-0.40915 1.5616-1.2904 2.6836-1.9682 2.506-0.67787-0.1776-0.89571-1.5875-0.48656-3.1492 0.40915-1.5616 1.2904-2.6836 1.9682-2.506z"/>
<ellipse transform="rotate(-75.319)" cx="-165.68" cy="179" rx="1.6043" ry=".69961"/>
</g>
<g transform="matrix(.90067 -4.2874 4.2874 .90067 -602.56 461.84)" fill="none" opacity=".5" stroke="#408881" stroke-linecap="round" stroke-width=".20188">
<path d="m131.91 202.81 3.0394 0.7963m-4.521 4.8589 3.0394 0.7963m1.4817-5.6552c0.67787 0.1776 0.89571 1.5875 0.48656 3.1492s-1.2904 2.6836-1.9682 2.506-0.89571-1.5875-0.48656-3.1492 1.2904-2.6836 1.9682-2.506zm-3.0394-0.7963c0.67787 0.17759 0.89572 1.5875 0.48657 3.1492-0.40915 1.5616-1.2904 2.6836-1.9682 2.506-0.67787-0.1776-0.89571-1.5875-0.48656-3.1492 0.40915-1.5616 1.2904-2.6836 1.9682-2.506z"/>
<ellipse transform="rotate(-75.319)" cx="-165.68" cy="179" rx="1.6043" ry=".69961"/>
</g>
<g transform="matrix(1.7553 -3.5022 3.5022 1.7553 400.3 5.3528)" fill="none" opacity=".5" stroke="#298a56" stroke-linecap="round" stroke-width=".26458">
<path d="m-16.51-12.744-0.09757 7.1916"/>
<path d="m-16.608-5.5522s-1.6963 2.0775-1.396 3.2027c0.1466 0.54945 0.80161 1.0279 1.3702 1.0164 0.55185-0.011186 1.1486-0.5058 1.2889-1.0396 0.2898-1.1029-1.263-3.1794-1.263-3.1794z"/>
<path d="m-14.748-11.954-0.09757 7.1916"/>
<path d="m-14.846-4.7623s-1.6963 2.0775-1.396 3.2027c0.1466 0.54945 0.80161 1.0279 1.3702 1.0164 0.55185-0.011186 1.1486-0.5058 1.2889-1.0396 0.2898-1.1029-1.263-3.1794-1.263-3.1794z"/>
</g>
<g transform="matrix(4.2906 -.81063 .81063 4.2906 -386.57 -648.78)" fill="none" stroke="#408881" stroke-linecap="round" stroke-width=".20188">
<path d="m131.91 202.81 3.0394 0.7963m-4.521 4.8589 3.0394 0.7963m1.4817-5.6552c0.67787 0.1776 0.89571 1.5875 0.48656 3.1492s-1.2904 2.6836-1.9682 2.506-0.89571-1.5875-0.48656-3.1492 1.2904-2.6836 1.9682-2.506zm-3.0394-0.7963c0.67787 0.17759 0.89572 1.5875 0.48657 3.1492-0.40915 1.5616-1.2904 2.6836-1.9682 2.506-0.67787-0.1776-0.89571-1.5875-0.48656-3.1492 0.40915-1.5616 1.2904-2.6836 1.9682-2.506z" opacity=".5"/>
<ellipse transform="rotate(-75.319)" cx="-165.68" cy="179" rx="1.6043" ry=".69961" opacity=".5"/>
</g>
<g transform="matrix(2.3679 3.0326 -3.0326 2.3679 468.53 228.8)" fill="none" opacity=".5" stroke="#408881" stroke-linecap="round" stroke-width=".26458">
<ellipse cx="-31.503" cy="-1.9987" rx="5.8603" ry="5.8603" opacity="1"/>
<path d="m-35.893-5.8801s2.9959 0.46407 4.5056 0.45997c1.4334-0.00389 4.2756-0.45997 4.2756-0.45997" opacity="1"/>
<path d="m-36.878-4.3193s3.654 0.46331 5.4907 0.45997c1.7602-0.0032 5.2607-0.45997 5.2607-0.45997" opacity="1"/>
<path d="m-37.311-2.759s3.897 0.4631 5.8545 0.45997c1.8811-3e-3 5.6245-0.45997 5.6245-0.45997" opacity="1"/>
<path d="m-37.174-1.2009s3.8515 0.46314 5.7864 0.45997c1.8585-0.003037 5.5564-0.45997 5.5564-0.45997" opacity="1"/>
<path d="m-36.805 0.35614s3.6049 0.46336 5.4172 0.45997c1.7358-0.003243 5.1872-0.45997 5.1872-0.45997" opacity="1"/>
<path d="m-35.837 1.9153s2.958 0.46413 4.4488 0.45997c1.4146-0.00394 4.2188-0.45997 4.2188-0.45997" opacity="1"/>
</g>
<g transform="matrix(5.451 -1.747 1.747 5.451 -780.97 -698.68)" fill="none" opacity=".5" stroke="#408881" stroke-linecap="round" stroke-width=".20188">
<path d="m131.91 202.81 3.0394 0.7963m-4.521 4.8589 3.0394 0.7963m1.4817-5.6552c0.67787 0.1776 0.89571 1.5875 0.48656 3.1492s-1.2904 2.6836-1.9682 2.506-0.89571-1.5875-0.48656-3.1492 1.2904-2.6836 1.9682-2.506zm-3.0394-0.7963c0.67787 0.17759 0.89572 1.5875 0.48657 3.1492-0.40915 1.5616-1.2904 2.6836-1.9682 2.506-0.67787-0.1776-0.89571-1.5875-0.48656-3.1492 0.40915-1.5616 1.2904-2.6836 1.9682-2.506z"/>
<ellipse transform="rotate(-75.319)" cx="-165.68" cy="179" rx="1.6043" ry=".69961"/>
</g>
<g transform="matrix(2.0447 -.085903 .085903 2.0447 218.93 265.17)" fill="none" opacity=".5" stroke="#298a56" stroke-linecap="round" stroke-width=".46322">
<rect x="-4.7736" y="-13.934" width="5.0049" height="6.9376" ry="1.7309"/>
<rect x="-17.043" y="-13.934" width="5.0049" height="6.9376" ry="1.7309"/>
<rect x="-12.019" y="-11.943" width="7.2291" height="3.187" opacity="1"/>
</g>
<g transform="matrix(4.0305 1.6413 -1.6413 4.0305 99.852 -805.86)" fill="none" opacity=".5" stroke="#408881" stroke-linecap="round" stroke-width=".20188">
<path d="m131.91 202.81 3.0394 0.7963m-4.521 4.8589 3.0394 0.7963m1.4817-5.6552c0.67787 0.1776 0.89571 1.5875 0.48656 3.1492s-1.2904 2.6836-1.9682 2.506-0.89571-1.5875-0.48656-3.1492 1.2904-2.6836 1.9682-2.506zm-3.0394-0.7963c0.67787 0.17759 0.89572 1.5875 0.48657 3.1492-0.40915 1.5616-1.2904 2.6836-1.9682 2.506-0.67787-0.1776-0.89571-1.5875-0.48656-3.1492 0.40915-1.5616 1.2904-2.6836 1.9682-2.506z"/>
<ellipse transform="rotate(-75.319)" cx="-165.68" cy="179" rx="1.6043" ry=".69961"/>
</g>
<g transform="matrix(4.4619 -.054455 .054455 4.4619 328.24 242.25)" fill="none" opacity=".5" stroke="#298a56" stroke-linecap="round" stroke-width=".26458">
<path d="m-16.51-12.744-0.09757 7.1916"/>
<path d="m-16.608-5.5522s-1.6963 2.0775-1.396 3.2027c0.1466 0.54945 0.80161 1.0279 1.3702 1.0164 0.55185-0.011186 1.1486-0.5058 1.2889-1.0396 0.2898-1.1029-1.263-3.1794-1.263-3.1794z"/>
<path d="m-14.748-11.954-0.09757 7.1916"/>
<path d="m-14.846-4.7623s-1.6963 2.0775-1.396 3.2027c0.1466 0.54945 0.80161 1.0279 1.3702 1.0164 0.55185-0.011186 1.1486-0.5058 1.2889-1.0396 0.2898-1.1029-1.263-3.1794-1.263-3.1794z"/>
</g>
<g transform="matrix(5.5827 -.060358 .060358 5.5827 -420.88 -1051)" fill="none" opacity=".5" stroke="#408881" stroke-linecap="round" stroke-width=".20188">
<path d="m131.91 202.81 3.0394 0.7963m-4.521 4.8589 3.0394 0.7963m1.4817-5.6552c0.67787 0.1776 0.89571 1.5875 0.48656 3.1492s-1.2904 2.6836-1.9682 2.506-0.89571-1.5875-0.48656-3.1492 1.2904-2.6836 1.9682-2.506zm-3.0394-0.7963c0.67787 0.17759 0.89572 1.5875 0.48657 3.1492-0.40915 1.5616-1.2904 2.6836-1.9682 2.506-0.67787-0.1776-0.89571-1.5875-0.48656-3.1492 0.40915-1.5616 1.2904-2.6836 1.9682-2.506z"/>
<ellipse transform="rotate(-75.319)" cx="-165.68" cy="179" rx="1.6043" ry=".69961"/>
</g>
<g transform="matrix(4.0062 -3.9869 3.9869 4.0062 -956.44 -82.952)" fill="none" opacity=".5" stroke="#408881" stroke-linecap="round" stroke-width=".20188">
<path d="m131.91 202.81 3.0394 0.7963m-4.521 4.8589 3.0394 0.7963m1.4817-5.6552c0.67787 0.1776 0.89571 1.5875 0.48656 3.1492s-1.2904 2.6836-1.9682 2.506-0.89571-1.5875-0.48656-3.1492 1.2904-2.6836 1.9682-2.506zm-3.0394-0.7963c0.67787 0.17759 0.89572 1.5875 0.48657 3.1492-0.40915 1.5616-1.2904 2.6836-1.9682 2.506-0.67787-0.1776-0.89571-1.5875-0.48656-3.1492 0.40915-1.5616 1.2904-2.6836 1.9682-2.506z"/>
<ellipse transform="rotate(-75.319)" cx="-165.68" cy="179" rx="1.6043" ry=".69961"/>
</g>
<g transform="matrix(2.3265 -.46827 .46827 2.3265 383.22 185.7)" fill="none" opacity=".5" stroke="#298a56" stroke-linecap="round" stroke-width=".46322">
<rect x="-4.7736" y="-13.934" width="5.0049" height="6.9376" ry="1.7309"/>
<rect x="-17.043" y="-13.934" width="5.0049" height="6.9376" ry="1.7309"/>
<rect x="-12.019" y="-11.943" width="7.2291" height="3.187" opacity="1"/>
</g>
<g transform="matrix(1.5915 -1.5455 1.5455 1.5915 363.04 261.28)" fill="none" opacity=".5" stroke="#298a56" stroke-linecap="round" stroke-width=".46322">
<rect x="-4.7736" y="-13.934" width="5.0049" height="6.9376" ry="1.7309"/>
<rect x="-17.043" y="-13.934" width="5.0049" height="6.9376" ry="1.7309"/>
<rect x="-12.019" y="-11.943" width="7.2291" height="3.187" opacity="1"/>
</g>
<g transform="matrix(3.0792 2.9883 -2.9883 3.0792 646.77 -966.35)" fill="none" opacity=".5" stroke="#408881" stroke-linecap="round" stroke-width=".20188">
<path d="m131.91 202.81 3.0394 0.7963m-4.521 4.8589 3.0394 0.7963m1.4817-5.6552c0.67787 0.1776 0.89571 1.5875 0.48656 3.1492s-1.2904 2.6836-1.9682 2.506-0.89571-1.5875-0.48656-3.1492 1.2904-2.6836 1.9682-2.506zm-3.0394-0.7963c0.67787 0.17759 0.89572 1.5875 0.48657 3.1492-0.40915 1.5616-1.2904 2.6836-1.9682 2.506-0.67787-0.1776-0.89571-1.5875-0.48656-3.1492 0.40915-1.5616 1.2904-2.6836 1.9682-2.506z"/>
<ellipse transform="rotate(-75.319)" cx="-165.68" cy="179" rx="1.6043" ry=".69961"/>
</g>
<g transform="matrix(3.6226 -.78815 .78815 3.6226 549.87 41.711)" fill="none" opacity=".5" stroke="#298a56" stroke-linecap="round" stroke-width=".26458">
<path d="m-16.51-12.744-0.09757 7.1916"/>
<path d="m-16.608-5.5522s-1.6963 2.0775-1.396 3.2027c0.1466 0.54945 0.80161 1.0279 1.3702 1.0164 0.55185-0.011186 1.1486-0.5058 1.2889-1.0396 0.2898-1.1029-1.263-3.1794-1.263-3.1794z"/>
<path d="m-14.748-11.954-0.09757 7.1916"/>
<path d="m-14.846-4.7623s-1.6963 2.0775-1.396 3.2027c0.1466 0.54945 0.80161 1.0279 1.3702 1.0164 0.55185-0.011186 1.1486-0.5058 1.2889-1.0396 0.2898-1.1029-1.263-3.1794-1.263-3.1794z"/>
</g>
<g transform="matrix(1.6919 -5.1216 5.1216 1.6919 -847.83 353.4)" fill="none" opacity=".5" stroke="#408881" stroke-linecap="round" stroke-width=".20188">
<path d="m131.91 202.81 3.0394 0.7963m-4.521 4.8589 3.0394 0.7963m1.4817-5.6552c0.67787 0.1776 0.89571 1.5875 0.48656 3.1492s-1.2904 2.6836-1.9682 2.506-0.89571-1.5875-0.48656-3.1492 1.2904-2.6836 1.9682-2.506zm-3.0394-0.7963c0.67787 0.17759 0.89572 1.5875 0.48657 3.1492-0.40915 1.5616-1.2904 2.6836-1.9682 2.506-0.67787-0.1776-0.89571-1.5875-0.48656-3.1492 0.40915-1.5616 1.2904-2.6836 1.9682-2.506z"/>
<ellipse transform="rotate(-75.319)" cx="-165.68" cy="179" rx="1.6043" ry=".69961"/>
</g>
<g transform="matrix(3.1592 3.0963 -3.0963 3.1592 694.18 -967.94)" fill="none" opacity=".5" stroke="#408881" stroke-linecap="round" stroke-width=".20188">
<path d="m131.91 202.81 3.0394 0.7963m-4.521 4.8589 3.0394 0.7963m1.4817-5.6552c0.67787 0.1776 0.89571 1.5875 0.48656 3.1492s-1.2904 2.6836-1.9682 2.506-0.89571-1.5875-0.48656-3.1492 1.2904-2.6836 1.9682-2.506zm-3.0394-0.7963c0.67787 0.17759 0.89572 1.5875 0.48657 3.1492-0.40915 1.5616-1.2904 2.6836-1.9682 2.506-0.67787-0.1776-0.89571-1.5875-0.48656-3.1492 0.40915-1.5616 1.2904-2.6836 1.9682-2.506z"/>
<ellipse transform="rotate(-75.319)" cx="-165.68" cy="179" rx="1.6043" ry=".69961"/>
</g>
<g transform="matrix(1.645 -1.7084 1.7084 1.645 516.24 139.66)" fill="none" opacity=".5" stroke="#298a56" stroke-linecap="round" stroke-width=".46322">
<rect x="-4.7736" y="-13.934" width="5.0049" height="6.9376" ry="1.7309"/>
<rect x="-17.043" y="-13.934" width="5.0049" height="6.9376" ry="1.7309"/>
<rect x="-12.019" y="-11.943" width="7.2291" height="3.187" opacity="1"/>
</g>
<g transform="matrix(4.0047 2.7547 -2.7547 4.0047 509.53 -980.17)" fill="none" opacity=".5" stroke="#408881" stroke-linecap="round" stroke-width=".20188">
<path d="m131.91 202.81 3.0394 0.7963m-4.521 4.8589 3.0394 0.7963m1.4817-5.6552c0.67787 0.1776 0.89571 1.5875 0.48656 3.1492s-1.2904 2.6836-1.9682 2.506-0.89571-1.5875-0.48656-3.1492 1.2904-2.6836 1.9682-2.506zm-3.0394-0.7963c0.67787 0.17759 0.89572 1.5875 0.48657 3.1492-0.40915 1.5616-1.2904 2.6836-1.9682 2.506-0.67787-0.1776-0.89571-1.5875-0.48656-3.1492 0.40915-1.5616 1.2904-2.6836 1.9682-2.506z"/>
<ellipse transform="rotate(-75.319)" cx="-165.68" cy="179" rx="1.6043" ry=".69961"/>
</g>
<g transform="matrix(2.1067 -.085057 .085057 2.1067 498.66 194.32)" fill="none" opacity=".5" stroke="#298a56" stroke-linecap="round" stroke-width=".46322">
<rect x="-4.7736" y="-13.934" width="5.0049" height="6.9376" ry="1.7309"/>
<rect x="-17.043" y="-13.934" width="5.0049" height="6.9376" ry="1.7309"/>
<rect x="-12.019" y="-11.943" width="7.2291" height="3.187" opacity="1"/>
</g>
<g transform="matrix(1.8563 1.5763 -1.5763 1.8563 427.38 293.94)" fill="none" opacity=".5" stroke="#298a56" stroke-linecap="round" stroke-width=".46322">
<rect x="-4.7736" y="-13.934" width="5.0049" height="6.9376" ry="1.7309"/>
<rect x="-17.043" y="-13.934" width="5.0049" height="6.9376" ry="1.7309"/>
<rect x="-12.019" y="-11.943" width="7.2291" height="3.187" opacity="1"/>
</g>
<g transform="matrix(.90946 2.4747 -2.4747 .90946 275.13 58.781)" fill="none" opacity=".5" stroke="#298a56" stroke-linecap="round" stroke-width=".46322">
<rect x="-4.7736" y="-13.934" width="5.0049" height="6.9376" ry="1.7309"/>
<rect x="-17.043" y="-13.934" width="5.0049" height="6.9376" ry="1.7309"/>
<rect x="-12.019" y="-11.943" width="7.2291" height="3.187" opacity="1"/>
</g>
<g transform="matrix(2.3131 .13689 -.13689 2.3131 396.41 49.579)" fill="none" opacity=".5" stroke="#298a56" stroke-linecap="round" stroke-width=".46322">
<rect x="-4.7736" y="-13.934" width="5.0049" height="6.9376" ry="1.7309"/>
<rect x="-17.043" y="-13.934" width="5.0049" height="6.9376" ry="1.7309"/>
<rect x="-12.019" y="-11.943" width="7.2291" height="3.187" opacity="1"/>
</g>
</svg>
