<?xml version="1.0" encoding="UTF-8"?>
<svg width="640" height="480" version="1.1" viewBox="0 0 169.34 127" xmlns="http://www.w3.org/2000/svg">
<defs>
<linearGradient id="d" x1="64.474" x2="337.15" y1="47.772" y2="47.772" gradientTransform="matrix(1.2532,0,0,1.1274,-80.831,73.235)" gradientUnits="userSpaceOnUse">
<stop stop-color="#97c9ab" offset="0"/>
<stop stop-color="#b9dfdd" offset="1"/>
</linearGradient>
<filter id="c" x="-.053397" y="-.072887" width="1.1068" height="1.1458" color-interpolation-filters="sRGB">
<feMorphology in="SourceGraphic" operator="dilate" radius="1" result="result0"/>
<feGaussianBlur in="result0" result="result91" stdDeviation="8"/>
<feComposite in="SourceGraphic" in2="result91" operator="in"/>
</filter>
</defs>
<path transform="matrix(.54734 0 0 .54734 -27.085 -22.005)" d="m272.96 251.19c-0.80663-0.46025-2.0414-1.5877-2.744-2.5055-1.1586-1.5135-1.2564-1.787-1.0517-2.9416 0.4032-2.2742 3.4248-6.7128 7.2211-10.608 1.525-1.5645 3.7872-5.7712 5.0261-9.3464 1.6067-4.6363 0.86202-7.3796-4.582-16.88-1.7243-3.009-2.1671-3.5696-2.8784-3.6442-0.52226-0.0548-1.0703 0.14021-1.447 0.51474-0.58987 0.58642-0.58167 0.7642 0.30031 6.5182 1.208 7.8812 1.1283 11.908-0.27838 14.064-0.52038 0.79741-2.0762 2.5153-3.4574 3.8176-8.9918 8.4777-21.791 14.218-26.653 11.953-2.3011-1.072-3.0558-3.985-1.719-6.6349 1.1224-2.225 4.7081-4.8338 7.959-5.7906 0.29898-0.0879 1.0887-0.89884 1.7549-1.8019 1.4979-2.0304 4.4117-4.4634 5.9414-4.961 0.63112-0.20533 1.1475-0.52335 1.1475-0.70672s-0.23507-1.7902-0.52238-3.5706c-0.2873-1.7805-0.57452-5.3042-0.63827-7.8305-0.0638-2.5263-0.12506-4.6899-0.13638-4.8079-0.0323-0.33841-1.891-1.1189-2.6645-1.1189-0.38526 0-1.1054 0.36671-1.6003 0.81493-0.83983 0.76059-0.9375 1.1248-1.4641 5.4604-0.74233 6.1114-1.5612 9.034-2.8207 10.067-2.508 2.0562-10.993 1.931-16.088-0.23726-3.3647-1.4321-5.6863-3.9212-5.6863-6.0966 0-2.0521 2.8386-4.412 5.8234-4.8413 1.6787-0.24146 4.4049 0.30591 5.5461 1.1135 0.46032 0.32577 1.0613 0.51485 1.3356 0.42017 0.89678-0.3096-0.0608-1.2619-1.9934-1.9826-1.0001-0.37294-1.8166-0.75355-1.8144-0.84579 2e-3 -0.0922 0.22272-0.90118 0.49015-1.7976 0.59795-2.0042 0.60955-2.3707 0.0751-2.3707-0.841 0-2.8698-1.8426-4.3616-3.9612-1.3733-1.9504-1.886-2.3834-5.044-4.2588-10.419-6.1879-18.163-14.246-20.679-21.518-0.69801-2.0178-2.1986-3.3854-6.5165-5.9386-8.2479-4.877-20.181-9.92-39.695-16.776-46.509-16.34-120.75-48.518-145.41-63.023-7.2121-4.2427-53.548-34.384-53.268-35.505 0.18196-0.72927 38.398-78.457 38.71-78.733 0.4673-0.4127 67.49 41.04 79.408 48.652 20.026 12.792 31.123 21.375 42.591 32.944 8.3502 8.423 24.095 20.575 54.074 41.734 12.745 8.9958 36.26 24.854 57.477 38.762 7.3659 4.8285 10.118 6.45 13.669 8.0541 10.858 4.9044 25.258 11.952 32.206 15.762 5.9784 3.2782 7.6276 4.4349 10.969 7.6939 1.7062 1.6639 6.4371 5.6955 10.513 8.9591 12.698 10.167 21.038 17.868 24.271 22.41 2.3796 3.344 8.7503 13.304 10.614 16.595 3.1227 5.5127 3.7597 7.3335 3.7907 10.836 0.0238 2.7035-0.0494 3.0828-0.78352 4.0487-1.0127 1.3324-3.1437 2.5994-4.3719 2.5994-3.7443 0-8.404-4.9586-13.92-14.813l-1.1236-2.0073 1.6256-0.9092c1.8392-1.0286 2.952-2.4444 2.9513-3.7551 0-1.3737-1.2159-2.8514-4.3948-5.3445-2.5573-2.0055-4.8249-4.475-4.8249-5.2543 0-0.77659-2.4866-3.2446-6.6597-6.6099-10.19-8.2174-15.368-13.867-20.035-21.862-1.8618-3.189-2.6371-3.9544-2.8735-2.8366-0.10777 0.50942 3.2667 6.0318 5.7123 9.3484 3.8673 5.2445 7.8924 9.2917 14.633 14.714 5.953 4.7882 6.9838 5.7973 8.4357 8.258 0.69519 1.1782 1.9736 2.6667 3.1814 3.7042 5.7083 4.9037 5.5107 4.6958 5.5107 5.7983 0 1.4066-0.94531 2.3999-3.2196 3.383-1.5462 0.66842-2.456 0.83768-5.0522 0.93993-6.3144 0.24869-10.341-1.6618-14.352-6.81-3.303-4.2394-6.4416-6.8803-12.593-10.596-6.1666-3.7248-7.1531-4.1033-14.019-5.3783-17.219-3.1973-27.785-6.2236-34.858-9.984-2.9814-1.5849-7.3506-5.114-8.3046-6.7079-0.6326-1.0568-1.246-1.3407-1.6442-0.76103-0.40554 0.59034 2.864 4.1834 5.5584 6.1085 6.7617 4.831 18.809 8.6912 38.242 12.254 7.3468 1.3469 7.9773 1.5861 14.504 5.5029 4.2488 2.5499 4.8756 3.0637 7.8193 6.4116 2.7634 3.1428 3.5357 4.4008 4.8675 7.9289 1.6598 4.3968 1.6435 5.3663-0.16853 10.091-1.8939 4.9384-4.8327 10.526-7.0614 13.427-0.92572 1.2048-3.2733 3.5988-5.2169 5.32s-4.3216 3.963-5.2845 4.9817c-3.5449 3.7503-5.176 4.3013-7.9861 2.698z" fill="url(#d)" filter="url(#c)" style="paint-order:stroke fill markers"/>
</svg>
