<?xml version="1.0" encoding="UTF-8"?>
<svg width="800" height="340.05" version="1.1" viewBox="0 0 211.67 89.972" xmlns="http://www.w3.org/2000/svg">
<defs>
<filter id="e" x="-.042052" y="-.042038" width="1.0841" height="1.0841" color-interpolation-filters="sRGB">
<feGaussianBlur result="result8" stdDeviation="1.5"/>
<feTurbulence baseFrequency="0.025" numOctaves="5" result="result7" seed="27" type="fractalNoise"/>
<feComposite in="result7" in2="result8" result="result6"/>
<feColorMatrix result="result9" values="1 0 0 0 0 0 1 0 0 0 0 0 1 0 0 0 0 0 6 -4"/>
<feDisplacementMap in="result7" in2="result9" result="result4"/>
<feComposite in="result8" in2="result4" operator="in" result="result2"/>
<feComposite in="result2" in2="result9" operator="in" result="fbSourceGraphic"/>
<feComposite in="fbSourceGraphic" in2="fbSourceGraphic" k1="0.5" k2="1" operator="arithmetic" result="result91"/>
<feBlend in="fbSourceGraphic" in2="result91" mode="multiply"/>
</filter>
<linearGradient id="f" x1="52.121" x2="144.93" y1="76.189" y2="76.189" gradientUnits="userSpaceOnUse">
<stop stop-color="#e3f2f2" offset="0"/>
<stop stop-color="#bfdecc" offset="1"/>
</linearGradient>
<filter id="d" x="-.022268" y="-.01432" width="1.0445" height="1.0286" color-interpolation-filters="sRGB">
<feGaussianBlur result="result8" stdDeviation="0.5"/>
<feTurbulence baseFrequency="0.025" numOctaves="5" result="result7" seed="27" type="fractalNoise"/>
<feComposite in="result7" in2="result8" result="result6"/>
<feColorMatrix result="result9" values="1 0 0 0 0 0 1 0 0 0 0 0 1 0 0 0 0 0 6 -4 "/>
<feDisplacementMap in="result7" in2="result9" result="result4"/>
<feComposite in="result8" in2="result4" operator="in" result="result2"/>
<feComposite in="result2" in2="result9" operator="in" result="fbSourceGraphic"/>
<feComposite in="fbSourceGraphic" in2="fbSourceGraphic" k1="0.5" k2="1" operator="arithmetic" result="result91"/>
<feBlend in="fbSourceGraphic" in2="result91" mode="multiply"/>
</filter>
<filter id="c" x="-.022268" y="-.01432" width="1.0445" height="1.0286" color-interpolation-filters="sRGB">
<feGaussianBlur result="result8" stdDeviation="0.5"/>
<feTurbulence baseFrequency="0.025" numOctaves="5" result="result7" seed="27" type="fractalNoise"/>
<feComposite in="result7" in2="result8" result="result6"/>
<feColorMatrix result="result9" values="1 0 0 0 0 0 1 0 0 0 0 0 1 0 0 0 0 0 6 -4 "/>
<feDisplacementMap in="result7" in2="result9" result="result4"/>
<feComposite in="result8" in2="result4" operator="in" result="result2"/>
<feComposite in="result2" in2="result9" operator="in" result="fbSourceGraphic"/>
<feComposite in="fbSourceGraphic" in2="fbSourceGraphic" k1="0.5" k2="1" operator="arithmetic" result="result91"/>
<feBlend in="fbSourceGraphic" in2="result91" mode="multiply"/>
</filter>
</defs>
<g transform="translate(7.3081 -31.203)" stroke-linecap="round">
<g transform="matrix(4.6204,5.9174,-5.9174,4.6204,232.21,271.96)" display="none" fill="none" opacity=".5" stroke="#408881" stroke-width=".26458">
<circle cx="-31.503" cy="-1.9987" r="5.8603" opacity="1"/>
<path d="m-35.893-5.8801s2.9959 0.46407 4.5056 0.45997c1.4334-0.00389 4.2756-0.45997 4.2756-0.45997" opacity="1"/>
<path d="m-36.878-4.3193s3.654 0.46331 5.4907 0.45997c1.7602-0.0032 5.2607-0.45997 5.2607-0.45997" opacity="1"/>
<path d="m-37.311-2.759s3.897 0.4631 5.8545 0.45997c1.8811-3e-3 5.6245-0.45997 5.6245-0.45997" opacity="1"/>
<path d="m-37.174-1.2009s3.8515 0.46314 5.7864 0.45997c1.8585-0.003037 5.5564-0.45997 5.5564-0.45997" opacity="1"/>
<path d="m-36.805 0.35614s3.6049 0.46336 5.4172 0.45997c1.7358-0.003243 5.1872-0.45997 5.1872-0.45997" opacity="1"/>
<path d="m-35.837 1.9153s2.958 0.46413 4.4488 0.45997c1.4146-0.00394 4.2188-0.45997 4.2188-0.45997" opacity="1"/>
</g>
<path d="m87.91 117.71c-3.5136-0.90848-5.5651-1.6742-8.6862-3.2424-11.091-5.5723-19.344-15.893-22.329-27.921-0.95148-3.8344-1.1723-5.8135-1.1732-10.514-7.73e-4 -4.1782 0.0023-4.2004 0.47681-3.4169 0.26268 0.43369 2.226 3.7253 4.3629 7.3147 4.5593 7.6582 9.348 14.946 11.97 18.218 2.7799 3.468 9.503 10.604 14.853 15.764 5.3394 5.1508 5.3239 5.0384 0.52568 3.7978zm2.8021-3.7626c-5.9621-5.7124-12.202-12.199-15.487-16.099-3.6005-4.275-10.104-14.332-16.812-26l-2.1033-3.6581 0.39237-1.7302c0.45829-2.0208 2.0062-6.5725 2.6852-7.8962l0.47114-0.91835 0.75229 1.2607c2.6571 4.4528 9.4279 15.158 12.827 20.28 7.9136 11.925 11.412 16.109 26.635 31.85 5.3585 5.5408 6.8027 7.1742 6.4403 7.2838-1.0835 0.32786-5.1206 0.68715-7.721 0.68715h-2.7993zm12.54-3.0227c-18.9-19.045-23.333-24.808-39.807-51.742l-2.4286-3.9707 1.06-1.6804c1.4395-2.282 4.4099-6.0629 4.6865-5.9652 0.12352 0.04362 2.2538 3.332 4.734 7.3075 5.5737 8.9341 12.805 19.89 16.177 24.511 5.4113 7.4143 11.253 14.014 25.013 28.257l6.1602 6.3767-1.9903 0.90702c-2.1364 0.9736-6.3127 2.5043-6.8326 2.5043-0.17419 0-3.2217-2.9274-6.7723-6.5053zm9.5623-6.4396c-16.909-17.657-20.386-21.823-29.12-34.892-7.3711-11.03-15.194-23.566-15.008-24.05 0.26333-0.68623 6.883-5.9304 7.0904-5.6171 0.03546 0.05358 1.9446 3.1135 4.2424 6.7999 7.4879 12.013 14.773 22.876 19.036 28.387 4.1725 5.3936 13.195 15.404 22.63 25.107 2.6744 2.7504 5.2543 5.4252 5.7332 5.9441l0.87059 0.94343-2.0534 1.6971c-2.2548 1.8636-5.0496 3.8952-5.3585 3.8952-0.10825 0-3.7364-3.6962-8.0627-8.2138zm11.62-4.7248c-6.3998-6.5431-15.467-16.318-19.402-20.918-5.0064-5.8516-10.134-13.044-17.836-25.02-7.8575-12.217-9.5208-15.008-9.114-15.292 0.75063-0.52368 4.2375-2.0624 6.416-2.8313l2.2549-0.79589 0.97257 1.5868c8.3782 13.67 15.883 25.175 19.963 30.606 4.229 5.6285 9.3741 11.346 21.397 23.778 6.3155 6.5303 6.472 6.7182 6.1375 7.3636-0.47249 0.91162-3.2128 4.6866-4.3695 6.0194l-0.95059 1.0953zm6.175-10.639c-16.716-16.979-21.805-23.318-33.295-41.476-6.572-10.386-8.2206-13.218-7.7911-13.382 0.95691-0.3672 6.8147-0.95772 8.8049-0.88761l2.1758 0.07664 1.0413 1.8399c2.6785 4.7326 9.1924 15.423 11.855 19.456 5.1206 7.7562 8.3278 11.449 19.842 22.848l7.155 7.0835-0.16837 1.0646c-0.22861 1.4454-2.0692 6.9102-2.8349 8.4168l-0.62073 1.2214zm2.0124-15.357c-4.3639-4.3907-8.8682-9.0758-10.009-10.411-3.1101-3.6394-6.4333-8.3307-10.421-14.711-3.2914-5.2661-8.9049-14.693-8.9049-14.954 0-0.39409 6.2554 1.0326 9.5698 2.1825 12.049 4.1806 21.743 13.974 26.127 26.395 1.706 4.8334 2.5977 11.156 2.2843 16.198-0.1011 1.6266-0.30252 3.0309-0.4476 3.1205-0.14509 0.0897-3.8343-3.4294-8.1982-7.8201z" fill="url(#f)" filter="url(#e)" stroke-linejoin="round" stroke-width=".54671" style="paint-order:stroke fill markers"/>
</g>
<text x="-5.0925198" y="86.730927" fill="#b9dfdd" filter="url(#d)" font-family="Bahnschrift" font-size="118.04px" letter-spacing=".89421px" stroke-width=".89421" style="paint-order:stroke fill markers" xml:space="preserve"><tspan x="-5.0925198" y="86.730927" fill="#b9dfdd" font-family="Bahnschrift" stroke-width=".89421">4</tspan></text>
<text x="147.88667" y="86.730927" fill="#b9dfdd" filter="url(#c)" font-family="Bahnschrift" font-size="118.04px" letter-spacing=".89421px" stroke-width=".89421" style="paint-order:stroke fill markers" xml:space="preserve"><tspan x="147.88667" y="86.730927" fill="#b9dfdd" font-family="Bahnschrift" stroke-width=".89421">4</tspan></text>
</svg>
