<?xml version="1.0" encoding="UTF-8"?>
<svg width="277.87" height="229.32" version="1.1" viewBox="0 0 73.519 60.674" xmlns="http://www.w3.org/2000/svg">
<g transform="translate(-66.749 -64.532)">
<rect x="66.749" y="64.532" width="73.519" height="60.674" fill="none"/>
<g transform="translate(-43.745 -40.529)" fill="#50a775">
<rect x="111.14" y="146.26" width="72.233" height="11.566" ry="3.957" stroke="#fff" stroke-linecap="round" stroke-width="1.2858"/>
<rect x="162.67" y="145.35" width="13.237" height="1.8413" rx="1.2833" ry=".92065"/>
<rect x="112.67" y="155.8" width="4.4951" height="9.9307"/>
<rect x="177.23" y="155.8" width="4.4951" height="9.9307"/>
</g>
<g transform="translate(-43.745 -40.529)" fill="#50a775">
<ellipse cx="148.48" cy="111.96" rx="6.6437" ry="6.6437" stroke="#50a775" stroke-width=".51105"/>
<path d="m143.5 121.01c0.31827-2.0875 9.4461-1.905 9.7282 0.43179 0.81513 6.7515 0.18913 12.864 0.25092 17.767 0.0372 2.9457-6.0511 4.7846-9.2879 1.8342 0 0-1.3985-15.395-0.69126-20.033z" stroke="#50a775" stroke-width=".62133"/>
<path d="m153.28 121.05c2.8521 2.3349 6.275 4.1616 7.083 7.5053 0.64706 2.6778-0.86625 4.6444-2.302 7.9375-0.58424 1.34-4.7774 0.81383-4.3833-0.14313 1.7026-4.1344 3.8822-4.8015 3.273-7.4422-0.69156-2.9982-2.5315-2.5191-7.0418-5.9684-1.0232-0.7825 2.2621-2.797 3.3711-1.8891z" stroke="#50a775" stroke-linecap="round"/>
<path d="m143.42 120.86c-2.6334 2.579-5.8805 4.7026-6.3882 8.1048-0.40663 2.7247 1.2754 4.5491 2.998 7.7017 0.70097 1.2828 4.8308 0.38623 4.3532-0.53193-2.0631-3.9668-4.2933-4.4377-3.9212-7.122 0.42249-3.0478 2.2977-2.734 6.4838-6.5704 0.94963-0.87029-2.5016-2.585-3.5256-1.5822z" stroke="#50a775" stroke-linecap="round"/>
<path d="m143.77 140.63s-2.8281 16.15-3.639 23.12c-0.15175 1.3043 4.2583 3.4301 4.7492 0.55576 2.0297-11.886 3.2666-15.898 3.2666-23.666 0-1.1954-3.1712-2.0594-4.3767-0.01z"/>
<path d="m153.79 140.18s2.8281 16.435 3.639 23.528c0.15175 1.3274-4.2583 3.4907-4.7492 0.56558-2.0297-12.096-3.2666-16.179-3.2666-24.084 0-1.2165 3.1712-2.0958 4.3767-0.01z"/>
</g>
<g transform="translate(-43.745 -40.529)" fill="#3b7871">
<path d="m142.72 141.15c-8.1203 0.0438-14.421 0.58118-23.655 0.5198-2.11-0.014-3.0413 4.2941-1.6681 4.3391 9.6774 0.31728 15.672 0.89161 24.036-0.36167 3.2496-0.48693 2.8621-4.5058 1.2871-4.4973z"/>
<path d="m161.52 136.41s-2.1426 2.8427 0.0889 6.3696c1.6343 2.5831-20.483 2.6033-20.483 2.6033s-5.0403-6.3229-1.3356-9.849 23.582-0.67574 21.73 0.87612z" stroke="#3b7871" stroke-width=".5727"/>
<ellipse cx="169.29" cy="138.48" rx="6.8694" ry="6.8694" stroke="#3b7871" stroke-width=".52841"/>
<path d="m159.21 141.11s-21.927 3.3362-23.482 1.7558c-1.5547-1.5804-1.444-3.4857 0.0468-4.0456 1.4908-0.55996 22.257-2.1222 22.257-2.1222s3.241 1.5956 1.1785 4.412z" stroke="#fff" stroke-width=".82758"/>
</g>
</g>
</svg>
