<?xml version="1.0" encoding="UTF-8"?>
<svg width="215.03" height="128.72" version="1.1" viewBox="0 0 56.892 34.056" xmlns="http://www.w3.org/2000/svg">
<g transform="translate(-68.527 -93.662)">
<ellipse cx="118.29" cy="100.8" rx="6.8694" ry="6.8694" fill="#3b7871" stroke="#3b7871" stroke-width=".52841"/>
<path d="m109.77 101.12s-0.41721 4.3051 3.9053 6.6955c3.1659 1.7508-18.723 11.868-18.723 11.868s-8.771-0.40691-7.217-6.3788c1.554-5.9719 22.939-14.948 22.035-12.185z" fill="#3b7871" stroke="#3b7871" stroke-width=".68017"/>
<path d="m109.41 100.68c-2.5132-2.6352-7.8048-9.1969-11.495-4.3334-4.4284 5.8369-6.2017 8.9614-5.9965 10.676 0.1219 0.76888 3.0615 1.3318 4.2604-0.14776 1.199-1.4796 4.385-9.0283 5.5721-8.8222 1.4713 0.25543 3.2558 2.643 4.0983 3.9998 0.65429 1.0537 4.5055-0.38114 3.5604-1.3721z" fill="#3b7871" stroke="#3b7871" stroke-linecap="round" stroke-width="1.0198"/>
<path d="m90.303 106.43-0.74283-4.2583-1.0729 3.4556-2.8105-4.4287 0.7321 4.9946-5.9923-4.0078 4.4698 5.4368-4.9277-2.066 4.32 3.7276-3.0347 0.56931 4.9171 0.86429s-0.72684-4.2 4.1419-4.2873z" fill="#3b7871"/>
<path d="m116.81 126.32c0.23642 1.5604 6.0132 0.83236 5.963-0.74313-0.17885-5.6154-4.2147-10.429-8.3802-17.246-0.84541-1.3836-5.3606 0.10203-4.8158 1.5294 2.9011 7.601 6.267 10.084 7.233 16.46z" fill="#3b7871"/>
<path d="m89.278 111.02c-6.8604 3.4379-11.96 6.5567-19.811 10.366-1.7939 0.87054-0.6748 5.1228 0.50857 4.5885 8.3396-3.7658 13.673-5.7598 20.204-10.384 2.5375-1.7966 0.4293-5.2376-0.90136-4.5708z" fill="#3b7871"/>
<path d="m94.714 116.17c3.2985 2.8249 8.2109 10.424 3.0062 11.191-7.0506 1.0395-19.188-0.54205-21.079-0.53605s-1.7471-5.314 0-5.2454c7.5894 0.29772 10.52 0.49078 15.769 0.58089 0.4671 8e-3 -2.7426-2.5986-2.5567-4.4489 0.0066-0.0653 0.02516-0.13262 0.05463-0.20127 0.45646-1.0635 4.8054-2.4414 4.8054-1.3405z" fill="#3b7871"/>
<rect x="68.527" y="93.662" width="56.892" height="34.056" fill="none" stroke-linecap="round" stroke-width="1.0054"/>
</g>
</svg>
