<?xml version="1.0" encoding="UTF-8"?>
<svg width="20.854" height="31.618" version="1.1" viewBox="0 0 5.5177 8.3656" xmlns="http://www.w3.org/2000/svg" xmlns:xlink="http://www.w3.org/1999/xlink">
<defs>
<linearGradient id="a">
<stop stop-color="#50a59f" offset="0"/>
<stop stop-color="#50a59f" stop-opacity="0" offset="1"/>
</linearGradient>
<linearGradient id="g" x1="112.33" x2="132.62" y1="195.87" y2="195.87" gradientUnits="userSpaceOnUse" xlink:href="#a"/>
<linearGradient id="f" x1="108.84" x2="128.97" y1="123.02" y2="123.02" gradientUnits="userSpaceOnUse" xlink:href="#a"/>
<linearGradient id="e" x1="108.95" x2="132.19" y1="152.41" y2="152.41" gradientUnits="userSpaceOnUse" xlink:href="#a"/>
<linearGradient id="d" x1="-2.5939" x2="233.34" y1="73.484" y2="73.484" gradientUnits="userSpaceOnUse">
<stop stop-color="#50a59f" stop-opacity="0" offset="0"/>
<stop stop-color="#50a59f" offset="1"/>
</linearGradient>
<linearGradient id="c" x1="243.68" x2="279.49" y1="84.42" y2="84.42" gradientUnits="userSpaceOnUse" xlink:href="#a"/>
<linearGradient id="b" x1="252.7" x2="293.37" y1="66.013" y2="66.013" gradientUnits="userSpaceOnUse" xlink:href="#a"/>
</defs>
<g transform="translate(-.092929 -.13149)">
<g transform="matrix(.40289 0 0 .40289 -44.145 -94.527)">
<g transform="matrix(.10722 0 0 .10629 99.844 229.3)">
<path transform="matrix(.4005 0 0 .28651 127.16 134.25)" d="m51.601 320.5c45.652-28.823 99.815-50.548 114.21-102.82 29.047-105.5-59.543-242.67-78.312-299.1-6.4213-19.306 29.941-3.7638 44.677-0.71407 26.121 5.4063 42.307 16.614 75.599 33.304 12.03 6.0312 33.746-34.831 19.964-45.381s-48.418-28.652-73.372-45.928c-18.298-12.668-18.323-54.745-32.814-75.684-21.327-30.817-47.417-41.691-70.878-30.732-28.126 13.137-53.225 59.426-52.058 100.85 0.49961 17.725 26.92 29.063 24.636 40.57-20.971 105.63 76.359 215.89 35.451 321.73-19.012 49.19-68.291 102.26-40.763 154.12 5.9225 11.158 36.625 36.994 28.448 22.783-16.244-28.231-18.506-58.01 5.2165-72.988z" fill="url(#d)" stroke="#30985f" stroke-linecap="round" stroke-width="2.3432"/>
<path d="m113.04 199.56c-1.1205 2.9312 0.95901 5.7512 2.7021 7.9481 2.4613 3.1021 7.7498 4.1964 10.691 1.0783 2.4756-2.6249 1.6272-6.531 2.3722-9.7775l2.9438-12.828c1.7109-7.4558-1.7076-3.9667-2.3988-3.2863-4.5204 4.4497-9.199 8.5761-13.687 13.045-1.0995 1.0949-2.0752 2.3551-2.6232 3.8205z" fill="url(#g)" stroke="#30985f" stroke-linecap="round" stroke-opacity="0" stroke-width=".79375"/>
<path d="m127.88 121.49c2.0261 5.4695-0.70437 8.9552-3.7909 9.1599s-13.418-6.0156-14.68-11.091c-2.1019-4.8863 15.198-6.9055 18.471 1.9311z" fill="url(#f)" stroke="#30985f" stroke-linecap="round" stroke-opacity="0" stroke-width=".79375"/>
<path d="m131.14 150.97c2.1668 6.2776-1.1818 10.125-4.8194 10.24-3.6376 0.11459-15.542-7.3302-16.825-13.132-2.2788-5.6194 18.144-7.2502 21.645 2.892z" fill="url(#e)" stroke="#30985f" stroke-linecap="round" stroke-opacity="0" stroke-width=".7401"/>
<circle cx="170.22" cy="85.06" r="3.6149" fill="#fff"/>
<path transform="translate(-150.8 -.84582)" d="m279.09 96.917c-22.603-4.5787-40.087-27.854-33.67-24.808 22.395 10.63 33.621 11.28 33.621 11.28z" fill="url(#c)" stroke="#30985f" stroke-linecap="round" stroke-width=".79375"/>
<path transform="translate(-150.8 -.84582)" d="m282.25 77.568c-18.543-5.0816-36.717-28.902-25.898-21.868 18.522 12.042 36.042 11.63 36.042 11.63z" fill="url(#b)" stroke="#30985f" stroke-linecap="round" stroke-width=".79375"/>
</g>
</g>
</g>
</svg>
