<?xml version="1.0" encoding="UTF-8"?>
<svg width="51.762" height="78.478" version="1.1" viewBox="0 0 13.696 20.764" xml:space="preserve" xmlns="http://www.w3.org/2000/svg"><g transform="matrix(-1 0 0 1 123.5 -234.95)"><g transform="matrix(.10722 0 0 .10629 99.844 229.3)"><path transform="matrix(.4005 0 0 .28651 127.16 134.25)" d="m51.601 320.5c45.652-28.823 99.815-50.548 114.21-102.82 29.047-105.5-59.543-242.67-78.312-299.1-6.4213-19.306 29.941-3.7638 44.677-0.71407 26.121 5.4063 42.307 16.614 75.599 33.304 12.03 6.0312 33.746-34.831 19.964-45.381s-48.418-28.652-73.372-45.928c-18.298-12.668-18.323-54.745-32.814-75.684-21.327-30.817-47.417-41.691-70.878-30.732-28.126 13.137-53.225 59.426-52.058 100.85 0.49961 17.725 26.92 29.063 24.636 40.57-20.971 105.63 76.359 215.89 35.451 321.73-19.012 49.19-68.291 102.26-40.763 154.12 5.9225 11.158 36.625 36.994 28.448 22.783-16.244-28.231-18.506-58.01 5.2165-72.988z" fill="#45958e" stroke="#45958e" stroke-linecap="round" stroke-width="2.3432"/><path d="m113.04 199.56c-1.1205 2.9312 0.95901 5.7512 2.7021 7.9481 2.4613 3.1021 7.7498 4.1964 10.691 1.0783 2.4756-2.6249 1.6272-6.531 2.3722-9.7775l2.9438-12.828c1.7109-7.4558-1.7076-3.9667-2.3988-3.2863-4.5204 4.4497-9.199 8.5761-13.687 13.045-1.0995 1.0949-2.0752 2.3551-2.6232 3.8205z" fill="#45958e" stroke="#45958e" stroke-linecap="round" stroke-width=".79375"/><path d="m127.88 121.49c2.0261 5.4695-0.70437 8.9552-3.7909 9.1599s-13.418-6.0156-14.68-11.091c-2.1019-4.8863 15.198-6.9055 18.471 1.9311z" fill="#45958e" stroke="#45958e" stroke-linecap="round" stroke-width=".79375"/><path d="m131.14 150.97c2.1668 6.2776-1.1818 10.125-4.8194 10.24-3.6376 0.11459-15.542-7.3302-16.825-13.132-2.2788-5.6194 18.144-7.2502 21.645 2.892z" fill="#45958e" stroke="#45958e" stroke-linecap="round" stroke-width=".7401"/><circle cx="170.22" cy="85.06" r="3.6149" fill="#fff"/><path transform="translate(-150.8 -.84582)" d="m279.09 96.917c-22.603-4.5787-40.087-27.854-33.67-24.808 22.395 10.63 33.621 11.28 33.621 11.28z" fill="#45958e" stroke="#45958e" stroke-linecap="round" stroke-width=".79375"/><path transform="matrix(-9.3266 0 0 9.4082 220.61 -.36363)" d="m4.5582 9.4299-0.87378 0.25607m3.306-0.60628a1.1998 1.283 0 0 1-1.1998 1.283 1.1998 1.283 0 0 1-1.1998-1.283 1.1998 1.283 0 0 1 1.1998-1.283 1.1998 1.283 0 0 1 1.1998 1.283z" fill="none" stroke="#2b4c46" stroke-linecap="round" stroke-width=".13229" style="paint-order:stroke fill markers"/><path transform="translate(-150.8 -.84582)" d="m282.25 77.568c-18.543-5.0816-36.717-28.902-25.898-21.868 18.522 12.042 36.042 11.63 36.042 11.63z" fill="#45958e" stroke="#45958e" stroke-linecap="round" stroke-width=".79375"/><g transform="matrix(-9.4364 0 0 9.4074 84.661 -2.0484)" stroke-linecap="round"><path d="m-8.7745 12.804s-2.9513 3.9814-3.4291 5.6904c-0.4778 1.7091 4.1025 2.1354 4.8294 0.67995 0.72692-1.4554 2.4669-5.4963 2.0229-7.1888m-2.8775 0.10272c0.17089-0.13318 2.6172-0.90371 2.7359-0.88395 0.11875 0.01976 0.14386 0.76626 0.14386 0.76626s-1.4596 0.67153-1.6172 0.58806-0.3688-0.48779-0.4713-0.41942c-0.1025 0.06837-0.58373 0.20364-1.3159 0.69508-0.2524 0.16942 0.35365-0.61285 0.52453-0.74603z" fill="none" stroke="#2b4c46" stroke-width=".13153" style="paint-order:stroke fill markers"/><path transform="matrix(.26459 0 0 .26459 0 -.00012378)" d="m-38.625 75.364c-4.3478-0.55806-7.2596-2.3482-7.2869-4.4801-4e-3 -0.31426 0.1521-1.0495 0.34695-1.6339 0.45141-1.3538 2.3019-4.9993 3.8071-7.5 1.4524-2.413 4.9689-7.7228 7.0493-10.644 1.5553-2.184 1.5823-2.2133 2.6264-2.8439 1.1034-0.66651 3.7951-2.0087 4.0322-2.0107 0.07563-6.32e-4 0.43105 0.33635 0.78984 0.74885 0.59468 0.68372 0.69666 0.75 1.154 0.75 0.60138 0 1.8696-0.42201 3.9792-1.3241 0.85829-0.36703 1.6023-0.62554 1.6534-0.57446 0.05107 0.05107 0.12913 0.56946 0.17346 1.152 0.29569 3.8857-1.7682 11.459-5.4838 20.122-1.7209 4.0124-2.5069 5.5525-3.1546 6.1821-1.7038 1.6559-5.8882 2.5445-9.6864 2.0569z" fill="#fff" stroke="#fff" stroke-width=".062635" style="paint-order:stroke fill markers"/><path transform="matrix(.26459 0 0 .26459 0 -.00012378)" d="m-31.737 46.864c0.31658-0.37181 0.7493-0.7948 0.96159-0.93998 0.73329-0.50148 9.4497-3.2773 9.8313-3.1308 0.15822 0.06072 0.28021 0.70434 0.35756 1.8865 0.02321 0.35476-0.02581 0.38815-1.5105 1.0289-1.7997 0.77664-3.5708 1.417-3.9193 1.417-0.1405 0-0.58576-0.35482-1.0365-0.826-0.67396-0.70446-0.83397-0.81282-1.0875-0.7364-0.16349 0.04928-1.1129 0.49001-2.1097 0.9794-0.99688 0.48939-1.8688 0.91404-1.9375 0.94367-0.06875 0.02963 0.13402-0.25034 0.4506-0.62215z" fill="#fff" stroke="#fff" stroke-width=".0625" style="paint-order:stroke fill markers"/></g></g></g></svg>
