<?xml version="1.0" encoding="UTF-8"?>
<svg width="100.39" height="99.983" version="1.1" viewBox="0 0 26.561 26.454" xml:space="preserve" xmlns="http://www.w3.org/2000/svg"><g transform="translate(-109.8 -229.26)"><g transform="matrix(.10722 0 0 .10629 99.844 229.3)"><path transform="matrix(.4005 0 0 .28651 127.16 134.25)" d="m51.601 320.5c45.652-28.823 99.815-50.548 114.21-102.82 29.047-105.5-59.543-242.67-78.312-299.1-6.4213-19.306 29.941-3.7638 44.677-0.71407 26.121 5.4063 42.307 16.614 75.599 33.304 12.03 6.0312 33.746-34.831 19.964-45.381s-48.418-28.652-73.372-45.928c-18.298-12.668-18.323-54.745-32.814-75.684-21.327-30.817-47.417-41.691-70.878-30.732-28.126 13.137-53.225 59.426-52.058 100.85 0.49961 17.725 26.92 29.063 24.636 40.57-20.971 105.63 76.359 215.89 35.451 321.73-19.012 49.19-68.291 102.26-40.763 154.12 5.9225 11.158 36.625 36.994 28.448 22.783-16.244-28.231-18.506-58.01 5.2165-72.988z" fill="#45958e" stroke="#45958e" stroke-linecap="round" stroke-width="2.3432"/><path d="m113.04 199.56c-1.1205 2.9312 0.95901 5.7512 2.7021 7.9481 2.4613 3.1021 7.7498 4.1964 10.691 1.0783 2.4756-2.6249 1.6272-6.531 2.3722-9.7775l2.9438-12.828c1.7109-7.4558-1.7076-3.9667-2.3988-3.2863-4.5204 4.4497-9.199 8.5761-13.687 13.045-1.0995 1.0949-2.0752 2.3551-2.6232 3.8205z" fill="#45958e" stroke="#45958e" stroke-linecap="round" stroke-width=".79375"/><path d="m127.88 121.49c2.0261 5.4695-0.70437 8.9552-3.7909 9.1599s-13.418-6.0156-14.68-11.091c-2.1019-4.8863 15.198-6.9055 18.471 1.9311z" fill="#45958e" stroke="#45958e" stroke-linecap="round" stroke-width=".79375"/><path d="m131.14 150.97c2.1668 6.2776-1.1818 10.125-4.8194 10.24-3.6376 0.11459-15.542-7.3302-16.825-13.132-2.2788-5.6194 18.144-7.2502 21.645 2.892z" fill="#45958e" stroke="#45958e" stroke-linecap="round" stroke-width=".7401"/><circle cx="170.22" cy="85.06" r="3.6149" fill="#fff"/><path transform="translate(-150.8 -.84582)" d="m279.09 96.917c-22.603-4.5787-40.087-27.854-33.67-24.808 22.395 10.63 33.621 11.28 33.621 11.28z" fill="#45958e" stroke="#45958e" stroke-linecap="round" stroke-width=".79375"/><path transform="translate(-150.8 -.84582)" d="m282.25 77.568c-18.543-5.0816-36.717-28.902-25.898-21.868 18.522 12.042 36.042 11.63 36.042 11.63z" fill="#45958e" stroke="#45958e" stroke-linecap="round" stroke-width=".79375"/></g><g transform="translate(109.8 229.26)"><path d="m20.825 0.26454c-0.47334-0.00205-0.95305 0.05766-1.4287 0.18488-2.5366 0.67848-4.2427 3.1253-4.0811 5.7272s-1.112 3.4223-0.78726 3.541c0.32474 0.11871 1.6438-0.60908 2.6252 0.272 0.9814 0.88108 4.8826 1.8747 6.972 0.2685 2.0894-1.6062 2.7656-4.4834 1.615-6.87-0.93487-1.939-2.864-3.1146-4.9151-3.1235z" fill="none" stroke="#45958e" stroke-width=".52917" style="paint-order:stroke fill markers"/><rect transform="rotate(20.21)" x="20.605" y="-5.4214" width="1.4881" height="4.8134" ry=".74406" fill="#45958e" stroke="#45958e" stroke-width=".22948" style="paint-order:stroke fill markers"/><ellipse cx="19.643" cy="8.2236" rx=".80149" ry=".72887" fill="#45958e" stroke="#45958e" stroke-width=".21416" style="paint-order:stroke fill markers"/><path transform="matrix(.26459 0 0 .26459 0 -.00012378)" d="m78.138 40.894c-5.2627-0.43636-10.176-1.9567-12.534-3.8782-1.0046-0.8188-1.6739-1.2029-2.7456-1.5758-0.91847-0.31959-0.94562-0.3228-2.6959-0.31852-1.4037 0.0034-1.9705 0.0467-2.7503 0.20998-0.54024 0.11311-0.99369 0.19507-1.0077 0.18213-0.01397-0.01294 0.25796-0.61618 0.60429-1.3405 0.97749-2.0444 1.5684-4.1241 1.8255-6.4247 0.05433-0.48622 0.09915-2.3301 0.09959-4.0975 8.89e-4 -3.545 0.09596-4.5941 0.58994-6.51 1.2861-4.9881 4.375-9.2641 8.7247-12.078 0.94836-0.61349 3.093-1.6349 4.2017-2.0012 4.8689-1.6084 10.021-1.2691 14.654 0.96489 4.5866 2.2117 8.1613 6.1561 9.9705 11.002 1.2847 3.4406 1.5855 7.3837 0.84311 11.05-0.82462 4.0727-3.1554 8.1497-6.2153 10.872-2.1954 1.9531-4.2348 2.9567-7.2295 3.5577-1.8937 0.38003-4.4956 0.53855-6.3355 0.38599zm-2.3795-6.9348c0.69646-0.31885 1.2401-0.81717 1.5997-1.4663 0.25964-0.46868 0.2885-0.60963 0.28769-1.405-7.84e-4 -0.76638-0.03571-0.95022-0.26249-1.3814-0.32618-0.62018-0.92216-1.1663-1.6402-1.503-0.48109-0.22558-0.67825-0.25884-1.5343-0.25884-0.87523 0-1.0428 0.02974-1.5382 0.273-1.2044 0.59147-1.8837 1.6252-1.8829 2.8657 8.54e-4 1.4249 0.89719 2.5516 2.4388 3.0655 0.61402 0.20468 1.877 0.11004 2.5318-0.18972zm2.9663-7.8391c0.58162-0.21761 1.3899-0.91588 1.6479-1.4235 0.30654-0.60328 4.5952-12.409 4.6907-12.912 0.1864-0.98288-0.19711-2.14-0.9497-2.8654-0.92777-0.89424-2.4418-1.1703-3.5744-0.65176-0.66901 0.30628-1.2045 0.7658-1.5134 1.2986-0.1288 0.22219-1.2606 3.1887-2.5152 6.5922-2.2116 5.9999-2.2811 6.2106-2.2849 6.9256-0.0075 1.4293 0.83071 2.6223 2.1817 3.1051 0.56272 0.20109 1.6857 0.16798 2.3173-0.06833z" fill="#fff" style="paint-order:stroke fill markers"/></g></g></svg>
