<?xml version="1.0" encoding="UTF-8"?>
<svg width="160.32" height="207.63" version="1.1" viewBox="0 0 42.418 54.936" xmlns="http://www.w3.org/2000/svg">
<g transform="translate(-87.313 -103.72)">
<ellipse cx="115.67" cy="110.85" rx="6.8694" ry="6.8694" fill="#3b7871" stroke="#3b7871" stroke-width=".52841"/>
<path d="m109.61 116.63s2.4495 3.5648 7.2968 2.615c3.5503-0.69569-3.0551 24.208-3.0551 24.208s-10.626 2.2524-13.277-3.3199c-2.6511-5.5722 7.9505-26.199 9.0352-23.503z" fill="#3b7871" stroke="#3b7871" stroke-width=".68017"/>
<path d="m113.19 138.13s12.659 1.7791 13.845 3.1477c1.1861 1.3686 2.8398 15.693 2.2011 16.332-0.63866 0.63866-1.7906 0.9922-2.6117 0.35355-0.82113-0.63868-3.5127-13.401-3.5127-13.401l-11.77-1.916z" fill="#3b7871" stroke="#3b7871" stroke-width=".71336"/>
<circle cx="109.18" cy="143.15" r="14.632" fill="#fff" stroke="#3b7871" stroke-width=".69742"/>
<path d="m88.021 114.1 7.1361 0.24205 2.799 19.195 3.1853-2.6846-3.169-19.198-10.284-0.39936z" fill="#fff" stroke="#3b7871" stroke-width=".66748"/>
<path d="m108.59 119.68s19.594 10.393 19.9 12.588-0.91848 3.6594-2.4493 3.2203c-1.5308-0.43913-19.135-11.564-19.135-11.564s-1.651-3.2132 1.6839-4.245z" fill="#3b7871" stroke="#fff" stroke-width=".82758"/>
<path d="m109.71 128.85v28.838" fill="#3b7871" stroke="#3b7871" stroke-width=".69941"/>
<path d="m94.493 143.56 29.548 0.38709" fill="#3b7871" stroke="#3b7871" stroke-width=".71336"/>
<path d="m99.359 132.77 19.975 21.052" fill="#3b7871" stroke="#3b7871" stroke-width=".70664"/>
<path d="m98.691 153.55 21.682-19.528" fill="#3b7871" stroke="#3b7871" stroke-width=".70563"/>
<rect x="87.312" y="103.72" width="42.418" height="54.936" fill="none" stroke-linecap="round" stroke-width="1.0054"/>
</g>
</svg>
