<?xml version="1.0" encoding="UTF-8"?>
<svg width="184.15" height="235.93" version="1.1" viewBox="0 0 48.724 62.424" xmlns="http://www.w3.org/2000/svg">
<g transform="translate(-90.223 -130.18)">
<g transform="matrix(.76658 0 0 .76658 44.128 8.8699)" fill="#50a775">
<ellipse cx="111.34" cy="171.98" rx="8.6667" ry="8.6667" stroke="#50a775" stroke-width=".66667"/>
<path d="m98.69 178.65c2.0927-1.7334 14.238 5.2941 13.567 8.6482-1.9405 9.6908-3.5038 15.356-6.1647 21.944-2.0903 5.1756-16.453 2.4948-16.373-3.0568 0.13816-9.6054 3.7113-23.178 8.9717-27.536z" stroke="#50a775" stroke-width=".98145"/>
<path d="m69.252 195.78c5.5009-1.0258 29.947-10.973 32.027-13.929 1.7904-2.5446-1.2766-4.1803-2.8115-4.012-8.1157 0.88982-29.072 11.264-31.673 12.943-2.6015 1.6786 0.17835 5.4234 2.4578 4.9983z"/>
<path d="m112 185.14c2.5822 2.7362 9.9436 21.549 11.45 25.008 1.1699 2.6864-2.2452 4.6042-3.2214 3.9189-6.4622-4.5365-11.081-21.192-11.778-23.862s2.48-6.1987 3.55-5.0649z"/>
<path d="m105.39 211.07s1.5663 20.558 2.5936 25.924c0.28214 1.4737-2.8653 2.0843-4.6411 0.11651-2.275-2.5208-4.1634-25.341-4.1634-25.341s2.2523-1.2816 6.2109-0.69907z" stroke="#50a775" stroke-width=".98602"/>
<path d="m90.111 205.99s-6.2927 23.243-8.5327 29.136c-0.61521 1.6187 2.2839 3.2003 4.4573 1.4292 2.7842-2.2688 9.9141-28.027 9.9141-28.027s-1.8783-2.1047-5.8387-2.5383z" stroke="#50a775" stroke-width="1.0701"/>
</g>
<g transform="matrix(.76658 0 0 .76658 44.128 8.8699)">
<ellipse cx="83.793" cy="168.24" rx="9.6296" ry="9.6296" fill="#3b7871" stroke="#3b7871" stroke-width=".74074"/>
<path d="m76.299 177.11s4.0262 4.3464 10.612 2.2796c4.8234-1.5138-2.3375 32.235-2.3375 32.235s-12.145 5.2916-16.798-1.6969c-4.6534-6.9886 6.5482-36.232 8.524-32.817z" fill="#3b7871" stroke="#3b7871" stroke-width=".93368"/>
<path d="m76.178 181.16s27.789 13.947 28.287 17.014-1.1717 5.1576-3.3309 4.5905c-2.1592-0.56711-27.182-15.602-27.182-15.602s-2.4152-4.451 2.2259-6.0023z" fill="#3b7871" stroke="#fff" stroke-width="1.1601"/>
<path d="m83.301 208.33c5.1242 3.7996 4.3416 12.482 4.3416 12.482s-3.972 14.937-4.3942 17.292c-0.42218 2.3552-5.3078 0.37095-5.7902-1.0178-0.6423-1.849 3.8771-16.015 3.8771-16.015s-8.465-8.8736-6.5802-11.738c1.8849-2.8642 6.2419-2.7116 8.5458-1.0032z" fill="#3b7871" stroke="#fff" stroke-width=".94298"/>
<path d="m67.25 209.71s-7.1487 23.045-7.1189 24.872c0.02975 1.8266 4.2991 2.6996 5.138 1.8461 2.169-2.2066 7.7999-24.301 7.7999-24.301s-1.7333-6.0418-5.819-2.4167z" fill="#3b7871"/>
<path d="m91.236 238.88s-0.1279-36.132 1.6627-38.306c1.7906-2.1743 14.708-2.6859 16.115-0.5116 1.4069 2.1743 2.558 38.754 2.558 38.754" fill="none" stroke="#3b7871" stroke-width="1.3045"/>
<path d="m91.524 229.8h19.625" fill="none" stroke="#3b7871" stroke-width="1.3045"/>
</g>
</g>
</svg>
