<?xml version="1.0" encoding="UTF-8"?>
<svg width="121.01" height="260.36" version="1.1" viewBox="0 0 32.017 68.886" xmlns="http://www.w3.org/2000/svg">
<g transform="translate(-66.714 -61.521)">
<ellipse cx="80.855" cy="69.112" rx="7.3092" ry="7.3092" fill="#3b7871" stroke="#3b7871" stroke-width=".56224"/>
<path d="m77.312 77.8s3.9501 2.5033 8.206-0.76899c0.92846-0.71387-0.89223 1.5394 2.6985 4.111 1.1325 0.81107 2.1111 2.479 0.82976 4.4013-1.4268 2.1404-3.3826 2.2772-0.98653 4.1055 8.8015 6.7158 5.0333 9.9072 3.7582 11.841-3.0587 4.6399-16.233 4.3454-13.318-1.3957 3.1194-6.1425-8.182-20.741-1.1884-22.295z" fill="#3b7871" stroke="#3b7871" stroke-width=".74592"/>
<path d="m74.952 79.216c-10.663 14.934-9.5409 11.826-1.7538 16.071 7.787 4.2451 6.1599-0.94254 5.1362-1.4853-1.5331-0.81281-4.8229-2.4065-5.7476-3.5116 0.38472-2.0249 2.7841-4.4651 5.2883-7.4385 0.82475-0.97932 0.86521-4.4693-2.9231-3.6354z" fill="#3b7871" stroke="#fff" stroke-width=".88101"/>
<path d="m79.006 101.53s-0.48691 17.22-3.5159 24.756c-1.783 4.4359 4.489 5.0318 7.6118 3.0004 2.0221-1.3154 2.7764-27.255 2.7764-27.255s-2.9455-3.9891-6.8723-0.50166z" fill="#3b7871"/>
<path d="m91.282 100.13s3.0284 17.373 6.9444 25.216c2.3051 4.6164-3.8492 6.1022-7.1943 4.2948-2.1661-1.1704-6.044-29.451-6.044-29.451s1.9751-3.353 6.2939-0.0595z" fill="#3b7871"/>
<g transform="translate(34.366 -214.37)" fill="#3b7871">
<path d="m40.128 316.6-0.69106-1.3782 2.7251-0.57045-3.9833-0.23502 0.92149 1.7045-1.7312 0.74601c0.91972-0.0895 1.8393-0.17805 2.7589-0.26687z"/>
<path d="m41.007 313.62 0.36751-1.1877 1.904 1.1898-2.1862-2.3609-0.41566 1.5062-1.4238-0.53262c0.58508 0.46147 1.1695 0.92344 1.7542 1.3853z"/>
</g>
<rect x="66.714" y="61.521" width="32.017" height="68.886" fill="none" stroke-linecap="round" stroke-width="1.0054"/>
</g>
</svg>
