<?xml version="1.0" encoding="UTF-8"?>
<svg width="321.32" height="202.32" version="1.1" viewBox="0 0 85.017 53.531" xmlns="http://www.w3.org/2000/svg">
<g transform="translate(-42.266 -79.236)">
<ellipse cx="94.046" cy="86.135" rx="6.6437" ry="6.6437" fill="#50a775" stroke="#50a775" stroke-width=".51105"/>
<path d="m88.904 95.787c0.33726-2.2116 10.01-2.0182 10.309 0.45745 0.86376 7.1529 0.20041 13.629 0.26589 18.823 0.0394 3.1208-6.4122 5.069-9.8421 1.9432 0 0-1.4819-16.31-0.7325-21.224z" fill="#50a775" stroke="#50a775" stroke-width=".65833"/>
<path d="m88.808 95.203-13.385 21.097s-1.5936 5.4687 2.6718 4.205c4.2653-1.2637 13.402-21.756 13.402-21.756s1.4483-4.8256-2.6886-3.546z" fill="#50a775"/>
<ellipse transform="rotate(-85.934)" cx="-115.29" cy="61.131" rx="7.3092" ry="7.3092" fill="#3b7871" stroke="#3b7871" stroke-width=".56224"/>
<path d="m61 124.15s2.7939-3.7502-0.14827-8.2406c-0.64185-0.97963 1.4678 1.0057 4.3027-2.381 0.89414-1.0682 2.6311-1.9183 4.4513-0.49564 2.0268 1.5841 2.0158 3.5446 4.0195 1.2932 7.3601-8.2702 10.258-4.2722 12.091-2.8549 4.3961 3.3997 4.5896 14.556-3.194 14.741-7.8033 0.18555-20.5 5.0292-21.522-2.0616z" fill="#3b7871" stroke="#3b7871" stroke-width=".74592"/>
<path d="m81.588 113.24 24.182-11.973s1.9328-3.2041 2.1645-5.0078c0.1857-1.4453 4.466-0.81277 2.8368 4.4992-1.6292 5.312-2.8534 4.3985-2.8534 4.3985s-22.566 16.704-26.619 14.729c-4.0527-1.9759 0.28939-6.6453 0.28939-6.6453z" fill="#3b7871"/>
<circle cx="111.84" cy="117.27" r="12" fill="#50a775"/>
<path d="m87.69 116.18s-2.8186 12.594-0.22398 12.425c2.5946-0.16815 13.85 0.7036 15.31-0.38946 1.4595-1.093 1.3656-3.8318-0.0128-3.9159-1.7753 0.18058-5.5796-0.46725-10.718 0.14801-2.5924 0.31043-0.35909-3.4198 0.068-7.6888 0.32623-3.2604-3.7252-3.6153-4.4232-0.57921z" fill="#50a775" stroke="#50a775" stroke-width=".73085"/>
<path d="m94.269 115.12s-2.8186 12.594-0.22398 12.425c2.5946-0.16815 15.305 0.43902 16.765-0.65404 1.4595-1.093 2.0271-3.6996 0.64865-3.7836-1.3784-0.084-7.6962-0.33496-12.834 0.2803-2.5924 0.31043-0.35909-3.4198 0.068-7.6888 0.32623-3.2604-3.7252-3.6153-4.4232-0.57921z" fill="#50a775" stroke="#50a775" stroke-width=".73085"/>
<path d="m86.739 117.97 23.989-12.355s1.8818-3.2344 2.0849-5.0415c0.16273-1.4481 4.4525-0.88347 2.9078 4.4537-1.5448 5.3371-2.7833 4.4432-2.7833 4.4432s-22.299 17.06-26.382 15.149c-4.0835-1.9114 0.18402-6.6491 0.18402-6.6491z" fill="#3b7871" stroke="#fff" stroke-width=".6"/>
<path d="m89.075 126.75s-23.431 1.9808-24.953 0.0635c-1.5223-1.9172-1.2596-4.066 0.35896-4.5779 1.6185-0.51194 23.686-0.57898 23.686-0.57898s3.3034 2.0728 0.90809 5.0933z" fill="#3b7871" stroke="#fff" stroke-width=".88335"/>
<path d="m96.077 95.849c-3.4434 7.9443-9.4697 17.445-12.826 22.588-0.98554 1.5104-1.0882 5.6236 3.8088 3.8428 4.897-1.7808 11.112-17.895 12.748-23.244 1.6364-5.349-3.1785-4.4617-3.7311-3.1867z" fill="#50a775" stroke="#fff" stroke-width=".65"/>
<rect x="42.68" y="127.17" width="84.189" height="5.1867" ry="1.7745" fill="#50a775" stroke="#fff" stroke-linecap="round" stroke-width=".828"/>
<rect x="42.266" y="79.236" width="85.017" height="53.531" fill="none" stroke-linecap="round" stroke-width="1.0054"/>
</g>
</svg>
