<?xml version="1.0" encoding="UTF-8"?>
<svg width="168.12" height="191.08" version="1.1" viewBox="0 0 44.483 50.558" xmlns="http://www.w3.org/2000/svg">
<g transform="translate(-71.438 -127.53)">
<path d="m78.572 142.85s3.7168 2.2121 7.7214-0.67955c2.933-2.1179 4.1179 15.488 7.4492 22.54 1.8927 4.0066-8.7977 7.2169-13.538 3.2661-4.7402-3.9508-3.7465-27.122-1.6327-25.127z" fill="#3b7871" stroke="#3b7871" stroke-width=".68017"/>
<path d="m105.97 152.76c1.6373 0.94196 6.6149-3.6211 4.7134-4.8175-7.5578-4.7553-13.325-4.4012-23.311-6.2641-2.0266-0.3781-4.7536 3.9275-2.9588 4.5529 9.5575 3.3306 14.866 2.6798 21.556 6.5287z" fill="#3b7871"/>
<path d="m89.253 160.93s5.2829-10.114 11.719-10.008 8.1094 11.12 12.74 14.722c2.6948 2.096-3.6078 2.0637-4.3897 1.4907-3.0838-2.2599-7.4476-10.634-7.4476-10.634s-6.1311 6.5411-9.1535 8.9602c-1.5232 1.2191-3.9835 1.0568-3.4682-4.5314z" fill="#3b7871"/>
<ellipse cx="82.05" cy="134.66" rx="6.8694" ry="6.8694" fill="#3b7871" stroke="#3b7871" stroke-width=".52841"/>
<path d="m78.572 142.85s9.1806 13.143 18.112 16c2.9993 0.95971-0.63299 5.6007-4.7869 5.2397-4.3582-0.37877-17.574-8.6512-19.719-16.161-0.32324-1.1315-1.2163-5.6127 6.3944-5.079" fill="#3b7871" stroke="#fff" stroke-linecap="round" stroke-width="1.0502"/>
<path d="m84.818 163.7c7.6036 0.59276 19.838 8.8791 25.668 9.8807 4.5842 0.78762-1.6798 4.5316-3.5264 3.9659-1.7261-0.5288-10.345-3.3286-25.83-9.3353-1.9376-0.7516 1.6049-4.6738 3.6884-4.5114z" fill="#3b7871" stroke="#3b7871" stroke-linecap="round" stroke-width=".94061"/>
<path d="m111.24 159.24 1.5319-0.17432-0.40262 2.7549 1.592-3.6588-1.9176 0.27832-0.10439-1.8822c-0.23259 0.89432-0.46608 1.7882-0.69929 2.6821z" fill="#3b7871"/>
<path d="m113.73 161.1 0.98859 0.75395-1.7725 1.378 2.9693-1.2398-1.2711-0.90882 0.99023-1.1533c-0.63469 0.39044-1.2696 0.7801-1.9045 1.17z" fill="#3b7871"/>
<rect x="71.438" y="127.53" width="44.483" height="50.558" fill="none" stroke-linecap="round" stroke-width="1.0054"/>
</g>
</svg>
