<?xml version="1.0" encoding="UTF-8"?>
<svg width="275.47" height="275.03" version="1.1" viewBox="0 0 72.884 72.768" xmlns="http://www.w3.org/2000/svg">
<g transform="translate(-65.668 -68.927)">
<g transform="translate(-51.51 -112.6)" fill="#50a775">
<ellipse transform="translate(7.5807 5.7318)" cx="148.89" cy="231.6" rx="3.4399" ry="1.1395"/>
<ellipse transform="translate(7.5807 5.7318)" cx="173.29" cy="232.09" rx="3.4399" ry="1.1395"/>
<ellipse transform="translate(7.5807 5.7318)" cx="141.26" cy="238.22" rx="3.9771" ry="1.3605"/>
<ellipse transform="translate(7.5807 5.7318)" cx="178.5" cy="239.34" rx="3.9771" ry="1.3605"/>
<ellipse transform="translate(7.5807 5.7318)" cx="148.35" cy="246.63" rx="3.9771" ry="1.3605"/>
<ellipse transform="translate(7.5807 5.7318)" cx="169.31" cy="247.2" rx="3.9771" ry="1.3605"/>
<ellipse transform="translate(-2.9972 -10.475)" cx="137.64" cy="198.9" rx="6.6437" ry="6.6437" stroke="#50a775" stroke-width=".51105"/>
<path d="m128.91 198.42c0.36628-2.0834 10.871-1.9013 11.196 0.43095 0.93809 6.7384 1.2663 12.937 0.28877 17.733-0.81498 3.9983-9.5879 6.0079-10.689 1.8306s-1.6094-15.365-0.79554-19.994z" stroke="#50a775" stroke-width=".6659"/>
<path transform="translate(-2.9972 -10.475)" d="m132.92 227.57s-2.8281 16.15-3.639 23.12c-0.15175 1.3043 4.2583 3.4301 4.7492 0.55576 2.0297-11.886 3.2666-15.898 3.2666-23.666 0-1.1954-3.1712-2.0594-4.3767-0.01z"/>
<path transform="translate(-2.9972 -10.475)" d="m142.95 227.12s2.8281 16.435 3.639 23.528c0.15175 1.3274-4.2583 3.4907-4.7492 0.56558-2.0297-12.096-3.2666-16.179-3.2666-24.084 0-1.2165 3.1712-2.0958 4.3767-0.01z"/>
<path d="m128.69 197.94c-4.2528 4.1354-7.8819 11.735-11.216 18.331-0.6936 1.3721-0.32625 4.4792 2.8362 3.5057 2.5787-0.7938 6.6647-11.488 10.99-17.661 0.94196-1.3443-1.4335-5.32-2.6103-4.1757z"/>
<path transform="translate(7.5807 5.7318)" d="m131.91 192.5c2.8476 2.4193 6.265 4.3121 7.0717 7.7766 0.64604 2.7746-0.86487 4.8123-2.2983 8.2245-0.58331 1.3885-4.7698 0.84325-4.3763-0.14831 1.6999-4.2838 3.876-4.9751 3.2679-7.7113-0.69047-3.1066-2.5274-2.6102-7.0307-6.1842-1.0216-0.81079 2.2585-2.8981 3.3658-1.9574z" stroke="#50a775" stroke-linecap="round" stroke-width="1.0171"/>
</g>
<g transform="translate(-43.929 -106.87)">
<path d="m144.49 211.36c-0.68315 1.7611-7.4222 1.3339-6.6932-0.79112 2.8978-8.446 8.9658-11.61 15.569-19.329 1.3402-1.5666 4.8092-0.10788 3.8047 1.5057-5.3488 8.5924-9.8894 11.418-12.681 18.614z" fill="#3b7871"/>
<ellipse transform="scale(-1,1)" cx="-160.12" cy="183.72" rx="6.8694" ry="6.8694" fill="#3b7871" stroke="#3b7871" stroke-width=".52841"/>
<path d="m163.78 194.02s10.184 9.5052 11.859 17.741c0.56246 2.7658 4.6937 7e-3 4.7176-3.7243 0.0251-3.9153-6.4396-13.62-12.5-16.293-0.91314-0.40279-3.9266-4.5477-4.0763 2.2767" fill="#3b7871"/>
<path d="m154.27 215.99c-0.51279 6.6182-1.3095 18.869-3.1195 23.767-1.4233 3.8515 4.7945 0.52884 5.1476-1.1226 0.33007-1.5437 1.8366-9.3157 3.678-23.672 0.23045-1.7964-5.0385-7.5889-5.7061 1.0279z" fill="#3b7871" stroke="#3b7871" stroke-linecap="round" stroke-width=".87721"/>
<path d="m167.91 215.99c0.51279 6.6182 1.3095 18.869 3.1195 23.767 1.4233 3.8515-4.7945 0.52884-5.1476-1.1226-0.33007-1.5437-1.8366-9.3157-3.678-23.672-0.23045-1.7964 5.0385-7.5889 5.7061 1.0279z" fill="#3b7871" stroke="#3b7871" stroke-linecap="round" stroke-width=".87721"/>
<path d="m164.64 190.84s-3.5697 2.8079-8.308 0.45303c-3.4704-1.7247-4.3448 17.997-2.097 24.686 1.3742 4.0895 10.237 4.9095 13.013-0.8976 2.8241-5.9088-0.70198-26.59-2.6075-24.242z" fill="#3b7871" stroke="#3b7871" stroke-width=".71574"/>
<path d="m169.76 232.63c-0.32043-1.0163-3.9854-0.37641-4.9492 0.17166-0.46086 0.34198 0.12521 3.1629 0.21266 2.6944 0.18477-0.98984 4.3074-1.3438 5.1482-0.0834 0.18998 0.28478-0.12409-1.8708-0.41159-2.7827z" fill="#00b5ee"/>
<path d="m166.84 238.46s-1.1649-0.05-1.301-0.29869c-0.34348-0.62802-0.49233-2.0658-0.49233-2.0658l5.6808 1.2455s0.60005 2.0934 0.28774 2.3168c-0.45775 0.32742-4.1752-1.1977-4.1752-1.1977z" fill="#00b5ee"/>
<path d="m170.37 235.88c-0.10613-0.51719-3.3098 1.4673-4.5044 2.6533-0.60031 0.59599 0.50885 1.3741 1.4382 2.0607 0.63478 0.46892 2.7037-2.0145 3.5713-2.4572 0.0803-0.041-0.33651-1.4353-0.50508-2.2568z" fill="#00b5ee"/>
</g>
<g transform="matrix(1.3106 0 0 1.3106 -85.745 -169.36)">
<path d="m134.4 203.71c-0.4667 0.26679-0.92565 0.94706-1.2613 1.8695-0.0727 0.19979-0.24871 0.87266-0.28102 1.0747-0.15927 0.99297-0.094 1.7856 0.18589 2.2577l0.0573 0.0966-2.2265-0.58334 0.0853-0.0471c0.49577-0.27407 0.99606-1.0348 1.324-2.0132 0.083-0.24767 0.21864-0.80319 0.25519-1.0452 0.1428-0.94547 0.0645-1.7395-0.2153-2.1824l-0.0651-0.10306 1.1379 0.29813c0.62586 0.16398 1.1371 0.29929 1.1361 0.30069-9.2e-4 1e-3 -0.0606 0.0361-0.13234 0.0771zm-2.5178-0.83056 3.0122 0.7892m-4.4495 4.6966 3.0122 0.78921m1.4941-5.5487a1.2688 2.923 14.681 0 1 0.48656 3.1492 1.2688 2.923 14.681 0 1-1.9682 2.506 1.2688 2.923 14.681 0 1-0.48656-3.1492 1.2688 2.923 14.681 0 1 1.9682-2.506zm-3.0394-0.7963a1.2688 2.923 14.681 0 1 0.48657 3.1492 1.2688 2.923 14.681 0 1-1.9682 2.506 1.2688 2.923 14.681 0 1-0.48656-3.1492 1.2688 2.923 14.681 0 1 1.9682-2.506z" fill="#00b5ee"/>
<ellipse transform="rotate(-75.319)" cx="-165.68" cy="179" rx="1.6043" ry=".69961" fill="#fff" stroke="#fff" stroke-linecap="round" stroke-width=".1"/>
</g>
<rect x="65.668" y="68.927" width="72.884" height="72.768" fill="none" stroke-linecap="round" stroke-width="1.0054"/>
<rect x="130.6" y="99.527" width="2.2007" height="1.7304" fill="none" stroke-linecap="round" stroke-width="1.0054"/>
</g>
</svg>
