<svg width="37" height="50" viewBox="0 0 37 50" fill="none" xmlns="http://www.w3.org/2000/svg">
<path d="M14.3288 19.7534C14.3288 19.7534 16.7945 17.2877 18.274 17.2877C18.3744 17.2877 18.4816 17.299 18.5941 17.3202M18.5941 17.3202C20.1413 17.611 22.7123 19.7534 22.7123 19.7534M18.5941 17.3202L18.7671 13.3425M18.5941 17.3202L18.274 24.6849M9.89041 33.0685H27.6438M18.7671 26.1644L14.3288 47.863M21.726 35.0411L23.6986 47.863M27.6438 6.43836L34.5479 10.8767M10.8767 6.93151L3.97259 11.3699M35.0411 17.7808C35.0411 17.7808 28.137 12.8493 27.1507 14.3288C26.1644 15.8082 35.0411 45.3973 35.0411 45.3973M2 18.5508C2 18.5508 8.90411 13.6193 9.89041 15.0988C10.8767 16.5782 2 46.1673 2 46.1673M18.274 2L14.8219 7.91781M18.274 3.9726C18.274 3.9726 23.2055 5.94521 21.2329 6.43836C19.2603 6.93151 18.7671 10.8767 18.7671 10.8767M13.3425 27.6438C13.3425 26.1644 12.8493 14.8219 14.3288 13.8356C15.8082 12.8493 18.7671 11.863 18.7671 11.863L22.7123 13.8356C23.6986 14.3288 24.1918 27.6438 23.6986 27.6438C23.2055 27.6438 18.7671 23.6986 18.7671 23.6986C18.7671 23.6986 13.3425 29.1233 13.3425 27.6438Z" stroke="#50A775" stroke-width="2.9589" stroke-linecap="round"/>
</svg>
