<?xml version="1.0" encoding="UTF-8" standalone="no"?>
<!-- Created with Inkscape (http://www.inkscape.org/) -->

<svg
   width="73.518921mm"
   height="60.673527mm"
   viewBox="0 0 73.518921 60.673527"
   version="1.1"
   id="svg1"
   inkscape:export-filename="chronic-pain-before.svg"
   inkscape:export-xdpi="96"
   inkscape:export-ydpi="96"
   sodipodi:docname="chronic-pain-after.svg"
   inkscape:version="1.3 (0e150ed6c4, 2023-07-21)"
   xmlns:inkscape="http://www.inkscape.org/namespaces/inkscape"
   xmlns:sodipodi="http://sodipodi.sourceforge.net/DTD/sodipodi-0.dtd"
   xmlns="http://www.w3.org/2000/svg"
   xmlns:svg="http://www.w3.org/2000/svg">
  <sodipodi:namedview
     id="namedview1"
     pagecolor="#ffffff"
     bordercolor="#000000"
     borderopacity="0.25"
     inkscape:showpageshadow="2"
     inkscape:pageopacity="0.0"
     inkscape:pagecheckerboard="0"
     inkscape:deskcolor="#d1d1d1"
     inkscape:document-units="mm"
     inkscape:zoom="1.7421279"
     inkscape:cx="18.655347"
     inkscape:cy="97.868821"
     inkscape:window-width="1920"
     inkscape:window-height="991"
     inkscape:window-x="-9"
     inkscape:window-y="-9"
     inkscape:window-maximized="1"
     inkscape:current-layer="layer1" />
  <defs
     id="defs1" />
  <g
     inkscape:label="layer"
     inkscape:groupmode="layer"
     id="layer1"
     transform="translate(-66.749277,-64.532377)">
    <g
       id="g28"
       inkscape:label="bed"
       transform="translate(-43.745402,-40.529246)">
      <rect
         style="fill:#50a775;fill-opacity:1;stroke:#ffffff;stroke-width:1.28582;stroke-linecap:round;stroke-opacity:1"
         id="rect25"
         width="72.233109"
         height="11.565688"
         x="111.13759"
         y="146.25899"
         ry="3.9570076" />
      <rect
         style="fill:#50a775;fill-opacity:1;stroke:none;stroke-width:1.18066;stroke-linecap:round;stroke-opacity:1"
         id="rect26"
         width="13.237097"
         height="1.8412913"
         x="162.6712"
         y="145.35187"
         ry="0.92064565"
         rx="1.2833427" />
      <rect
         style="fill:#50a775;fill-opacity:1;stroke:none;stroke-width:1.36545;stroke-linecap:round;stroke-opacity:1"
         id="rect27"
         width="4.4951258"
         height="9.9307299"
         x="112.67238"
         y="155.80441" />
      <rect
         style="fill:#50a775;fill-opacity:1;stroke:none;stroke-width:1.36545;stroke-linecap:round;stroke-opacity:1"
         id="rect27-0"
         width="4.4951258"
         height="9.9307299"
         x="177.23421"
         y="155.80441" />
    </g>
    <g
       id="g27"
       inkscape:label="therapist"
       style="display:inline"
       transform="translate(-43.745402,-40.529246)">
      <ellipse
         style="fill:#50a775;fill-opacity:1;stroke:#50a775;stroke-width:0.511053"
         id="path1-3-1-1"
         cx="148.47893"
         cy="111.96084"
         rx="6.6436925"
         ry="6.643693" />
      <path
         style="fill:#50a775;fill-opacity:1;stroke:#50a775;stroke-width:0.621326;stroke-opacity:1"
         d="m 143.50476,121.01112 c 0.31827,-2.08749 9.44611,-1.90497 9.72825,0.43179 0.81513,6.75153 0.18913,12.86405 0.25092,17.76727 0.0372,2.94567 -6.05112,4.78462 -9.28791,1.83417 0,0 -1.39846,-15.39479 -0.69126,-20.03323 z"
         id="path17-4"
         sodipodi:nodetypes="ssscs" />
      <path
         style="fill:#50a775;fill-opacity:1;stroke:#50a775;stroke-width:1;stroke-linecap:round;stroke-opacity:1"
         d="m 153.28052,121.05295 c 2.85207,2.3349 6.27499,4.16161 7.08295,7.50531 0.64706,2.6778 -0.86625,4.64437 -2.30199,7.93754 -0.58424,1.34004 -4.77736,0.81383 -4.38328,-0.14313 1.70261,-4.13437 3.88215,-4.8015 3.27305,-7.44221 -0.69156,-2.99825 -2.53146,-2.51907 -7.04184,-5.96843 -1.02319,-0.7825 2.26212,-2.79697 3.37111,-1.88908 z"
         id="path27-2"
         sodipodi:nodetypes="sassass" />
      <path
         style="fill:#50a775;fill-opacity:1;stroke:#50a775;stroke-width:1;stroke-linecap:round;stroke-opacity:1"
         d="m 143.4242,120.85838 c -2.63339,2.57903 -5.88051,4.70258 -6.38825,8.10483 -0.40663,2.72469 1.27539,4.54906 2.99799,7.70167 0.70097,1.28285 4.83077,0.38623 4.35323,-0.53193 -2.06313,-3.96678 -4.29331,-4.43767 -3.9212,-7.12204 0.42249,-3.04783 2.29768,-2.73398 6.48382,-6.57038 0.94963,-0.87029 -2.50164,-2.58496 -3.52559,-1.58215 z"
         id="path27-2-5"
         sodipodi:nodetypes="sassass" />
      <path
         style="fill:#50a775;fill-opacity:1;stroke:none;stroke-width:0.9141;stroke-linecap:round;stroke-opacity:1"
         d="m 143.76566,140.62727 c 0,0 -2.82812,16.14995 -3.63904,23.12005 -0.15175,1.30432 4.25832,3.43009 4.74916,0.55576 2.02974,-11.88593 3.26659,-15.89782 3.26659,-23.6661 0,-1.19535 -3.17125,-2.05938 -4.37671,-0.01 z"
         id="path30"
         sodipodi:nodetypes="cssssc" />
      <path
         style="display:inline;fill:#50a775;fill-opacity:1;stroke:none;stroke-width:0.922137;stroke-linecap:round;stroke-opacity:1"
         d="m 153.79071,140.18383 c 0,0 2.82812,16.43518 3.63904,23.52838 0.15175,1.32736 -4.25832,3.49067 -4.74916,0.56558 -2.02974,-12.09584 -3.26659,-16.1786 -3.26659,-24.08408 0,-1.21646 3.17125,-2.09576 4.37671,-0.01 z"
         id="path30-3"
         sodipodi:nodetypes="cssssc" />
    </g>
    <g
       id="g29"
       inkscape:label="patient"
       style="display:inline"
       transform="translate(-43.745402,-40.529246)">
      <path
         style="fill:#3b7871;fill-opacity:1;stroke:none;stroke-width:1.16348;stroke-linecap:round;stroke-opacity:1"
         d="m 142.71541,141.15001 c -8.12027,0.0438 -14.42082,0.58118 -23.65479,0.5198 -2.11003,-0.014 -3.04128,4.29412 -1.66806,4.33913 9.67738,0.31728 15.67184,0.89161 24.03573,-0.36167 3.24958,-0.48693 2.86214,-4.50575 1.28712,-4.49726 z"
         id="path24-4"
         sodipodi:nodetypes="sssss" />
      <path
         style="fill:#3b7871;fill-opacity:1;stroke:#3b7871;stroke-width:0.572696"
         d="m 161.5197,136.41377 c 0,0 -2.14256,2.84274 0.0889,6.36959 1.63432,2.58314 -20.4829,2.60326 -20.4829,2.60326 0,0 -5.04027,-6.32291 -1.33563,-9.84897 3.70464,-3.52606 23.58225,-0.67574 21.72968,0.87612 z"
         id="path3-2-2"
         sodipodi:nodetypes="cscsc" />
      <ellipse
         style="fill:#3b7871;fill-opacity:1;stroke:#3b7871;stroke-width:0.528413;stroke-opacity:1"
         id="path1-1-5"
         cx="169.28975"
         cy="138.4825"
         rx="6.8693686"
         ry="6.8693676" />
      <path
         style="fill:#3b7871;fill-opacity:1;stroke:#ffffff;stroke-width:0.82758;stroke-opacity:1"
         d="m 159.21159,141.1066 c 0,0 -21.92738,3.3362 -23.48207,1.75583 -1.55469,-1.58038 -1.44404,-3.48567 0.0468,-4.04563 1.49083,-0.55996 22.25672,-2.12224 22.25672,-2.12224 0,0 3.241,1.59563 1.17854,4.41204 z"
         id="path6-0"
         sodipodi:nodetypes="csscc" />
    </g>
  </g>
</svg>
