<?xml version="1.0" encoding="UTF-8" standalone="no"?>
<!-- Created with Inkscape (http://www.inkscape.org/) -->

<svg
   width="299.99997"
   height="241.58253"
   viewBox="0 0 79.37499 63.918712"
   version="1.1"
   id="svg1"
   xmlns:inkscape="http://www.inkscape.org/namespaces/inkscape"
   xmlns:sodipodi="http://sodipodi.sourceforge.net/DTD/sodipodi-0.dtd"
   xmlns="http://www.w3.org/2000/svg"
   xmlns:svg="http://www.w3.org/2000/svg">
  <sodipodi:namedview
     id="namedview1"
     pagecolor="#ffffff"
     bordercolor="#000000"
     borderopacity="0.25"
     inkscape:showpageshadow="2"
     inkscape:pageopacity="0.0"
     inkscape:pagecheckerboard="0"
     inkscape:deskcolor="#d1d1d1"
     inkscape:document-units="mm" />
  <defs
     id="defs1" />
  <g
     inkscape:label="layer1"
     inkscape:groupmode="layer"
     id="layer1"
     transform="translate(-150.77482,108.30348)">
    <path
       style="fill:#50a775;stroke:none;stroke-width:0.196774;stroke-linecap:round;stroke-dasharray:none"
       d="m 152.43166,-44.986767 c 0.15677,-0.33096 0.29984,-0.71201 0.31792,-0.84682 l 0.0329,-0.24507 h -0.43417 c -0.58034,0 -1.14455,-0.14826 -1.32087,-0.34708 -0.95237,-1.07397 0.82874,-3.49991 4.65531,-6.3407 0.45346,-0.33664 0.50368,-0.39498 0.52125,-0.60549 0.0258,-0.30946 -0.16738,-0.48697 -0.76026,-0.69848 -0.24804,-0.0885 -0.6949,-0.24756 -0.99303,-0.35346 -0.91026,-0.32335 -1.37027,-0.70425 -1.37088,-1.1351 -2.4e-4,-0.24217 0.35336,-0.72813 0.78385,-1.07693 0.59233,-0.47995 1.48051,-0.97971 3.57624,-2.01224 2.16489,-1.06662 2.10052,-1.01543 2.10052,-1.67007 0,-0.50015 -0.20338,-1.02274 -0.53433,-1.37302 -0.24592,-0.26028 -0.28999,-0.28127 -0.64441,-0.30691 -0.28991,-0.021 -0.51957,0.0132 -0.96515,0.14351 -1.20087,0.35123 -1.29369,0.3428 -1.50579,-0.1367 -0.31963,-0.72257 0.14482,-2.07483 0.87963,-2.56111 0.19084,-0.12628 0.38986,-0.17771 0.95665,-0.24718 1.12434,-0.13782 2.04631,-0.21786 3.57572,-0.31043 1.50606,-0.0912 1.81882,-0.16218 2.18129,-0.49534 0.21607,-0.19859 0.44592,-0.72349 0.44664,-1.01994 9.4e-4,-0.38238 -0.0943,-0.46681 -0.59751,-0.52984 -1.05588,-0.13225 -2.95686,-0.25055 -4.02609,-0.25055 h -1.16107 l 0.11222,-0.1725 c 0.39849,-0.61256 1.21304,-1.33392 1.6465,-1.45814 0.44131,-0.12647 1.43122,-0.24695 3.08566,-0.37555 2.06771,-0.16072 2.98607,-0.27461 3.81567,-0.47321 0.35638,-0.0853 0.71247,-0.15512 0.7913,-0.15512 0.0788,0 0.21771,-0.0585 0.30861,-0.13001 0.13671,-0.10753 0.16528,-0.18101 0.16528,-0.42512 0,-0.16559 -0.0429,-0.35631 -0.0977,-0.43453 -0.0896,-0.12785 -0.14808,-0.13936 -0.70567,-0.13877 -0.78387,5.5e-4 -1.68826,0.0799 -3.93254,0.34399 -1.00049,0.11772 -2.16989,0.24686 -2.59867,0.28698 -0.73522,0.0688 -0.78458,0.0663 -0.86718,-0.0441 -0.17336,-0.23171 0.0252,-0.99588 0.3997,-1.53831 0.33773,-0.48918 1.09097,-0.64814 4.25795,-0.89863 0.6555,-0.0519 1.48819,-0.12588 1.85044,-0.16452 1.19617,-0.12759 1.19188,-0.19337 -0.0872,-1.33858 -0.63754,-0.5708 -0.77336,-0.80558 -0.66171,-1.14387 0.0857,-0.25961 0.2844,-0.35982 0.84303,-0.42512 0.207,-0.0242 1.32196,-0.24087 2.4777,-0.48153 3.22882,-0.67229 4.98076,-0.9879 6.41545,-1.15573 0.41708,-0.0488 0.54757,-0.17475 0.54659,-0.52761 -8e-4,-0.2941 -0.25322,-0.82342 -0.47766,-1.00165 -0.16237,-0.12894 -0.22726,-0.13989 -0.6508,-0.10967 -0.68042,0.0485 -1.41591,0.28446 -3.00094,0.96259 -1.43862,0.61549 -1.77611,0.71512 -2.00594,0.59213 -0.3274,-0.17523 -0.30702,-0.88581 0.0348,-1.21314 0.38942,-0.37294 1.91285,-1.18113 4.28845,-2.27504 1.98597,-0.91451 2.87907,-1.49466 2.87907,-1.87022 0,-0.34337 -0.40485,-0.54357 -1.09772,-0.54284 -0.94334,9.5e-4 -2.04139,0.52303 -3.88303,1.84608 -1.24688,0.89577 -1.40978,0.97321 -1.53903,0.73171 -0.0446,-0.0834 -0.0361,-0.22293 0.0289,-0.47237 0.38902,-1.49352 2.14414,-2.98412 5.33686,-4.53249 0.59977,-0.29087 1.11891,-0.58195 1.15364,-0.64684 0.17634,-0.3295 -0.005,-1.01217 -0.31472,-1.18369 -0.14767,-0.0818 -0.26594,-0.0454 -1.75635,0.54149 -3.06419,1.20654 -4.07572,1.41144 -4.07572,0.82559 0,-0.48279 0.75021,-1.47729 1.53384,-2.03329 0.83059,-0.58933 2.16,-1.13804 3.47189,-1.43302 0.74031,-0.16645 0.90259,-0.24481 1.08737,-0.52506 0.33642,-0.51023 -0.0734,-0.96004 -0.87474,-0.96004 -0.53707,0 -1.21227,0.19318 -2.52111,0.72129 -2.04056,0.82337 -2.52354,0.94735 -2.96755,0.76184 -0.63041,-0.26341 -0.72933,-1.73493 -0.17967,-2.67285 0.36945,-0.63042 1.48298,-1.50222 2.71394,-2.12479 0.96069,-0.48586 1.59295,-0.52829 3.31547,-0.22249 1.4003,0.24861 1.8446,0.19367 2.32585,-0.28758 0.3402,-0.34019 0.4476,-0.6522 0.44427,-1.29053 -0.003,-0.52366 -0.0405,-0.71875 -0.20125,-1.03988 -0.17417,-0.34794 -0.45839,-0.55675 -0.75781,-0.55675 -0.34021,0 -1.15934,0.28237 -2.18419,0.75293 -2.50548,1.1504 -3.05198,1.17697 -3.9723,0.19306 -0.38013,-0.40638 -0.58663,-0.7369 -0.67943,-1.08747 -0.0686,-0.25914 -0.0658,-0.31143 0.0211,-0.39838 0.0666,-0.0666 0.51712,-0.17044 1.34604,-0.31023 2.01517,-0.33988 4.17551,-0.86728 6.80708,-1.661823 1.45061,-0.43797 1.47068,-0.44641 2.15424,-0.90544 1.80927,-1.21496 2.97613,-2.58922 3.68984,-4.34566 0.0871,-0.21443 0.2605,-0.74584 0.38526,-1.1809 0.27135,-0.94624 0.35373,-1.09236 0.61586,-1.09236 0.34755,0 0.85588,0.32817 2.58875,1.67126 1.38848,1.07616 2.158,1.58787 3.00746,1.99988 1.60003,0.77606 2.80538,0.7785 3.87546,0.008 0.46513,-0.33498 0.84627,-0.72598 1.82201,-1.86917 0.85172,-0.9979 1.29556,-1.39938 1.48172,-1.3403 0.55839,0.17724 1.72877,2.51822 2.70111,5.40278 l 0.33583,0.9963 0.90342,0.59411 c 1.08376,0.71271 2.55063,1.805193 3.35142,2.496063 2.19539,1.89403 2.86793,3.09406 4.62244,8.24801 0.70818,2.08029 0.91939,2.62332 1.42101,3.65349 0.90585,1.86033 1.86351,2.97841 3.76078,4.39077 1.58877,1.18272 2.9519,1.93421 6.71176,3.70016 2.61609,1.22875 4.77712,2.35238 5.61734,2.92075 0.77701,0.52562 1.36957,1.37987 1.5093,2.17584 0.26843,1.52905 -1.03468,3.20761 -3.34865,4.3135 -0.79727,0.38104 -1.4153,0.53288 -2.16889,0.53288 -1.07589,0 -2.40536,-0.38729 -3.86726,-1.12659 -1.30697,-0.66094 -2.38888,-1.35472 -4.77791,-3.06384 -4.21288,-3.01391 -5.07597,-3.4819 -7.04532,-3.82021 -0.6468,-0.11111 -2.34723,-0.13542 -5.92841,-0.0847 -2.05425,0.029 -2.58282,-0.0139 -3.47698,-0.28263 -0.85787,-0.25781 -2.14083,-0.92484 -4.39521,-2.28514 -2.35541,-1.42126 -3.28381,-1.91084 -4.25728,-2.24502 -0.61354,-0.21062 -0.72443,-0.22905 -1.38922,-0.23096 -0.69165,-0.002 -0.74029,0.007 -1.14067,0.20372 -0.70198,0.3454 -1.22133,1.05302 -1.5524,2.1151 -0.79442,2.54861 0.59106,7.46831 4.49383,15.95708 1.11877,2.43339 1.25236,2.7363 2.02746,4.59705 1.71736,4.12281 3.21999,8.62036 4.41297,13.20848 l 0.28135,1.08205 h -22.91792 -22.91791 z m 53.87559,-38.82107 c 0.43393,-0.2543 0.65942,-0.86346 0.53114,-1.43481 -0.073,-0.32508 -0.43489,-1.09114 -0.79945,-1.69227 -0.26254,-0.43292 -0.24321,-0.44296 -0.70314,0.36546 -0.631,1.10914 -0.75351,1.66908 -0.49074,2.24306 0.14176,0.30961 0.36082,0.53513 0.61124,0.62922 0.23001,0.0864 0.59581,0.0389 0.85095,-0.11066 z m -0.67526,-3.87059 c 0.50187,-0.18718 1.12919,-0.81758 1.33007,-1.33661 0.15655,-0.4045 0.2164,-1.34495 0.0934,-1.46808 -0.0423,-0.0424 -0.78524,0.0901 -2.25816,0.40285 -1.20729,0.2563 -2.26061,0.4819 -2.3407,0.50134 -0.12718,0.0309 -0.14016,0.0609 -0.10257,0.23689 0.17738,0.83066 0.99145,1.6175 1.86331,1.80098 0.37628,0.0792 0.99506,0.0191 1.41463,-0.13737 z"
       id="path8" />
    <path
       style="fill:#b9dfdd;fill-opacity:1;stroke:none;stroke-width:0.393548;stroke-linecap:round;stroke-dasharray:none"
       d="m 205.1598,-84.051637 c -0.47084,-0.50118 -0.47542,-0.97112 -0.0191,-1.96111 0.22489,-0.4879 0.47999,-0.9461 0.56689,-1.01822 0.22923,-0.19024 1.05931,1.50322 1.05931,2.16112 0,0.94749 -1.00498,1.45915 -1.6071,0.81821 z"
       id="path106" />
  </g>
</svg>
