<?xml version="1.0" encoding="UTF-8" standalone="no"?>
<!-- Created with Inkscape (http://www.inkscape.org/) -->

<svg
   width="12.500646"
   height="27.620226"
   viewBox="0 0 3.3074624 7.3078514"
   version="1.1"
   id="svg1"
   sodipodi:docname="logo-fill.svg"
   inkscape:export-filename="logo-fill.svg"
   inkscape:export-xdpi="96"
   inkscape:export-ydpi="96"
   inkscape:version="1.3 (0e150ed6c4, 2023-07-21)"
   xmlns:inkscape="http://www.inkscape.org/namespaces/inkscape"
   xmlns:sodipodi="http://sodipodi.sourceforge.net/DTD/sodipodi-0.dtd"
   xmlns="http://www.w3.org/2000/svg"
   xmlns:svg="http://www.w3.org/2000/svg">
  <sodipodi:namedview
     id="namedview1"
     pagecolor="#ffffff"
     bordercolor="#000000"
     borderopacity="0.25"
     inkscape:showpageshadow="2"
     inkscape:pageopacity="0.0"
     inkscape:pagecheckerboard="0"
     inkscape:deskcolor="#d1d1d1"
     inkscape:document-units="px"
     inkscape:zoom="1.4481528"
     inkscape:cx="66.636615"
     inkscape:cy="9.3222208"
     inkscape:window-width="1920"
     inkscape:window-height="1017"
     inkscape:window-x="-8"
     inkscape:window-y="-8"
     inkscape:window-maximized="1"
     inkscape:current-layer="layer1" />
  <defs
     id="defs1" />
  <g
     inkscape:label="logo"
     inkscape:groupmode="layer"
     id="layer1"
     transform="translate(-75.386398,-36.119377)">
    <path
       style="fill:#1e683f;fill-opacity:1;stroke-width:0.00529031;stroke-linecap:round"
       d="m 75.66105,43.399114 c -0.08505,-0.03922 -0.212036,-0.196682 -0.221038,-0.274167 -0.0025,-0.0227 -0.01557,-0.05818 -0.02905,-0.07835 -0.02091,-0.03147 -0.02168,-0.04455 -0.0071,-0.09308 0.01352,-0.04455 0.013,-0.06528 -8.33e-4,-0.09918 -0.02525,-0.06116 -0.02168,-0.109409 0.01025,-0.144808 0.01733,-0.01887 0.03099,-0.05986 0.03632,-0.107747 0.0092,-0.08301 0.05333,-0.139964 0.108722,-0.139964 0.0368,0 0.09691,-0.03196 0.130425,-0.06879 0.02565,-0.02856 0.02565,-0.0305 0.0016,-0.04796 -0.02371,-0.01733 -0.0227,-0.0204 0.01505,-0.05013 0.03438,-0.0271 0.05204,-0.03098 0.124221,-0.02525 0.08426,0.0069 0.213286,-0.01125 0.23624,-0.03244 0.02039,-0.01887 -0.0037,-0.08166 -0.0402,-0.10571 -0.03196,-0.02143 -0.03728,-0.02091 -0.08189,0.0069 -0.0926,0.05726 -0.144862,0.02953 -0.113948,-0.05986 0.01025,-0.03001 0.02566,-0.06131 0.03438,-0.06998 0.0092,-0.0092 0.0696,-0.01657 0.143305,-0.01733 0.106247,-0.0014 0.130705,-0.0059 0.146262,-0.02711 0.02142,-0.02954 0.02372,-0.06077 0.0064,-0.08852 -0.01025,-0.01606 -0.02423,-0.01657 -0.08651,-0.0013 l -0.07428,0.01785 -0.03971,-0.04746 c -0.07681,-0.09186 -0.02808,-0.137973 0.146646,-0.138331 l 0.108384,-2.29e-4 0.03003,-0.06353 c 0.01657,-0.03486 0.02617,-0.06733 0.02143,-0.07192 -0.0046,-0.0046 -0.04503,0.0019 -0.09023,0.01454 -0.116047,0.03244 -0.148736,0.02953 -0.205456,-0.0204 -0.02711,-0.02372 -0.0495,-0.04864 -0.0495,-0.05491 0,-0.0064 0.01657,-0.03098 0.03631,-0.05452 0.03583,-0.04261 0.03826,-0.0431 0.167966,-0.0431 h 0.131725 v -0.05516 c 0,-0.0305 -0.0064,-0.0592 -0.01453,-0.06401 -0.0076,-0.0049 -0.04116,0.0036 -0.07347,0.01887 -0.09482,0.04455 -0.111423,0.04601 -0.16965,0.0125 -0.0697,-0.03971 -0.08799,-0.08457 -0.05005,-0.122496 0.0227,-0.0227 0.04698,-0.0276 0.140548,-0.0276 0.06208,0 0.125097,-0.0069 0.139965,-0.01453 0.03293,-0.01734 0.03535,-0.0731 0.0054,-0.103498 -0.02953,-0.02953 -0.05246,-0.0276 -0.08291,0.0059 -0.03341,0.0368 -0.114872,0.05927 -0.148863,0.04116 -0.03196,-0.01683 -0.06503,-0.08195 -0.05779,-0.113672 0.0059,-0.02614 0.06055,-0.04698 0.160494,-0.06103 0.114872,-0.01606 0.139428,-0.06054 0.06158,-0.111522 -0.03147,-0.02092 -0.03874,-0.02092 -0.07423,-0.0015 -0.109734,0.05996 -0.103921,0.05855 -0.124758,0.03001 -0.03874,-0.05328 -0.02473,-0.08629 0.0586,-0.133868 0.08549,-0.04891 0.09735,-0.06577 0.08403,-0.118997 -0.01301,-0.0521 -0.03826,-0.05472 -0.126344,-0.013 -0.07493,0.03535 -0.119659,0.03827 -0.119659,0.0076 0,-0.0076 0.02525,-0.05268 0.0556,-0.1 0.04503,-0.07008 0.0529,-0.09115 0.04116,-0.113335 -0.0125,-0.02371 -0.02423,-0.02616 -0.09061,-0.01785 -0.09008,0.01125 -0.09288,0.0039 -0.04794,-0.126702 0.03535,-0.102322 0.03632,-0.136672 0.0037,-0.129991 -0.01351,0.0028 -0.03244,-0.0046 -0.04164,-0.01657 -0.01505,-0.01887 -0.0204,-0.01733 -0.04407,0.0125 -0.0227,0.02905 -0.03001,0.03147 -0.04918,0.01605 -0.03001,-0.02473 -0.02905,-0.03292 0.02091,-0.160162 0.02371,-0.06054 0.03923,-0.118797 0.03535,-0.129455 -0.01075,-0.02711 -0.04698,-0.02422 -0.0875,0.0077 -0.03535,0.0281 -0.07478,0.02525 -0.07478,-0.0054 0,-0.0092 0.01887,-0.07968 0.04164,-0.155954 0.04116,-0.136877 0.05163,-0.201758 0.03244,-0.201758 -0.0054,0 -0.0334,0.0227 -0.0617,0.0506 -0.02855,0.0276 -0.0587,0.0465 -0.06707,0.04116 -0.03632,-0.0227 -0.01607,-0.129609 0.04746,-0.247817 0.03438,-0.06428 0.06285,-0.12476 0.06302,-0.134403 3.73e-4,-0.0276 -0.04746,-0.0204 -0.06648,0.01075 -0.0276,0.04407 -0.04503,0.03293 -0.04503,-0.02905 0,-0.03486 0.01938,-0.100785 0.04901,-0.168629 0.05624,-0.127901 0.05947,-0.144656 0.02423,-0.125733 -0.03099,0.01657 -0.07313,-0.0046 -0.07313,-0.03631 0,-0.0125 0.02905,-0.07202 0.06443,-0.132465 0.06562,-0.111935 0.0708,-0.151542 0.0199,-0.151542 -0.07289,0 0.01025,-0.142487 0.131445,-0.224966 0.0276,-0.01887 0.04994,-0.04165 0.04998,-0.05085 4.8e-5,-0.0092 -0.02808,-0.02953 -0.06292,-0.04456 -0.03486,-0.01556 -0.06297,-0.0339 -0.06297,-0.04165 0,-0.01887 0.05957,-0.05942 0.164472,-0.112159 0.06833,-0.03438 0.08742,-0.0508 0.08727,-0.07526 -3.87e-4,-0.05609 -0.0199,-0.071 -0.08232,-0.06265 -0.05225,0.0071 -0.05738,0.0049 -0.05738,-0.02322 0,-0.06423 0.02856,-0.08053 0.159779,-0.09071 0.09831,-0.0077 0.127083,-0.01505 0.142819,-0.03632 0.03147,-0.0431 0.01606,-0.05555 -0.0832,-0.06418 -0.05133,-0.0044 -0.09703,-0.01175 -0.101559,-0.01657 -0.0199,-0.01989 0.06611,-0.05008 0.167761,-0.05865 0.165876,-0.01402 0.190332,-0.02091 0.190332,-0.05346 0,-0.02663 -0.0059,-0.0276 -0.122183,-0.01836 -0.06717,0.0054 -0.139631,0.01352 -0.160979,0.01785 -0.04552,0.0092 -0.0509,-0.01175 -0.0125,-0.04994 0.01938,-0.01938 0.05715,-0.02855 0.147001,-0.03631 0.06644,-0.0054 0.120785,-0.01453 0.120785,-0.0204 0,-0.0059 -0.01606,-0.02525 -0.03535,-0.04359 -0.01938,-0.01835 -0.0305,-0.03777 -0.02474,-0.04359 0.0082,-0.0081 0.359161,-0.08237 0.389673,-0.08237 0.0044,0 0.0059,-0.01402 0.0036,-0.03147 -0.0064,-0.04407 -0.05394,-0.04746 -0.145037,-0.01025 -0.04116,0.01683 -0.08151,0.0281 -0.08931,0.02565 -0.0305,-0.01075 0.01453,-0.04504 0.140549,-0.108497 0.142284,-0.07138 0.176764,-0.113335 0.09323,-0.113335 -0.02954,0 -0.07553,0.01785 -0.123309,0.04795 -0.04165,0.02662 -0.07865,0.04553 -0.08174,0.04262 -0.01557,-0.01557 0.05155,-0.08421 0.128588,-0.132696 0.13221,-0.08323 0.137387,-0.08796 0.122283,-0.111447 -0.01174,-0.01785 -0.02614,-0.01657 -0.109309,0.0125 -0.05278,0.01835 -0.105047,0.03003 -0.116097,0.02663 -0.0368,-0.012 0.05975,-0.09051 0.14509,-0.117397 0.0584,-0.01836 0.07963,-0.03197 0.07963,-0.05052 0,-0.03487 -0.06234,-0.03341 -0.155648,0.0033 -0.08286,0.03243 -0.110334,0.02808 -0.110334,-0.01785 0,-0.04359 0.03147,-0.08588 0.09208,-0.123209 0.04359,-0.02663 0.062,-0.02953 0.139428,-0.02168 0.08514,0.0087 0.09046,0.0076 0.112847,-0.02663 0.01887,-0.02857 0.0204,-0.04262 0.0077,-0.07031 -0.01887,-0.04165 -0.04969,-0.0431 -0.130222,-0.0069 -0.07773,0.03535 -0.113284,0.03535 -0.145088,2.19e-4 -0.03292,-0.03631 -0.0227,-0.04455 0.08058,-0.06572 0.206885,-0.04213 0.294361,-0.0771 0.361874,-0.144477 0.04261,-0.04261 0.07263,-0.08891 0.08857,-0.136877 0.02711,-0.08141 0.02808,-0.08146 0.12688,-0.0028 0.08141,0.06498 0.152664,0.09794 0.212036,0.09794 0.04504,0 0.06161,-0.01025 0.120247,-0.07347 l 0.06805,-0.07347 0.02474,0.03244 c 0.01352,0.01785 0.03971,0.07342 0.0586,0.123259 0.03099,0.08227 0.04358,0.09779 0.135884,0.167431 0.05609,0.04213 0.119184,0.100584 0.140167,0.129685 0.02091,0.02905 0.06935,0.137489 0.107471,0.240855 0.09546,0.258861 0.135451,0.298864 0.465322,0.465418 0.239045,0.120684 0.284239,0.154882 0.284239,0.21507 0,0.046 -0.07607,0.124996 -0.145522,0.151542 -0.09997,0.03826 -0.192067,0.0025 -0.423865,-0.163554 -0.179009,-0.128334 -0.204972,-0.136902 -0.417424,-0.137387 -0.203032,-4.97e-4 -0.211168,-0.003 -0.43389,-0.132108 -0.09411,-0.05452 -0.12181,-0.06428 -0.173577,-0.06097 -0.08301,0.0054 -0.117396,0.0502 -0.117396,0.153479 0,0.122447 0.04213,0.251313 0.195356,0.595668 0.165772,0.372866 0.267629,0.72162 0.328166,1.123436 0.04068,0.270485 0.04407,0.783349 0.0069,1.056787 -0.0822,0.604728 -0.272617,1.161739 -0.57009,1.667636 -0.19954,0.339256 -0.283221,0.431273 -0.66324,0.728772 -0.13856,0.108498 -0.291502,0.233205 -0.339786,0.27717 -0.102247,0.09298 -0.204181,0.230143 -0.234123,0.314896 -0.02856,0.08118 -0.02614,0.19551 0.0059,0.279735 0.01453,0.03874 0.0227,0.0696 0.01733,0.06895 -0.0049,-6.48e-4 -0.03486,-0.013 -0.06587,-0.02711 z m 2.12482,-6.510346 c 0.03486,-0.04116 0.0305,-0.09125 -0.01175,-0.133052 -0.02856,-0.02855 -0.04456,-0.03438 -0.07913,-0.02713 -0.0543,0.01075 -0.0759,0.02856 -0.08653,0.07105 -0.02711,0.107371 0.105335,0.174009 0.177122,0.08926 z"
       id="path1" />
  </g>
</svg>
