<?xml version="1.0" encoding="UTF-8" standalone="no"?>
<!-- Created with Inkscape (http://www.inkscape.org/) -->

<svg
   width="85.016823mm"
   height="53.531425mm"
   viewBox="0 0 85.016823 53.531425"
   version="1.1"
   id="svg1"
   inkscape:export-filename="pregnant-before.svg"
   inkscape:export-xdpi="96"
   inkscape:export-ydpi="96"
   xmlns:inkscape="http://www.inkscape.org/namespaces/inkscape"
   xmlns:sodipodi="http://sodipodi.sourceforge.net/DTD/sodipodi-0.dtd"
   xmlns="http://www.w3.org/2000/svg"
   xmlns:svg="http://www.w3.org/2000/svg">
  <sodipodi:namedview
     id="namedview1"
     pagecolor="#ffffff"
     bordercolor="#000000"
     borderopacity="0.25"
     inkscape:showpageshadow="2"
     inkscape:pageopacity="0.0"
     inkscape:pagecheckerboard="0"
     inkscape:deskcolor="#d1d1d1"
     inkscape:document-units="mm" />
  <defs
     id="defs1" />
  <g
     inkscape:label="layer"
     inkscape:groupmode="layer"
     id="layer1"
     transform="translate(-42.265508,-79.235517)">
    <ellipse
       style="display:inline;fill:#50a775;fill-opacity:1;stroke:#50a775;stroke-width:0.511053"
       id="path1-3-1-1-9-2"
       cx="94.045547"
       cy="86.134735"
       rx="6.6436925"
       ry="6.643693"
       inkscape:label="therpist-head" />
    <path
       style="display:inline;fill:#50a775;fill-opacity:1;stroke:#50a775;stroke-width:0.65833;stroke-opacity:1"
       d="m 88.903505,95.786667 c 0.33726,-2.21159 10.00974,-2.01822 10.30871,0.45745 0.863755,7.152893 0.20041,13.628773 0.26589,18.823473 0.0394,3.12078 -6.41217,5.06904 -9.8421,1.9432 0,0 -1.4819,-16.30995 -0.7325,-21.224123 z"
       id="path17-4-2"
       sodipodi:nodetypes="ssscs"
       inkscape:label="therpist-body" />
    <path
       style="fill:#50a775;fill-opacity:1;stroke:none;stroke-width:0.593054;stroke-dasharray:none;stroke-opacity:1"
       d="m 88.807675,95.202577 -13.3849,21.096643 c 0,0 -1.59355,5.46867 2.67179,4.20496 4.26531,-1.26368 13.40171,-21.755653 13.40171,-21.755653 0,0 1.44829,-4.8256 -2.6886,-3.54595 z"
       id="path36-9"
       inkscape:label="therpist-right-arm" />
    <ellipse
       style="display:inline;fill:#3b7871;fill-opacity:1;stroke:#3b7871;stroke-width:0.562245"
       id="path1-1-2-2-0"
       cx="-115.29239"
       cy="61.131199"
       rx="7.309185"
       ry="7.3091841"
       transform="rotate(-85.934434)"
       inkscape:label="patient-head" />
    <path
       style="display:inline;fill:#3b7871;fill-opacity:1;stroke:#3b7871;stroke-width:0.745918"
       d="m 60.999935,124.14944 c 0,0 2.79392,-3.75018 -0.14827,-8.24065 -0.64185,-0.97963 1.46779,1.00572 4.30274,-2.38095 0.89414,-1.06816 2.63111,-1.91828 4.45134,-0.49564 2.02681,1.58408 2.01579,3.54463 4.01947,1.29317 7.36009,-8.27024 10.25844,-4.27216 12.09108,-2.85491 4.3961,3.3997 4.58965,14.55551 -3.19405,14.74058 -7.80326,0.18555 -20.50039,5.02917 -21.52232,-2.0616 z"
       id="path3-4-0-8"
       sodipodi:nodetypes="csssssscc"
       inkscape:label="patient-body" />
    <path
       style="display:inline;fill:#3b7871;fill-opacity:1;stroke:none;stroke-width:0.534443;stroke-dasharray:none;stroke-opacity:1"
       d="m 81.587895,113.2402 24.181745,-11.9731 c 0,0 1.93281,-3.204113 2.16453,-5.007793 0.1857,-1.4453 4.46596,-0.81277 2.83679,4.499233 -1.62918,5.31199 -2.85339,4.39847 -2.85339,4.39847 0,0 -22.566405,16.70442 -26.619065,14.72851 -4.05266,-1.9759 0.28939,-6.64532 0.28939,-6.64532 z"
       id="path28-0"
       sodipodi:nodetypes="ccsscsc"
       inkscape:label="patient-left-leg" />
    <circle
       style="display:inline;fill:#50a775;fill-opacity:1;stroke:none;stroke-width:0.828;stroke-dasharray:none;stroke-opacity:1"
       id="path28"
       cx="111.84241"
       cy="117.27328"
       r="12"
       inkscape:label="ball" />
    <path
       style="fill:#50a775;fill-opacity:1;stroke:#50a775;stroke-width:0.730847;stroke-dasharray:none;stroke-opacity:1"
       d="m 87.690195,116.18338 c 0,0 -2.81863,12.59354 -0.22398,12.42538 2.59464,-0.16815 13.850145,0.7036 15.309635,-0.38946 1.45949,-1.09305 1.36561,-3.83185 -0.0128,-3.91594 -1.77527,0.18058 -5.579565,-0.46725 -10.717685,0.14801 -2.5924,0.31043 -0.35909,-3.41977 0.068,-7.68878 0.32623,-3.26043 -3.72517,-3.6153 -4.4232,-0.57921 z"
       id="path37-4"
       sodipodi:nodetypes="csscsscc"
       inkscape:label="therpist-right-leg" />
    <path
       style="fill:#50a775;fill-opacity:1;stroke:#50a775;stroke-width:0.730847;stroke-dasharray:none;stroke-opacity:1"
       d="m 94.269465,115.12412 c 0,0 -2.81863,12.59354 -0.22398,12.42538 2.59464,-0.16815 15.305355,0.43902 16.764845,-0.65404 1.45949,-1.09305 2.02707,-3.69956 0.64865,-3.78365 -1.3784,-0.084 -7.69624,-0.33496 -12.834355,0.2803 -2.5924,0.31043 -0.35909,-3.41977 0.068,-7.68878 0.32623,-3.26043 -3.72517,-3.6153 -4.4232,-0.57921 z"
       id="path37"
       sodipodi:nodetypes="csscsscc"
       inkscape:label="therpist-left-leg" />
    <path
       style="display:inline;fill:#3b7871;fill-opacity:1;stroke:#ffffff;stroke-width:0.6;stroke-dasharray:none;stroke-opacity:1"
       d="m 86.738755,117.96912 23.988915,-12.35491 c 0,0 1.88178,-3.23435 2.08487,-5.04147 0.16273,-1.448073 4.45252,-0.883473 2.90775,4.45369 -1.54477,5.33714 -2.78331,4.44315 -2.78331,4.44315 0,0 -22.298775,17.06004 -26.382245,15.14861 -4.08347,-1.91141 0.18402,-6.64907 0.18402,-6.64907 z"
       id="path28-0-3"
       sodipodi:nodetypes="ccsscsc"
       inkscape:label="patient-right-leg" />
    <path
       style="display:inline;fill:#3b7871;fill-opacity:1;stroke:#ffffff;stroke-width:0.883353;stroke-dasharray:none;stroke-opacity:1"
       d="m 89.074955,126.74862 c 0,0 -23.43085,1.98082 -24.95314,0.0635 -1.5223,-1.91725 -1.25958,-4.06595 0.35896,-4.57791 1.61854,-0.51194 23.68608,-0.57898 23.68608,-0.57898 0,0 3.30343,2.07275 0.90809,5.0933 z"
       id="path6-0-7"
       sodipodi:nodetypes="csscc"
       inkscape:label="patient-arm" />
    <path
       style="display:inline;fill:#50a775;fill-opacity:1;stroke:#ffffff;stroke-width:0.65;stroke-dasharray:none;stroke-opacity:1"
       d="m 96.077225,95.849407 c -3.44343,7.944333 -9.4697,17.444983 -12.82563,22.588263 -0.98554,1.51043 -1.08823,5.62362 3.80883,3.84278 4.89705,-1.78081 11.11153,-17.89534 12.74789,-23.244313 1.636355,-5.34897 -3.17847,-4.46169 -3.73109,-3.18673 z"
       id="path36"
       sodipodi:nodetypes="ssszs"
       inkscape:label="therpist-left-arm" />
    <rect
       style="fill:#50a775;fill-opacity:1;stroke:#ffffff;stroke-width:0.828;stroke-linecap:round;stroke-dasharray:none;stroke-opacity:1"
       id="rect25-1"
       width="84.18882"
       height="5.1867089"
       x="42.679508"
       y="127.16623"
       ry="1.7745461"
       inkscape:label="mat" />
  </g>
</svg>
