<svg width="1445" height="642" viewBox="0 0 1445 642" fill="none" xmlns="http://www.w3.org/2000/svg">
<path d="M213 31L126 87" stroke="#E5F2EA" stroke-width="32" stroke-linecap="round"/>
<path d="M101 176.99C101 176.99 187.66 114.846 200.04 133.489C212.42 152.132 101 525 101 525" stroke="#E5F2EA" stroke-width="32" stroke-linecap="round"/>
<path d="M181 31L85 93" stroke="#BFDECC" stroke-width="32" stroke-linecap="round"/>
<path d="M57 193.106C57 193.106 153.192 124.196 166.934 144.869C180.676 165.542 57 579 57 579" stroke="#BFDECC" stroke-width="32" stroke-linecap="round"/>
<path d="M154 16L47 85" stroke="#97C9AB" stroke-width="32" stroke-linecap="round"/>
<path d="M16 196.054C16 196.054 123.458 119.278 138.809 142.31C154.16 165.343 16 626 16 626" stroke="#97C9AB" stroke-width="32" stroke-linecap="round"/>
<path d="M1232 31L1319 87" stroke="#E5F2EA" stroke-width="32" stroke-linecap="round"/>
<path d="M1344 176.99C1344 176.99 1257.34 114.846 1244.96 133.489C1232.58 152.132 1344 525 1344 525" stroke="#E5F2EA" stroke-width="32" stroke-linecap="round"/>
<path d="M1264 31L1360 93" stroke="#BFDECC" stroke-width="32" stroke-linecap="round"/>
<path d="M1388 193.106C1388 193.106 1291.81 124.196 1278.07 144.869C1264.32 165.542 1388 579 1388 579" stroke="#BFDECC" stroke-width="32" stroke-linecap="round"/>
<path d="M1291 16L1398 85" stroke="#97C9AB" stroke-width="32" stroke-linecap="round"/>
<path d="M1429 196.054C1429 196.054 1321.54 119.278 1306.19 142.31C1290.84 165.343 1429 626 1429 626" stroke="#97C9AB" stroke-width="32" stroke-linecap="round"/>
</svg>
