<?xml version="1.0" encoding="UTF-8" standalone="no"?>
<!-- Created with Inkscape (http://www.inkscape.org/) -->

<svg
   width="56.892349mm"
   height="34.056278mm"
   viewBox="0 0 56.892349 34.056278"
   version="1.1"
   id="svg1"
   sodipodi:docname="chronic-pain-before.svg"
   inkscape:version="1.3 (0e150ed6c4, 2023-07-21)"
   xmlns:inkscape="http://www.inkscape.org/namespaces/inkscape"
   xmlns:sodipodi="http://sodipodi.sourceforge.net/DTD/sodipodi-0.dtd"
   xmlns="http://www.w3.org/2000/svg"
   xmlns:svg="http://www.w3.org/2000/svg">
  <sodipodi:namedview
     id="namedview1"
     pagecolor="#ffffff"
     bordercolor="#000000"
     borderopacity="0.25"
     inkscape:showpageshadow="2"
     inkscape:pageopacity="0.0"
     inkscape:pagecheckerboard="0"
     inkscape:deskcolor="#d1d1d1"
     inkscape:document-units="mm"
     inkscape:zoom="4.8133669"
     inkscape:cx="107.5131"
     inkscape:cy="64.300106"
     inkscape:window-width="1920"
     inkscape:window-height="991"
     inkscape:window-x="-9"
     inkscape:window-y="-9"
     inkscape:window-maximized="1"
     inkscape:current-layer="layer1" />
  <defs
     id="defs1" />
  <g
     inkscape:label="layer"
     inkscape:groupmode="layer"
     id="layer1"
     transform="translate(-68.527086,-93.662496)">
    <ellipse
       style="fill:#3b7871;fill-opacity:1;stroke:#3b7871;stroke-width:0.528413"
       id="path1-1"
       cx="118.28586"
       cy="100.79607"
       rx="6.8693686"
       ry="6.8693676" />
    <path
       style="fill:#3b7871;fill-opacity:1;stroke:#3b7871;stroke-width:0.680174"
       d="m 109.76512,101.12173 c 0,0 -0.41721,4.30512 3.90532,6.69552 3.16593,1.75079 -18.723454,11.86845 -18.723454,11.86845 0,0 -8.771005,-0.40691 -7.217016,-6.37877 1.553985,-5.97186 22.93894,-14.94754 22.03515,-12.1852 z"
       id="path3-7"
       sodipodi:nodetypes="cscsc" />
    <path
       style="fill:#3b7871;fill-opacity:1;stroke:#3b7871;stroke-width:1.01981;stroke-linecap:round;stroke-opacity:1"
       d="m 109.40804,100.68207 c -2.5132,-2.63524 -7.80478,-9.19688 -11.494703,-4.33335 -4.428416,5.8369 -6.20168,8.96142 -5.996543,10.67564 0.121902,0.76888 3.061453,1.33181 4.260409,-0.14776 1.198956,-1.47958 4.384987,-9.0283 5.572087,-8.82221 1.47132,0.25543 3.25579,2.64304 4.09832,3.99982 0.65429,1.05366 4.50553,-0.38114 3.56043,-1.37214 z"
       id="path7"
       sodipodi:nodetypes="sscssss" />
    <path
       style="fill:#3b7871;fill-opacity:1;stroke:none;stroke-width:1.04297;stroke-linecap:round;stroke-opacity:1"
       d="m 90.302619,106.43309 -0.742834,-4.25833 -1.072857,3.45556 -2.810497,-4.42874 0.7321,4.99455 -5.992251,-4.00775 4.469767,5.43676 -4.927706,-2.06598 4.319955,3.72763 -3.034704,0.56931 4.917104,0.86429 c 0,0 -0.726836,-4.2 4.141923,-4.2873 z"
       id="path14" />
    <path
       style="fill:#3b7871;fill-opacity:1;stroke:none;stroke-width:1.09815;stroke-linecap:round;stroke-opacity:1"
       d="m 116.81458,126.32267 c 0.23642,1.56037 6.01323,0.83236 5.96305,-0.74313 -0.17885,-5.61538 -4.21467,-10.42875 -8.3802,-17.24617 -0.84541,-1.38362 -5.36065,0.10203 -4.81584,1.52943 2.90112,7.60105 6.26695,10.08404 7.23299,16.45987 z"
       id="path23"
       sodipodi:nodetypes="sssss" />
    <path
       style="fill:#3b7871;fill-opacity:1;stroke:none;stroke-width:1.13102;stroke-linecap:round;stroke-opacity:1"
       d="m 89.277598,111.01886 c -6.860408,3.43787 -11.96047,6.55667 -19.811037,10.36637 -1.793899,0.87054 -0.674795,5.12285 0.508574,4.58847 8.339575,-3.76585 13.672686,-5.75981 20.20382,-10.38403 2.537496,-1.79663 0.429297,-5.23762 -0.901357,-4.57081 z"
       id="path24"
       sodipodi:nodetypes="sssss" />
    <path
       style="fill:#3b7871;fill-opacity:1;stroke:none;stroke-width:1;stroke-linecap:round;stroke-opacity:1"
       d="m 94.713662,116.17361 c 3.298501,2.82486 8.210868,10.42386 3.00623,11.1912 -7.050622,1.03949 -19.18849,-0.54205 -21.079015,-0.53605 -1.890525,0.006 -1.747133,-5.31397 0,-5.24543 7.589407,0.29772 10.520205,0.49078 15.769409,0.58089 0.467103,0.008 -2.742605,-2.59864 -2.556693,-4.44889 0.0066,-0.0653 0.02516,-0.13262 0.05463,-0.20127 0.456464,-1.06349 4.805441,-2.44139 4.805441,-1.34047 z"
       id="path22"
       sodipodi:nodetypes="sszssssss" />
  </g>
</svg>
