<svg width="48" height="48" viewBox="0 0 48 48" fill="none" xmlns="http://www.w3.org/2000/svg">
<g clip-path="url(#clip0_397_1375)">
<path d="M37 17C37 13.134 33.866 10 30 10H18C14.134 10 11 13.134 11 17V31C11 34.866 14.134 38 18 38H21L21 29.5H16.5V23.5H20.9612C20.8405 21.7774 20.818 20.2701 20.9788 18.985C21.1566 17.5647 21.5631 16.3734 22.348 15.4559C23.9232 13.6148 26.8241 13.0915 31.5433 13.5019L32 13.5416V19.1114L31.4008 18.9901C30.2675 18.7606 29.4128 18.6923 28.7727 18.7707C28.1465 18.8474 27.7559 19.0597 27.4934 19.3765C27.2188 19.7079 27.0309 20.2175 26.9478 20.9903C26.8755 21.6617 26.8863 22.4911 26.961 23.5H32.1099L30.9099 29.5H27V38L30 38C33.866 38 37 34.866 37 31V17Z" fill="#298A56"/>
<path d="M26 38L22 38L22 28.5H17.5V24.5H22.0412L21.9984 23.9605C21.8453 22.0281 21.8067 20.4226 21.9711 19.1091C22.1351 17.7983 22.4964 16.8208 23.1079 16.106C24.2858 14.7292 26.576 14.1272 31 14.461V17.8986C30.0885 17.7459 29.3085 17.6976 28.6511 17.7781C27.8399 17.8775 27.188 18.1776 26.7233 18.7385C26.2707 19.2848 26.0466 20.0184 25.9535 20.8833C25.8607 21.7459 25.8929 22.7933 26 24.0219V24.5H30.8901L30.0901 28.5H26V38Z" fill="#298A56"/>
<path fill-rule="evenodd" clip-rule="evenodd" d="M24 48C37.2548 48 48 37.2548 48 24C48 10.7452 37.2548 0 24 0C10.7452 0 0 10.7452 0 24C0 37.2548 10.7452 48 24 48ZM18 9C13.5817 9 10 12.5817 10 17V31C10 35.4183 13.5817 39 18 39H30C34.4183 39 38 35.4183 38 31V17C38 12.5817 34.4183 9 30 9H18Z" fill="#298A56"/>
</g>
<defs>
<clipPath id="clip0_397_1375">
<rect width="48" height="48" fill="white"/>
</clipPath>
</defs>
</svg>
