<svg width="48" height="48" viewBox="0 0 48 48" fill="none" xmlns="http://www.w3.org/2000/svg">
<g clip-path="url(#clip0_397_1372)">
<path d="M30.5 24C30.5 27.5899 27.5899 30.5 24 30.5C20.4101 30.5 17.5 27.5899 17.5 24C17.5 20.4101 20.4101 17.5 24 17.5C27.5899 17.5 30.5 20.4101 30.5 24Z" fill="#298A56"/>
<path fill-rule="evenodd" clip-rule="evenodd" d="M11 17C11 13.134 14.134 10 18 10H30C33.866 10 37 13.134 37 17V31C37 34.866 33.866 38 30 38H18C14.134 38 11 34.866 11 31V17ZM31.5 24C31.5 28.1421 28.1421 31.5 24 31.5C19.8579 31.5 16.5 28.1421 16.5 24C16.5 19.8579 19.8579 16.5 24 16.5C28.1421 16.5 31.5 19.8579 31.5 24ZM34.5 16C34.5 17.1046 33.6046 18 32.5 18C31.3954 18 30.5 17.1046 30.5 16C30.5 14.8954 31.3954 14 32.5 14C33.6046 14 34.5 14.8954 34.5 16Z" fill="#298A56"/>
<path fill-rule="evenodd" clip-rule="evenodd" d="M24 48C37.2548 48 48 37.2548 48 24C48 10.7452 37.2548 0 24 0C10.7452 0 0 10.7452 0 24C0 37.2548 10.7452 48 24 48ZM10 17C10 12.5817 13.5817 9 18 9H30C34.4183 9 38 12.5817 38 17V31C38 35.4183 34.4183 39 30 39H18C13.5817 39 10 35.4183 10 31V17Z" fill="#298A56"/>
</g>
<defs>
<clipPath id="clip0_397_1372">
<rect width="48" height="48" fill="white"/>
</clipPath>
</defs>
</svg>
