<svg width="48" height="48" viewBox="0 0 48 48" fill="none" xmlns="http://www.w3.org/2000/svg">
<g clip-path="url(#clip0_397_1379)">
<path fill-rule="evenodd" clip-rule="evenodd" d="M24 14.5C17.8558 14.5 13 18.8069 13 23.976C13 28.983 17.5529 33.1789 23.4256 33.4392L23.9656 33.4632L23.8997 33.9997C23.8473 34.4266 23.7529 34.88 23.6158 35.3791C26.6336 34.2964 28.8931 32.9528 30.3157 31.7414L30.3451 31.7163L30.3781 31.6961C33.196 29.9645 35 27.1385 35 23.976C35 18.8069 30.1442 14.5 24 14.5ZM28.4 21.5C27.8477 21.5 27.4 21.9477 27.4 22.5V26.5C27.4 27.0523 27.8477 27.5 28.4 27.5H31.025C31.3011 27.5 31.525 27.2761 31.525 27C31.525 26.7239 31.3011 26.5 31.025 26.5H28.4V25H31.025C31.3011 25 31.525 24.7761 31.525 24.5C31.525 24.2239 31.3011 24 31.025 24H28.4V22.5H31.025C31.3011 22.5 31.525 22.2761 31.525 22C31.525 21.7239 31.3011 21.5 31.025 21.5H28.4ZM22.8666 21.5181C22.8072 21.5345 22.7523 21.5616 22.704 21.5971C22.6456 21.6399 22.5988 21.6936 22.5649 21.7537C22.5309 21.8137 22.5089 21.8814 22.5022 21.9535C22.5005 21.972 22.4998 21.9906 22.5001 22.0092V26.9999C22.5001 27.2761 22.7239 27.4999 23.0001 27.4999C23.2762 27.4999 23.5 27.2761 23.5 26.9999V23.8052L25.5665 27.2493C25.576 27.2658 25.5864 27.2816 25.5976 27.2968C25.6403 27.3549 25.6938 27.4013 25.7536 27.4351C25.8132 27.469 25.8806 27.4909 25.9523 27.4977C26.0124 27.5035 26.0738 27.4985 26.1334 27.4819C26.1931 27.4654 26.2483 27.4381 26.2968 27.4023C26.3549 27.3595 26.4013 27.3061 26.4351 27.2463C26.469 27.1866 26.4909 27.1193 26.4977 27.0475C26.4995 27.0287 26.5003 27.0098 26.4999 26.9908V22.0001C26.4999 21.7239 26.2761 21.5001 25.9999 21.5001C25.7238 21.5001 25.5 21.7239 25.5 22.0001V25.1948L23.4335 21.7507C23.4242 21.7345 23.414 21.719 23.403 21.704C23.3602 21.6456 23.3065 21.5988 23.2464 21.5649C23.1865 21.5309 23.1188 21.5089 23.0466 21.5022C22.9869 21.4966 22.9259 21.5016 22.8666 21.5181ZM21 22C21 21.7239 20.7761 21.5 20.5 21.5C20.2239 21.5 20 21.7239 20 22V27C20 27.2761 20.2239 27.5 20.5 27.5C20.7761 27.5 21 27.2761 21 27V22ZM17 21.5C17.2761 21.5 17.5 21.7239 17.5 22V26.5H19C19.2761 26.5 19.5 26.7239 19.5 27C19.5 27.2761 19.2761 27.5 19 27.5H17.5C16.9477 27.5 16.5 27.0523 16.5 26.5V22C16.5 21.7239 16.7239 21.5 17 21.5Z" fill="#298A56"/>
<path fill-rule="evenodd" clip-rule="evenodd" d="M37 17C37 13.134 33.866 10 30 10H18C14.134 10 11 13.134 11 17V31C11 34.866 14.134 38 18 38H30C33.866 38 37 34.866 37 31V17ZM12 23.976C12 18.1259 17.4417 13.5 24 13.5C30.5583 13.5 36 18.1259 36 23.976C36 27.5286 33.9797 30.6432 30.9346 32.5278C29.3413 33.8764 26.8521 35.3234 23.5786 36.4522C22.9371 36.6734 22.3712 36.0587 22.5529 35.456C22.6697 35.0688 22.7584 34.7211 22.8219 34.402C16.8053 33.8889 12 29.4716 12 23.976Z" fill="#298A56"/>
<path fill-rule="evenodd" clip-rule="evenodd" d="M24 48C37.2548 48 48 37.2548 48 24C48 10.7452 37.2548 0 24 0C10.7452 0 0 10.7452 0 24C0 37.2548 10.7452 48 24 48ZM18 9C13.5817 9 10 12.5817 10 17V31C10 35.4183 13.5817 39 18 39H30C34.4183 39 38 35.4183 38 31V17C38 12.5817 34.4183 9 30 9H18Z" fill="#298A56"/>
</g>
<defs>
<clipPath id="clip0_397_1379">
<rect width="48" height="48" fill="white"/>
</clipPath>
</defs>
</svg>
