<svg width="54" height="54" viewBox="0 0 54 54" fill="none" xmlns="http://www.w3.org/2000/svg">
<g clip-path="url(#clip0_354_1478)">
<path fill-rule="evenodd" clip-rule="evenodd" d="M27 54C41.9117 54 54 41.9117 54 27C54 12.0883 41.9117 0 27 0C12.0883 0 0 12.0883 0 27C0 41.9117 12.0883 54 27 54ZM45.6473 10.8355C46.1327 10.1641 45.9819 9.22644 45.3106 8.74106C44.6392 8.25568 43.7015 8.40643 43.2161 9.07777C41.1189 11.9786 39.5093 13.4056 37.9453 14.2053C36.3681 15.0117 34.6897 15.2636 32.1893 15.519C32.1659 15.5211 32.1423 15.5238 32.1188 15.527C29.2812 15.9136 27.1685 16.8759 25.671 18.9333C24.2709 20.857 23.545 23.5736 22.9332 27.0707C22.9283 27.0961 22.924 27.1218 22.9204 27.1477C22.9178 27.167 22.9155 27.1863 22.9135 27.2057C22.9066 27.2738 22.9044 27.3415 22.9067 27.4083C22.9316 29.5755 22.7668 30.9127 22.4105 31.9143C22.0977 32.7936 21.602 33.5122 20.7418 34.3545C18.3987 35.0907 16.5869 35.9592 15.2815 37.3479C13.8888 38.8293 13.2473 40.7127 12.8698 43.0627C12.7384 43.8806 13.295 44.6502 14.1129 44.7816C14.9309 44.913 15.7005 44.3564 15.8318 43.5385C16.1699 41.4342 16.6734 40.2471 17.4673 39.4027C18.2819 38.5361 19.5777 37.8408 21.9313 37.127C22.0369 37.0972 22.14 37.0555 22.2385 37.0019C22.362 36.9349 22.4735 36.8519 22.5711 36.7563C23.783 35.6196 24.6853 34.4705 25.2369 32.9199C25.7644 31.4374 25.9278 29.7062 25.9076 27.4781C26.5133 24.0492 27.1545 21.9931 28.0966 20.6988C28.9538 19.5209 30.1797 18.8231 32.4962 18.5033C34.9792 18.2497 37.1781 17.967 39.3111 16.8764C41.4683 15.7733 43.4121 13.9271 45.6473 10.8355ZM43.8877 21.5621C44.5046 22.115 44.5565 23.0633 44.0036 23.6802L39.3181 28.9079C38.7652 29.5248 37.8169 29.5767 37.2 29.0238C36.5831 28.4709 36.5312 27.5226 37.0841 26.9056L41.7695 21.6779C42.3224 21.061 43.2708 21.0092 43.8877 21.5621ZM29.0211 39.6605C29.6901 40.0926 29.8714 41.0386 29.426 41.7734L25.6358 48.0264C25.1904 48.7612 24.287 49.0067 23.618 48.5746C22.9491 48.1425 22.7678 47.1966 23.2132 46.4617L27.0034 40.2087C27.4487 39.4739 28.3521 39.2285 29.0211 39.6605ZM16.5114 24.1531C17.1104 23.6046 17.1266 22.6617 16.5476 22.0471C15.9687 21.4326 15.0138 21.379 14.4148 21.9276L9.33354 26.5809C8.73454 27.1294 8.71831 28.0723 9.29726 28.6869C9.87622 29.3015 10.8311 29.355 11.4301 28.8065L16.5114 24.1531ZM28.3308 5.26754C28.9477 5.82046 28.9996 6.76878 28.4467 7.3857L23.7612 12.6134C23.2083 13.2303 22.26 13.2822 21.6431 12.7293C21.0262 12.1763 20.9743 11.228 21.5272 10.6111L26.2126 5.38341C26.7655 4.76649 27.7139 4.71462 28.3308 5.26754Z" fill="#E9EBF4"/>
<path d="M22.5582 19.6751C22.5582 19.6751 25.024 17.2093 26.5034 17.2093C26.6038 17.2093 26.711 17.2206 26.8236 17.2419M26.8236 17.2419C28.3708 17.5326 30.9418 19.6751 30.9418 19.6751M26.8236 17.2419L26.9966 13.2641M26.8236 17.2419L26.5034 24.6066M18.1198 32.9901H35.8733M26.9966 26.086L22.5582 47.7846M29.9555 34.9627L31.9281 47.7846M35.8733 6.35999L42.7774 10.7983M19.1061 6.85314L12.202 11.2915M43.2705 17.7025C43.2705 17.7025 36.3664 12.7709 35.3801 14.2504C34.3938 15.7298 43.2705 45.3189 43.2705 45.3189M10.2294 18.4725C10.2294 18.4725 17.1335 13.541 18.1198 15.0204C19.1061 16.4999 10.2294 46.0889 10.2294 46.0889M26.5034 1.92163L23.0513 7.83944M26.5034 3.89423C26.5034 3.89423 31.4349 5.86684 29.4623 6.35999C27.4897 6.85314 26.9966 10.7983 26.9966 10.7983M21.5719 27.5655C21.5719 26.086 21.0787 14.7435 22.5582 13.7572C24.0377 12.7709 26.9966 11.7846 26.9966 11.7846L30.9418 13.7572C31.9281 14.2504 32.4212 27.5655 31.9281 27.5655C31.4349 27.5655 26.9966 23.6203 26.9966 23.6203C26.9966 23.6203 21.5719 29.0449 21.5719 27.5655Z" stroke="#298A56" stroke-width="3" stroke-linecap="round"/>
</g>
<defs>
<clipPath id="clip0_354_1478">
<rect width="54" height="54" fill="white"/>
</clipPath>
</defs>
</svg>
