<?xml version="1.0" encoding="UTF-8" standalone="no"?>
<!-- Created with Inkscape (http://www.inkscape.org/) -->

<svg
   width="359.02676mm"
   height="786.28027mm"
   viewBox="0 0 359.02676 786.28027"
   version="1.1"
   id="svg1"
   inkscape:export-filename="logo-border.svg"
   inkscape:export-xdpi="96"
   inkscape:export-ydpi="96"
   sodipodi:docname="logo-border.svg"
   inkscape:version="1.3 (0e150ed6c4, 2023-07-21)"
   xmlns:inkscape="http://www.inkscape.org/namespaces/inkscape"
   xmlns:sodipodi="http://sodipodi.sourceforge.net/DTD/sodipodi-0.dtd"
   xmlns="http://www.w3.org/2000/svg"
   xmlns:svg="http://www.w3.org/2000/svg">
  <sodipodi:namedview
     id="namedview1"
     pagecolor="#ffffff"
     bordercolor="#000000"
     borderopacity="0.25"
     inkscape:showpageshadow="2"
     inkscape:pageopacity="0.0"
     inkscape:pagecheckerboard="0"
     inkscape:deskcolor="#d1d1d1"
     inkscape:document-units="mm"
     inkscape:zoom="0.27626652"
     inkscape:cx="678.69244"
     inkscape:cy="1485.884"
     inkscape:window-width="1920"
     inkscape:window-height="1017"
     inkscape:window-x="-8"
     inkscape:window-y="-8"
     inkscape:window-maximized="1"
     inkscape:current-layer="layer1" />
  <defs
     id="defs1" />
  <g
     inkscape:label="layer"
     inkscape:groupmode="layer"
     id="layer1"
     transform="translate(114.46145,344.61547)">
    <path
       style="display:inline;fill:none;stroke:#ffffff;stroke-width:3.96875;stroke-linecap:round;stroke-dasharray:none;stroke-opacity:1"
       d="m 35.929935,-312.90057 c 32.035009,-19.56825 9.035521,-42.29658 35.320658,-21.43189 26.285136,20.86468 28.404078,2.94808 39.633067,-6.00164 4.87598,-3.88626 14.58003,26.86632 14.58003,26.86632 0,0 19.95897,12.21817 26.28513,21.99911 11.43281,17.67639 11.51639,40.51052 26.28514,54.04565 16.0075,14.67044 33.54869,18.57558 56.26239,31.74866 11.42542,6.6263 12.73611,20.49177 -6.97774,29.80998 -19.71386,9.31822 -45.76304,-18.6477 -64.07004,-28.37358 -13.71365,-7.2856 -31.02539,-1.94047 -46.40972,-4.05394 -18.948341,-2.60308 -48.778788,-38.04493 -56.390163,-10.60637 -3.96412,14.2904 11.574304,49.41439 20.029911,67.45116 C 146.35386,-10.9274 128.7155,158.3464 36.54943,291.03259 1.7928365,341.06968 -109.28191,380.36994 -70.032023,439.51151"
       id="path2"
       sodipodi:nodetypes="csscsssssasssc" />
    <ellipse
       style="fill:none;stroke:#ffffff;stroke-width:3.96875;stroke-linecap:round;stroke-dasharray:none;stroke-opacity:1"
       id="path3"
       cx="136.29971"
       cy="-264.95065"
       rx="9.6391459"
       ry="9.6391468" />
    <path
       style="fill:none;stroke:#ffffff;stroke-width:3.96875;stroke-linecap:round;stroke-dasharray:none;stroke-opacity:1"
       d="m 35.929935,-312.90057 c 0,0 -22.088818,7.52528 -39.2891985,9.64493 -3.62175,0.44631 -1.45206,6.38907 4.06578003,10.16443 5.51782997,3.77537 16.83591047,-5.49344 23.52341047,-6.09866 3.48414,-0.31532 4.57732,7.26912 2.61371,10.16444 -4.7109,6.94619 -14.12322,-3.01676 -24.9754705,3.19453 -6.29169,3.60105 -14.5206295,8.13156 -12.1973195,18.00558 2.3232795,9.87403 19.8751795,-5.78768 27.8796,-2.90412 1.28799,0.46399 2.03287,2.35274 -0.58084,4.06577"
       id="path4"
       sodipodi:nodetypes="csssasssc" />
    <path
       style="fill:none;stroke:#ffffff;stroke-width:3.96875;stroke-linecap:round;stroke-dasharray:none;stroke-opacity:1"
       d="m 16.969607,-266.66367 c 0,0 -17.93296047,2.54111 -23.4508205,13.06856 -5.5178295,10.52746 15.23122,0.23687 23.3056105,-2.61371 1.5498,-0.54714 2.97672,3.99317 1.16166,4.7918 -1.81507,0.79864 -25.7741205,10.60006 -27.0083505,22.72478 0,0 -0.0726,2.90413 2.97672,1.37946 3.04932,-1.52466 16.4314205,-13.88029 23.7412205,-10.30964 5.66102,2.76527 -19.5054005,10.87427 -28.77767,17.64256 -1.79835,1.31271 -2.64054,5.30003 0,6.67948 2.6405395,1.37946 14.1477995,-6.79268 22.31599,-6.82469 1.99755,-0.008 3.94607,5.44659 1.96027,5.66305 -15.8037505,1.72262 -34.55908,6.82469 -38.91526,7.0425 -4.35619,0.21781 -4.03165,4.14257 -2.61372,5.66304 2.31931,2.48702 7.61541,5.9054 5.59044,6.17127 -9.42638,1.23765 -25.12068,1.30685 -27.87959,3.99317 -2.75892,2.68631 -4.20803,9.06582 -1.23426,8.85758 11.41084,-0.79905 22.81456,-2.90113 28.5951,-2.79109 2.38222,0.0454 4.75675,-1.23928 4.46651,1.94581 -0.17144,1.88149 -1.67267,1.15354 -3.9817,1.87854 -7.46871,2.34507 -23.38899,1.91755 -30.09635,3.83115 -3.26429,0.93129 -9.11246,8.13842 -7.36664,8.03554 3.10757,-0.18313 10.21549,-0.3434 23.55714,1.18506 1.09364,0.12529 0.90436,6.52491 -5.45858,6.92737 -4.57273,0.28922 -9.95634,0.30272 -21.62239,1.785 -4.80045,0.60994 -8.43758,9.41605 -5.6509,13.37216 2.14734,3.04846 6.76921,-1.39805 11.16874,-0.63031 2.83437,0.49461 5.32212,7.77444 2.61371,9.18429 -9.97315,5.19151 -26.71795,11.6165 -25.99192,17.64256 0.72603,6.02606 16.24002,5.62296 12.70555,9.58361 0,0 -28.52774,19.330825 -21.21559,28.722898 1.3591,1.745695 7.20319,1.697805 7.20319,1.697805 0,0 -0.36302,3.194553 -8.78498,16.263117 -8.421957,13.068564 -5.21426,14.791637 -0.14521,18.005557 1.98189,1.256586 6.83746,-3.481811 5.87712,-1.374061 -5.59392,12.277619 -14.467307,26.314585 -10.53716,37.8747338 1.15837,3.4072247 7.68767,-3.2824208 8.83016,-6.2119138 0.36631,-0.939271 3.30765,-0.760968 3.01759,0.204576 -2.66594,8.8743098 -7.80182,16.10383763 -12.4951,24.2494323 -3.327527,5.7752187 -0.94384,21.8507467 2.62108,19.8206517 8.41118,-4.789858 10.24948,-10.784655 12.85075,-11.543903 2.86106,-0.835078 -7.40475,25.52655 -9.2932,36.519379 -0.29584,1.72212 0.96764,4.186158 2.68631,4.501382 0.7394,0.135626 4.06266,1.90164 9.10858,-3.761396 0,0 1.8908,-1.720135 5.23054,-1.066694 3.33974,0.653415 -5.64443,17.958726 -7.82266,25.949487 -0.83359,3.058027 0.20536,6.519968 4.87713,8.162766 4.67177,1.642824 5.17174,-5.883381 6.93065,-5.955215 1.95144,-0.07967 1.13654,3.591189 2.97761,3.74769 1.42543,0.121153 1.81994,0.05022 4.46642,-0.513397 2.93524,-0.625105 -7.11348,17.245755 -5.74987,26.336495 0.61606,4.10704 10.50506,0.55546 14.58004,0 1.56622,-0.2135 3.30789,1.22081 3.95303,3.36264 0.64173,2.13053 -6.66113,11.978 -10.31897,17.45499 -1.46377,2.19175 -0.87275,6.41725 2.59258,7.46969 3.46533,1.05243 9.67725,-2.72093 9.67725,-2.72093 0,0 6.02624,-3.55195 8.59914,-4.49209 2.12072,-0.77494 4.50062,3.33772 4.85145,5.05679 0.51338,2.51558 -0.0513,5.44187 -2.92627,7.13603 -2.87494,1.69415 -5.32792,2.86853 -13.44117,7.22259 -4.60022,2.46875 -0.45236,15.5044 4.71368,14.75015 7.58696,-1.10767 9.33363,-7.2576 14.9156,-6.76285 3.58824,0.31805 7.67319,4.76065 7.21115,7.37888 -0.46204,2.61827 -14.0676,4.4264 -22.28077,5.54456 -6.46755,0.8805 -11.39707,9.95958 0.56473,19.61115 0,0 10.16495,3.28565 20.02188,-7.49535 0,0 6.20492,-1.103 6.60424,7.13748 0.39931,8.24045 -27.95221,4.79179 -27.95221,4.79179"
       id="path5"
       sodipodi:nodetypes="cssscsssssssssssssssssssassscscssssssssssscssssssssssscssssssssccsc" />
    <path
       style="fill:none;stroke:#ffffff;stroke-width:3.96875;stroke-linecap:round;stroke-dasharray:none;stroke-opacity:1"
       d="m -70.032023,439.51151 c -7.59805,1.3348 -9.6922,-5.06494 -15.19609,-5.33916 -3.92409,-0.19553 -5.79193,-5.00369 -8.72749,-8.16276 -10.473567,-11.27102 -11.166357,-16.15935 -12.385807,-18.54047 -1.50151,-2.93187 1.86143,-3.4313 -1.06479,-7.02596 -5.98765,-7.35544 -3.79902,-9.49753 -2.36155,-14.42601 1.43747,-4.92847 1.45747,-5.41872 0.33533,-7.74729 -8.93332,-18.53774 4.69022,-15.72741 4.13838,-24.75764 -1.34749,-22.04979 13.418117,-18.9466 16.154187,-20.21999 4.02898,-1.8751 7.30697,-4.27553 11.40604,-7.86183 1.2954,-1.13337 -3.13056,-2.04581 -3.90063,-3.22659 -0.77008,-1.18076 1.89669,-6.73563 7.55974,-8.62333 5.66304,-1.88767 10.60005,-1.74246 14.95624,-0.2904 4.35619,1.45206 12.79621,-0.75983 19.16723,-2.61372 5.09473,-1.48248 -3.41235,-12.85076 -7.11511,-11.4713 -3.70276,1.37946 -3.66914,2.59787 -7.55073,4.64661 -2.97693,1.57128 -11.03567,1.99658 -11.6165,-3.37605 -0.58082,-5.37263 3.15933,-15.48524 9.03909,-16.6624 10.49314,-2.10079 19.0751,1.42679 25.99192,-0.79865 3.43149,-1.10405 3.54837,-11.20613 -0.035,-10.81413 -5.97865,0.65405 -12.14997,3.59368 -14.66554,2.36157 -2.51557,-1.23211 -9.87471,-8.47201 -9.44622,-14.11801 0.2027,-2.67086 3.00145,-5.19306 5.4253,-5.92772 8.82901,-2.67608 27.90576,-0.15701 28.20119,-3.31314 0.75061,-8.01881 1.48881,-5.08246 3.64501,-8.41944 0.77007,-2.36154 -1.48881,-2.20755 -1.48881,-2.20755 -12.57784,4.67177 -16.21277,4.1307 -21.04864,4.26106 -6.35407,0.17129 -13.80997,-9.08688 -14.42602,-10.67835 -0.61606,-1.54014 5.3413,-12.37506 9.85906,-12.58043 4.51776,-0.20534 8.39241,0.71615 10.6762,0.97803 2.21119,0.18926 8.76678,-0.12933 14.03445,-0.82508 3.69163,-0.4876 1.48546,-12.23536 -1.76463,-10.41799 -19.43954,10.87009 -18.68968,5.19573 -27.04168,2.08619 -4.25347,-1.58361 -6.9524,-9.33686 -3.92343,-12.71696 3.54737,-3.95862 6.28017,-4.39248 6.28017,-4.39248"
       id="path7"
       sodipodi:nodetypes="cssssssssscscscscssscassccscscssssc" />
  </g>
</svg>
