<?xml version="1.0" encoding="UTF-8" standalone="no"?>
<!-- Created with Inkscape (http://www.inkscape.org/) -->

<svg
   width="149.99998mm"
   height="150mm"
   viewBox="0 0 149.99998 150"
   version="1.1"
   id="svg1"
   xmlns:inkscape="http://www.inkscape.org/namespaces/inkscape"
   xmlns:sodipodi="http://sodipodi.sourceforge.net/DTD/sodipodi-0.dtd"
   xmlns="http://www.w3.org/2000/svg"
   xmlns:svg="http://www.w3.org/2000/svg">
  <sodipodi:namedview
     id="namedview1"
     pagecolor="#ffffff"
     bordercolor="#000000"
     borderopacity="0.25"
     inkscape:showpageshadow="2"
     inkscape:pageopacity="0.0"
     inkscape:pagecheckerboard="0"
     inkscape:deskcolor="#d1d1d1"
     inkscape:document-units="mm" />
  <defs
     id="defs1" />
  <g
     inkscape:label="logo"
     inkscape:groupmode="layer"
     id="layer1"
     transform="translate(-29.999999,-26.583762)">
    <circle
       style="fill:#e3f2f2;fill-opacity:1;stroke-width:0.0997715;stroke-linecap:round"
       id="path2"
       cx="105"
       cy="101.58376"
       r="75" />
    <path
       style="fill:#1e683f;fill-opacity:1;stroke-width:0.0947803;stroke-linecap:round"
       d="m 80.308343,166.55918 c -1.523177,-0.7019 -3.79848,-3.52393 -3.960052,-4.9116 -0.0478,-0.41055 -0.280799,-1.04235 -0.517777,-1.40403 -0.370476,-0.56542 -0.388465,-0.79912 -0.128336,-1.66734 0.239484,-0.79933 0.236276,-1.16973 -0.01539,-1.7773 -0.454174,-1.09647 -0.39356,-1.9599 0.182126,-2.59433 0.311077,-0.34282 0.556968,-1.07229 0.650673,-1.93031 0.162393,-1.48698 0.955166,-2.50772 1.94767,-2.50772 0.657376,0 1.735989,-0.56887 2.336267,-1.23217 0.460783,-0.50916 0.462052,-0.54487 0.03057,-0.86037 -0.42193,-0.30853 -0.404934,-0.36486 0.270989,-0.89822 0.619656,-0.48895 0.932912,-0.55208 2.225781,-0.44854 1.509369,0.12088 3.820796,-0.19668 4.232219,-0.58146 0.364502,-0.3409 -0.06141,-1.46298 -0.71881,-1.89373 -0.576584,-0.37779 -0.671292,-0.36991 -1.467553,0.12222 -1.658954,1.02529 -2.595515,0.53334 -2.04209,-1.07266 0.184183,-0.53448 0.461734,-1.09872 0.616778,-1.25386 0.162845,-0.16294 1.24713,-0.29402 2.567401,-0.31039 1.903776,-0.0236 2.341492,-0.10489 2.62073,-0.48678 0.384866,-0.52634 0.423485,-1.08883 0.108866,-1.58555 -0.182765,-0.28854 -0.437342,-0.29279 -1.549899,-0.0259 l -1.331213,0.31936 -0.711939,-0.8518 c -1.375966,-1.64628 -0.500471,-2.47217 2.626964,-2.47813 l 1.942196,-0.004 0.534979,-1.13811 c 0.294238,-0.62597 0.467161,-1.20594 0.384274,-1.28882 -0.08289,-0.0828 -0.810053,0.0343 -1.615925,0.26041 -2.079292,0.58343 -2.664346,0.52506 -3.680537,-0.36716 -0.487535,-0.42807 -0.886426,-0.8708 -0.886426,-0.98385 0,-0.11306 0.29215,-0.55276 0.649221,-0.97711 0.640269,-0.76092 0.681772,-0.77156 3.009258,-0.77156 H 90.9794 v -0.98832 c 0,-0.54356 -0.11594,-1.05994 -0.257643,-1.14752 -0.141701,-0.0876 -0.734152,0.0646 -1.31655,0.33815 -1.699058,0.79805 -1.996497,0.82001 -3.039459,0.22435 -1.248766,-0.7132 -1.576673,-1.51493 -0.897427,-2.19417 0.411744,-0.41174 0.838031,-0.49564 2.518304,-0.49564 1.112463,0 2.240935,-0.11682 2.507715,-0.25959 0.586909,-0.31411 0.635746,-1.3093 0.09098,-1.85406 -0.526131,-0.52614 -0.940053,-0.49659 -1.485441,0.10606 -0.596256,0.65886 -2.058064,1.06216 -2.66757,0.73596 -0.574793,-0.30762 -1.164865,-1.46844 -1.035359,-2.03682 0.107136,-0.47017 1.084955,-0.842 2.875338,-1.09335 2.05797,-0.28894 2.497774,-1.08508 1.103929,-1.99835 -0.567473,-0.37183 -0.693836,-0.37438 -1.33003,-0.0269 -1.966426,1.07409 -1.862019,1.04893 -2.235082,0.53873 -0.698108,-0.95472 -0.439176,-1.54627 1.049692,-2.39811 1.531447,-0.87621 1.744487,-1.17798 1.505066,-2.13191 -0.234254,-0.93335 -0.687537,-0.98032 -2.263835,-0.23462 -1.341983,0.63486 -2.14424,0.68607 -2.14424,0.13686 0,-0.1376 0.448439,-0.944 0.996531,-1.79202 0.811164,-1.25502 0.947882,-1.63271 0.734992,-2.0305 -0.229134,-0.42814 -0.430283,-0.46761 -1.623459,-0.31852 -1.613804,0.20161 -1.664611,0.0676 -0.860379,-2.26997 0.630715,-1.83321 0.647295,-2.44907 0.06269,-2.3289 -0.241368,0.0496 -0.578499,-0.0831 -0.74918,-0.29507 -0.272961,-0.3389 -0.36825,-0.31129 -0.791359,0.22928 -0.410505,0.52446 -0.539648,0.56592 -0.880837,0.28276 -0.535973,-0.44483 -0.51739,-0.5891 0.369555,-2.86932 0.421879,-1.08459 0.707019,-2.12843 0.633646,-2.31964 -0.188017,-0.48996 -0.840886,-0.4317 -1.567536,0.13988 -0.636915,0.501 -1.3401,0.44991 -1.3401,-0.0974 0,-0.16967 0.337255,-1.42714 0.749456,-2.794357 0.739126,-2.451594 0.924963,-3.614324 0.577668,-3.614324 -0.09763,0 -0.595254,0.407921 -1.105836,0.90649 -0.510582,0.498572 -1.051364,0.830452 -1.201738,0.737517 -0.653969,-0.404177 -0.286555,-2.321388 0.850874,-4.439964 0.618355,-1.151749 1.126167,-2.235149 1.128472,-2.407553 0.0067,-0.498161 -0.847068,-0.363397 -1.19147,0.188078 -0.495033,0.792674 -0.810513,0.588867 -0.810513,-0.523611 0,-0.624186 0.343296,-1.80595 0.877702,-3.021404 1.007636,-2.291782 1.065155,-2.591472 0.432373,-2.25282 -0.551655,0.295239 -1.310075,-0.08103 -1.310075,-0.649956 0,-0.22239 0.519353,-1.290221 1.154117,-2.372957 1.175337,-2.004807 1.269059,-2.714747 0.358383,-2.714747 -1.306019,0 0.185525,-2.552923 2.354752,-4.030384 0.49169,-0.33489 0.894753,-0.744669 0.895696,-0.910622 9.18e-4,-0.165951 -0.506099,-0.526357 -1.126759,-0.800907 -0.62066,-0.274547 -1.128473,-0.610683 -1.128473,-0.746974 0,-0.336983 1.067204,-1.064687 2.946567,-2.009196 1.224432,-0.615362 1.566482,-0.910336 1.563483,-1.348314 -0.0069,-1.005153 -0.358066,-1.272323 -1.475407,-1.122454 -0.935927,0.125534 -1.028469,0.08799 -1.028469,-0.417192 0,-1.150681 0.514562,-1.442824 2.86292,-1.625425 1.761046,-0.136935 2.276865,-0.268815 2.55865,-0.65418 0.567685,-0.776352 0.283435,-0.99557 -1.49099,-1.149874 -0.919507,-0.07996 -1.738453,-0.212003 -1.819877,-0.293428 -0.357443,-0.35744 1.184682,-0.896709 3.005709,-1.051072 2.971773,-0.251908 3.409824,-0.375014 3.409824,-0.958281 0,-0.480747 -0.103809,-0.49626 -2.188876,-0.327079 -1.203879,0.09768 -2.501624,0.240154 -2.883875,0.316604 -0.818133,0.163628 -0.912011,-0.20822 -0.22581,-0.894425 0.348935,-0.348933 1.023802,-0.515385 2.633103,-0.649438 1.190153,-0.09914 2.163914,-0.263301 2.163914,-0.364801 0,-0.101501 -0.283612,-0.450987 -0.63025,-0.776637 -0.346638,-0.325649 -0.54412,-0.675632 -0.43885,-0.777741 0.152343,-0.14777 6.434764,-1.476083 6.981314,-1.476083 0.0776,0 0.10513,-0.253906 0.0611,-0.564237 -0.11158,-0.785653 -0.96655,-0.846116 -2.598482,-0.183763 -0.740495,0.300544 -1.460594,0.507158 -1.60022,0.459143 -0.546808,-0.188039 0.260018,-0.810918 2.517922,-1.943867 2.54887,-1.278947 3.16698,-2.030393 1.6701,-2.030393 -0.53012,0 -1.35339,0.320542 -2.20926,0.86018 -0.750333,0.473101 -1.409258,0.815164 -1.464282,0.760142 -0.273676,-0.273677 0.922907,-1.508599 2.303782,-2.377593 2.36901,-1.490843 2.46178,-1.575378 2.19067,-1.996328 -0.20703,-0.321477 -0.4697,-0.291303 -1.95861,0.224996 -0.94573,0.327946 -1.881651,0.542218 -2.079826,0.476158 -0.661216,-0.220404 1.070206,-1.621379 2.599646,-2.103491 1.04627,-0.329807 1.42613,-0.570937 1.42613,-0.905294 0,-0.624413 -1.11666,-0.601352 -2.78841,0.05759 -1.484083,0.584975 -1.976256,0.504216 -1.976256,-0.324279 0,-0.779687 0.56677,-1.538104 1.649506,-2.207273 0.77795,-0.480801 1.11087,-0.532871 2.4982,-0.390736 1.52493,0.156234 1.62056,0.133571 2.02207,-0.479201 0.33798,-0.515837 0.3658,-0.765293 0.14046,-1.259848 -0.34036,-0.747023 -0.8901,-0.775443 -2.3332,-0.120621 -1.39297,0.632074 -2.02988,0.633048 -2.599183,0.0039 -0.590321,-0.652297 -0.409894,-0.799438 1.443993,-1.177598 3.70671,-0.756102 5.274099,-1.381767 6.483279,-2.587976 0.76335,-0.76147 1.30151,-1.593146 1.58692,-2.452455 0.48444,-1.458486 0.50707,-1.458969 2.27347,-0.0485 1.45868,1.164756 2.73522,1.754173 3.79914,1.754173 0.80626,0 1.10331,-0.181553 2.15407,-1.316552 l 1.21884,-1.316551 0.44246,0.584202 c 0.24336,0.32131 0.71583,1.315158 1.04993,2.208551 0.55119,1.473851 0.77679,1.751793 2.43493,2.999812 1.00511,0.756502 2.13507,1.801959 2.51104,2.32324 0.37597,0.521279 1.24222,2.463161 1.925,4.315294 1.7097,4.637767 2.42654,5.354764 8.33658,8.338355 4.28297,2.162186 5.09214,2.77449 5.09214,3.853238 0,0.82051 -1.3629,2.239652 -2.60732,2.714893 -1.79103,0.684008 -3.44126,0.04729 -7.59404,-2.930077 -3.20731,-2.299505 -3.67247,-2.452644 -7.47804,-2.461933 -3.63709,-0.0089 -3.78325,-0.05338 -7.77392,-2.366651 -1.68562,-0.9771 -2.18247,-1.151649 -3.10942,-1.092372 -1.48748,0.09512 -2.10305,0.899896 -2.10305,2.749416 0,2.193313 0.75723,4.502096 3.50017,10.671868 2.97,6.680491 4.79504,12.928416 5.87924,20.127277 0.7298,4.845788 0.79016,14.034292 0.12437,18.933262 -1.47242,10.83415 -4.88392,20.81346 -10.21369,29.87704 -3.574359,6.0784 -5.074309,7.72656 -11.882417,13.05661 -2.482639,1.94364 -5.222163,4.1781 -6.08783,4.96546 -1.83189,1.66619 -3.658404,4.12314 -4.194282,5.64198 -0.513161,1.45445 -0.47157,3.50249 0.101768,5.0114 0.262599,0.6911 0.403658,1.24704 0.313465,1.23541 -0.09019,-0.0116 -0.621344,-0.23188 -1.180336,-0.48948 z M 118.37621,49.92096 c 0.62151,-0.734499 0.54422,-1.634352 -0.20471,-2.383276 -0.51508,-0.515086 -0.79815,-0.612632 -1.41803,-0.488656 -0.97241,0.194483 -1.35942,0.512311 -1.5504,1.273274 -0.48281,1.923674 1.88759,3.117908 3.17314,1.598658 z"
       id="path1" />
  </g>
</svg>
