<?xml version="1.0" encoding="UTF-8" standalone="no"?>
<!-- Created with Inkscape (http://www.inkscape.org/) -->

<svg
   width="42.418293mm"
   height="54.936005mm"
   viewBox="0 0 42.418293 54.936005"
   version="1.1"
   id="svg1"
   inkscape:export-filename="neuro-after.svg"
   inkscape:export-xdpi="96"
   inkscape:export-ydpi="96"
   sodipodi:docname="neuro-before.svg"
   inkscape:version="1.3 (0e150ed6c4, 2023-07-21)"
   xmlns:inkscape="http://www.inkscape.org/namespaces/inkscape"
   xmlns:sodipodi="http://sodipodi.sourceforge.net/DTD/sodipodi-0.dtd"
   xmlns="http://www.w3.org/2000/svg"
   xmlns:svg="http://www.w3.org/2000/svg">
  <sodipodi:namedview
     id="namedview1"
     pagecolor="#ffffff"
     bordercolor="#000000"
     borderopacity="0.25"
     inkscape:showpageshadow="2"
     inkscape:pageopacity="0.0"
     inkscape:pagecheckerboard="0"
     inkscape:deskcolor="#d1d1d1"
     inkscape:document-units="mm"
     inkscape:zoom="3.8481518"
     inkscape:cx="80.168356"
     inkscape:cy="103.81607"
     inkscape:window-width="1920"
     inkscape:window-height="991"
     inkscape:window-x="-9"
     inkscape:window-y="-9"
     inkscape:window-maximized="1"
     inkscape:current-layer="layer1" />
  <defs
     id="defs1" />
  <g
     inkscape:label="layer"
     inkscape:groupmode="layer"
     id="layer1"
     transform="translate(-87.312502,-103.71666)">
    <ellipse
       style="fill:#3b7871;fill-opacity:1;stroke:#3b7871;stroke-width:0.528413"
       id="path1"
       cx="115.67278"
       cy="110.85024"
       rx="6.8693686"
       ry="6.8693676" />
    <path
       style="fill:#3b7871;fill-opacity:1;stroke:#3b7871;stroke-width:0.680174"
       d="m 109.60682,116.62622 c 0,0 2.44953,3.56483 7.29682,2.61499 3.55026,-0.69569 -3.05509,24.20792 -3.05509,24.20792 0,0 -10.62579,2.25235 -13.27691,-3.31987 -2.651112,-5.57221 7.95053,-26.19948 9.03518,-23.50304 z"
       id="path3"
       sodipodi:nodetypes="cscsc" />
    <path
       style="fill:#3b7871;fill-opacity:1;stroke:#3b7871;stroke-width:0.713357"
       d="m 113.18554,138.12689 c 0,0 12.65926,1.77914 13.84536,3.1477 1.18609,1.36858 2.83978,15.69294 2.20111,16.3316 -0.63866,0.63866 -1.79055,0.9922 -2.61169,0.35355 -0.82113,-0.63868 -3.51266,-13.40058 -3.51266,-13.40058 l -11.76969,-1.91599 z"
       id="path4"
       sodipodi:nodetypes="csssccc" />
    <circle
       style="fill:#ffffff;fill-opacity:1;stroke:#3b7871;stroke-width:0.697418"
       id="path2"
       cx="109.18089"
       cy="143.1494"
       r="14.631799" />
    <path
       style="fill:#ffffff;fill-opacity:1;stroke:#3b7871;stroke-width:0.667484"
       d="m 88.02136,114.09963 7.136054,0.24205 2.799,19.19451 3.185346,-2.68455 -3.169024,-19.19751 -10.283525,-0.39936 z"
       id="path5"
       sodipodi:nodetypes="ccccccc" />
    <path
       style="fill:#3b7871;fill-opacity:1;stroke:#ffffff;stroke-width:0.82758;stroke-opacity:1"
       d="m 108.59168,119.68304 c 0,0 19.59413,10.3928 19.90028,12.58846 0.30615,2.19566 -0.91848,3.65944 -2.44927,3.2203 -1.53078,-0.43913 -19.13487,-11.56381 -19.13487,-11.56381 0,0 -1.651,-3.21315 1.68386,-4.24495 z"
       id="path6"
       sodipodi:nodetypes="csscc" />
    <path
       style="fill:#3b7871;fill-opacity:1;stroke:#3b7871;stroke-width:0.699414"
       d="m 109.70847,128.84814 v 28.8382"
       id="path8" />
    <path
       style="fill:#3b7871;fill-opacity:1;stroke:#3b7871;stroke-width:0.713357"
       d="m 94.492541,143.55755 29.547859,0.38709"
       id="path9" />
    <path
       style="fill:#3b7871;fill-opacity:1;stroke:#3b7871;stroke-width:0.706643"
       d="m 99.358697,132.76561 19.974543,21.05212"
       id="path10" />
    <path
       style="fill:#3b7871;fill-opacity:1;stroke:#3b7871;stroke-width:0.705631"
       d="m 98.69103,153.54578 21.68216,-19.52752"
       id="path11" />
  </g>
</svg>
