<svg width="48" height="48" viewBox="0 0 48 48" fill="none" xmlns="http://www.w3.org/2000/svg">
<path d="M11.2426 13.6437L12.3033 12.583C14.0607 10.8257 16.9099 10.8257 18.6673 12.583L19.7279 13.6437C20.8995 14.8153 20.8995 16.7148 19.7279 17.8863C18.5564 19.0579 18.5564 20.9574 19.7279 22.129L27.5061 29.9072C28.6777 31.0787 30.5772 31.0787 31.7487 29.9072C32.9203 28.7356 34.8198 28.7356 35.9914 29.9072L36.6985 30.6143C38.2606 32.1764 38.2606 34.709 36.6985 36.2711L35.2843 37.6853C32.9411 40.0285 29.1421 40.0285 26.799 37.6853L11.2426 22.129C8.8995 19.7858 8.8995 15.9868 11.2426 13.6437Z" fill="#298A56"/>
<path d="M11.2426 22.129L11.5962 21.7754L11.2426 22.129ZM26.799 37.6853L26.4454 38.0389L26.799 37.6853ZM36.6985 30.6143L37.052 30.2607L36.6985 30.6143ZM35.9914 29.9072L35.6378 30.2607L35.9914 29.9072ZM27.5061 29.9072L27.1526 30.2607L27.5061 29.9072ZM19.7279 22.129L20.0815 21.7754L19.7279 22.129ZM19.7279 13.6437L20.0815 13.2901L19.7279 13.6437ZM18.6673 12.583L18.3137 12.9366L18.6673 12.583ZM24.0868 17.5077C23.8149 17.4598 23.5556 17.6413 23.5076 17.9133C23.4597 18.1852 23.6412 18.4446 23.9132 18.4925L24.0868 17.5077ZM29.5052 24.072C29.5449 24.3453 29.7986 24.5346 30.0719 24.4949C30.3452 24.4552 30.5345 24.2015 30.4948 23.9282L29.5052 24.072ZM24.3986 11.7383C24.1273 11.6867 23.8656 11.8648 23.8139 12.136C23.7623 12.4073 23.9404 12.6691 24.2117 12.7207L24.3986 11.7383ZM35.5085 24.0923C35.5594 24.3637 35.8207 24.5425 36.0921 24.4916C36.3635 24.4408 36.5423 24.1795 36.4914 23.9081L35.5085 24.0923ZM11.9498 12.2295L10.8891 13.2901L11.5962 13.9972L12.6569 12.9366L11.9498 12.2295ZM10.8891 22.4825L26.4454 38.0389L27.1526 37.3318L11.5962 21.7754L10.8891 22.4825ZM35.6378 38.0389L37.052 36.6247L36.3449 35.9176L34.9307 37.3318L35.6378 38.0389ZM37.052 30.2607L36.3449 29.5536L35.6378 30.2607L36.3449 30.9678L37.052 30.2607ZM27.8597 29.5536L20.0815 21.7754L19.3744 22.4825L27.1526 30.2607L27.8597 29.5536ZM20.0815 13.2901L19.0208 12.2295L18.3137 12.9366L19.3744 13.9972L20.0815 13.2901ZM20.0815 18.2399C21.4483 16.8731 21.4483 14.657 20.0815 13.2901L19.3744 13.9972C20.3507 14.9736 20.3507 16.5565 19.3744 17.5328L20.0815 18.2399ZM20.0815 21.7754C19.1052 20.7991 19.1052 19.2162 20.0815 18.2399L19.3744 17.5328C18.0075 18.8996 18.0075 21.1157 19.3744 22.4825L20.0815 21.7754ZM31.3952 29.5536C30.4189 30.5299 28.836 30.5299 27.8597 29.5536L27.1526 30.2607C28.5194 31.6275 30.7355 31.6275 32.1023 30.2607L31.3952 29.5536ZM36.3449 29.5536C34.9781 28.1868 32.762 28.1868 31.3952 29.5536L32.1023 30.2607C33.0786 29.2844 34.6615 29.2844 35.6378 30.2607L36.3449 29.5536ZM37.052 36.6247C38.8094 34.8673 38.8094 32.0181 37.052 30.2607L36.3449 30.9678C37.7118 32.3346 37.7118 34.5507 36.3449 35.9176L37.052 36.6247ZM26.4454 38.0389C28.9839 40.5773 33.0994 40.5773 35.6378 38.0389L34.9307 37.3318C32.7828 39.4797 29.3004 39.4797 27.1526 37.3318L26.4454 38.0389ZM10.8891 13.2901C8.35069 15.8285 8.35069 19.9441 10.8891 22.4825L11.5962 21.7754C9.44832 19.6275 9.44832 16.1451 11.5962 13.9972L10.8891 13.2901ZM12.6569 12.9366C14.219 11.3745 16.7516 11.3745 18.3137 12.9366L19.0208 12.2295C17.0682 10.2769 13.9024 10.2769 11.9498 12.2295L12.6569 12.9366ZM23.9132 18.4925C25.9673 18.8547 27.1957 19.3537 27.9918 20.1588C28.785 20.961 29.2251 22.1441 29.5052 24.072L30.4948 23.9282C30.2062 21.9414 29.727 20.4914 28.7029 19.4557C27.6815 18.4229 26.1943 17.8793 24.0868 17.5077L23.9132 18.4925ZM24.2117 12.7207C28.1864 13.4769 30.6147 14.4416 32.2441 16.1029C33.8751 17.7657 34.779 20.2001 35.5085 24.0923L36.4914 23.9081C35.7552 19.9803 34.8093 17.2899 32.958 15.4026C31.1053 13.5138 28.419 12.5032 24.3986 11.7383L24.2117 12.7207Z" fill="#298A56"/>
</svg>
