<?xml version="1.0" encoding="UTF-8" standalone="no"?>
<!-- Created with Inkscape (http://www.inkscape.org/) -->

<svg
   width="72.883904mm"
   height="72.768051mm"
   viewBox="0 0 72.883904 72.768051"
   version="1.1"
   id="svg1"
   inkscape:export-filename="sport-injury-after.svg"
   inkscape:export-xdpi="96"
   inkscape:export-ydpi="96"
   xmlns:inkscape="http://www.inkscape.org/namespaces/inkscape"
   xmlns:sodipodi="http://sodipodi.sourceforge.net/DTD/sodipodi-0.dtd"
   xmlns="http://www.w3.org/2000/svg"
   xmlns:svg="http://www.w3.org/2000/svg">
  <sodipodi:namedview
     id="namedview1"
     pagecolor="#ffffff"
     bordercolor="#000000"
     borderopacity="0.25"
     inkscape:showpageshadow="2"
     inkscape:pageopacity="0.0"
     inkscape:pagecheckerboard="0"
     inkscape:deskcolor="#d1d1d1"
     inkscape:document-units="mm" />
  <defs
     id="defs1" />
  <g
     inkscape:label="layer"
     inkscape:groupmode="layer"
     id="layer1"
     transform="translate(-65.668001,-68.92655)">
    <g
       id="g42"
       inkscape:label="therpist"
       transform="translate(-51.509708,-112.59917)">
      <ellipse
         style="fill:#50a775;fill-opacity:1;stroke:none;stroke-width:0.1;stroke-linecap:round;stroke-dasharray:none;stroke-opacity:1"
         id="path43"
         cx="148.88573"
         cy="231.60126"
         rx="3.4398637"
         ry="1.1394837"
         transform="translate(7.58071,5.7318253)" />
      <ellipse
         style="fill:#50a775;fill-opacity:1;stroke:none;stroke-width:0.1;stroke-linecap:round;stroke-dasharray:none;stroke-opacity:1"
         id="path43-5"
         cx="173.28749"
         cy="232.08977"
         rx="3.4398637"
         ry="1.1394837"
         transform="translate(7.58071,5.7318253)" />
      <ellipse
         style="fill:#50a775;fill-opacity:1;stroke:none;stroke-width:0.1;stroke-linecap:round;stroke-dasharray:none;stroke-opacity:1"
         id="path44"
         cx="141.26085"
         cy="238.22272"
         rx="3.9771328"
         ry="1.3605143"
         transform="translate(7.58071,5.7318253)" />
      <ellipse
         style="fill:#50a775;fill-opacity:1;stroke:none;stroke-width:0.1;stroke-linecap:round;stroke-dasharray:none;stroke-opacity:1"
         id="path44-3"
         cx="178.50378"
         cy="239.33897"
         rx="3.9771328"
         ry="1.3605143"
         transform="translate(7.58071,5.7318253)" />
      <ellipse
         style="fill:#50a775;fill-opacity:1;stroke:none;stroke-width:0.1;stroke-linecap:round;stroke-dasharray:none;stroke-opacity:1"
         id="path44-8"
         cx="148.34846"
         cy="246.63466"
         rx="3.9771328"
         ry="1.3605143"
         transform="translate(7.58071,5.7318253)" />
      <ellipse
         style="fill:#50a775;fill-opacity:1;stroke:none;stroke-width:0.1;stroke-linecap:round;stroke-dasharray:none;stroke-opacity:1"
         id="path44-4"
         ry="1.3605143"
         rx="3.9771328"
         cy="247.20143"
         cx="169.31036"
         transform="translate(7.58071,5.7318253)" />
      <ellipse
         style="display:inline;fill:#50a775;fill-opacity:1;stroke:#50a775;stroke-width:0.511053"
         id="path1-3-1-1-9"
         cx="137.63539"
         cy="198.89999"
         rx="6.6436925"
         ry="6.643693"
         transform="translate(-2.9972429,-10.475057)" />
      <path
         style="display:inline;fill:#50a775;fill-opacity:1;stroke:#50a775;stroke-width:0.665895;stroke-opacity:1"
         d="m 128.91346,198.42083 c 0.36628,-2.08343 10.87106,-1.90127 11.19576,0.43095 0.93809,6.73838 1.26627,12.93708 0.28877,17.73266 -0.81498,3.99826 -9.58787,6.00793 -10.68899,1.8306 -1.10112,-4.17733 -1.60942,-15.3648 -0.79554,-19.99421 z"
         id="path17-4-8"
         sodipodi:nodetypes="ssszs" />
      <path
         style="display:inline;fill:#50a775;fill-opacity:1;stroke:none;stroke-width:0.9141;stroke-linecap:round;stroke-opacity:1"
         d="m 132.92212,227.56644 c 0,0 -2.82812,16.14995 -3.63904,23.12005 -0.15175,1.30432 4.25832,3.43009 4.74916,0.55576 2.02974,-11.88593 3.26659,-15.89782 3.26659,-23.6661 0,-1.19535 -3.17125,-2.05938 -4.37671,-0.01 z"
         id="path30-2"
         sodipodi:nodetypes="cssssc"
         transform="translate(-2.9972429,-10.475057)" />
      <path
         style="display:inline;fill:#50a775;fill-opacity:1;stroke:none;stroke-width:0.922137;stroke-linecap:round;stroke-opacity:1"
         d="m 142.94717,227.123 c 0,0 2.82812,16.43518 3.63904,23.52838 0.15175,1.32736 -4.25832,3.49067 -4.74916,0.56558 -2.02974,-12.09584 -3.26659,-16.1786 -3.26659,-24.08408 0,-1.21646 3.17125,-2.09576 4.37671,-0.01 z"
         id="path30-3-8"
         sodipodi:nodetypes="cssssc"
         transform="translate(-2.9972429,-10.475057)" />
      <path
         style="fill:#50a775;fill-opacity:1;stroke:none;stroke-width:0.0945135;stroke-linecap:round;stroke-dasharray:none;stroke-opacity:1"
         d="m 128.68936,197.94203 c -4.25283,4.13541 -7.88191,11.73534 -11.21598,18.33088 -0.6936,1.37211 -0.32625,4.47915 2.83617,3.50567 2.57873,-0.7938 6.66468,-11.48783 10.99014,-17.66088 0.94196,-1.34431 -1.4335,-5.32001 -2.61033,-4.17567 z"
         id="path45"
         sodipodi:nodetypes="sssss" />
      <path
         style="display:inline;fill:#50a775;fill-opacity:1;stroke:#50a775;stroke-width:1.01711;stroke-linecap:round;stroke-opacity:1"
         d="m 131.91247,192.50095 c 2.84755,2.41931 6.26505,4.31206 7.07173,7.77664 0.64604,2.77461 -0.86487,4.81228 -2.29834,8.22451 -0.58331,1.38848 -4.76979,0.84325 -4.37634,-0.14831 1.69992,-4.28384 3.876,-4.97509 3.26787,-7.71126 -0.69047,-3.10665 -2.52745,-2.61015 -7.03069,-6.18421 -1.02157,-0.81079 2.25854,-2.89809 3.36577,-1.95737 z"
         id="path27-2-9"
         sodipodi:nodetypes="sassass"
         transform="translate(7.58071,5.7318253)" />
    </g>
    <g
       id="g43"
       inkscape:label="patient"
       transform="translate(-43.928998,-106.86734)">
      <path
         style="fill:#3b7871;fill-opacity:1;stroke:none;stroke-width:1.25224;stroke-linecap:round;stroke-opacity:1"
         d="m 144.49144,211.35521 c -0.68315,1.76106 -7.42224,1.33387 -6.69318,-0.79112 2.8978,-8.44605 8.96584,-11.60983 15.56933,-19.32863 1.34019,-1.56656 4.80916,-0.10788 3.80471,1.50573 -5.34877,8.59238 -9.88944,11.41815 -12.68086,18.61402 z"
         id="path23-6-0"
         sodipodi:nodetypes="sssss" />
      <ellipse
         style="fill:#3b7871;fill-opacity:1;stroke:#3b7871;stroke-width:0.528413"
         id="path1-1-2-9"
         cx="-160.11967"
         cy="183.72169"
         rx="6.8693686"
         ry="6.8693676"
         transform="scale(-1,1)" />
      <path
         style="fill:#3b7871;fill-opacity:1;stroke:none;stroke-width:0.906796;stroke-linecap:round;stroke-dasharray:none;stroke-opacity:1"
         d="m 163.77951,194.0216 c 0,0 10.18422,9.5052 11.85899,17.74062 0.56246,2.76576 4.69369,0.007 4.71755,-3.7243 0.0251,-3.91532 -6.43957,-13.61959 -12.50023,-16.29299 -0.91314,-0.40279 -3.92662,-4.54767 -4.07631,2.27667"
         id="path29-8"
         sodipodi:nodetypes="csssc"
         inkscape:transform-center-x="9.2087522"
         inkscape:transform-center-y="7.1623628" />
      <path
         style="fill:#3b7871;fill-opacity:1;stroke:#3b7871;stroke-width:0.877212;stroke-linecap:round;stroke-dasharray:none;stroke-opacity:1"
         d="m 154.26735,215.98513 c -0.51279,6.61824 -1.30954,18.86906 -3.11954,23.76706 -1.42327,3.85148 4.79453,0.52884 5.14764,-1.12257 0.33007,-1.54369 1.83665,-9.31571 3.67804,-23.67243 0.23045,-1.79643 -5.0385,-7.58892 -5.70614,1.02794 z"
         id="path32-8"
         sodipodi:nodetypes="sssss" />
      <path
         style="fill:#3b7871;fill-opacity:1;stroke:#3b7871;stroke-width:0.877212;stroke-linecap:round;stroke-dasharray:none;stroke-opacity:1"
         d="m 167.91391,215.98513 c 0.51279,6.61824 1.30954,18.86906 3.11954,23.76706 1.42327,3.85148 -4.79453,0.52884 -5.14764,-1.12257 -0.33007,-1.54369 -1.83665,-9.31571 -3.67804,-23.67243 -0.23045,-1.79643 5.0385,-7.58892 5.70614,1.02794 z"
         id="path32-8-8"
         sodipodi:nodetypes="sssss" />
      <path
         style="fill:#3b7871;fill-opacity:1;stroke:#3b7871;stroke-width:0.715743"
         d="m 164.64088,190.84309 c 0,0 -3.56974,2.80788 -8.308,0.45303 -3.47039,-1.72474 -4.34478,17.99721 -2.09701,24.68637 1.37421,4.08952 10.23702,4.90946 13.01251,-0.8976 2.82409,-5.90877 -0.70198,-26.5901 -2.6075,-24.2418 z"
         id="path3-2-7"
         sodipodi:nodetypes="csssc"
         inkscape:transform-center-x="-17.483277"
         inkscape:transform-center-y="-74.37526" />
      <path
         style="fill:#00b5ee;fill-opacity:1;stroke:none;stroke-width:0.207851;stroke-linecap:round;stroke-dasharray:none;stroke-opacity:1"
         d="m 169.76177,232.63325 c -0.32043,-1.0163 -3.98536,-0.37641 -4.94923,0.17166 -0.46086,0.34198 0.12521,3.16292 0.21266,2.69444 0.18477,-0.98984 4.30737,-1.34375 5.14816,-0.0834 0.18998,0.28478 -0.12409,-1.87078 -0.41159,-2.78267 z"
         id="path39"
         sodipodi:nodetypes="scssss" />
      <path
         style="fill:#00b5ee;fill-opacity:1;stroke:none;stroke-width:0.240368;stroke-linecap:round;stroke-dasharray:none;stroke-opacity:1"
         d="m 166.83927,238.4567 c 0,0 -1.16494,-0.05 -1.30095,-0.29869 -0.34348,-0.62802 -0.49233,-2.06584 -0.49233,-2.06584 l 5.68079,1.24548 c 0,0 0.60005,2.09337 0.28774,2.31677 -0.45775,0.32742 -4.17525,-1.19772 -4.17525,-1.19772 z"
         id="path41"
         sodipodi:nodetypes="csccsc" />
      <path
         style="fill:#00b5ee;fill-opacity:1;stroke:none;stroke-width:0.2;stroke-linecap:round;stroke-dasharray:none;stroke-opacity:1"
         d="m 170.37132,235.87852 c -0.10613,-0.51719 -3.30984,1.46733 -4.50444,2.65333 -0.60031,0.59599 0.50885,1.37414 1.4382,2.06069 0.63478,0.46892 2.70371,-2.01452 3.57132,-2.45724 0.0803,-0.041 -0.33651,-1.43527 -0.50508,-2.25678 z"
         id="path40"
         sodipodi:nodetypes="sssss" />
    </g>
    <g
       id="g53"
       inkscape:label="tape"
       transform="matrix(1.310601,0,0,1.310601,-85.744564,-169.36068)">
      <path
         id="path49"
         style="fill:#00b5ee;fill-opacity:1;stroke:none;stroke-width:0.00441941;stroke-linecap:round;stroke-dasharray:none;stroke-opacity:1"
         d="m 134.40128,203.71451 c -0.4667,0.26679 -0.92565,0.94706 -1.2613,1.86951 -0.0727,0.19979 -0.24871,0.87266 -0.28102,1.0747 -0.15927,0.99297 -0.094,1.78564 0.18589,2.25773 l 0.0573,0.0966 -1.11325,-0.29167 -1.11325,-0.29167 0.0853,-0.0471 c 0.49577,-0.27407 0.99606,-1.03482 1.32397,-2.01325 0.083,-0.24767 0.21864,-0.80319 0.25519,-1.04521 0.1428,-0.94547 0.0645,-1.7395 -0.2153,-2.18245 l -0.0651,-0.10306 1.13793,0.29813 c 0.62586,0.16398 1.13709,0.29929 1.13608,0.30069 -9.2e-4,0.001 -0.0606,0.0361 -0.13234,0.0771 z m -2.51782,-0.83056 3.01223,0.7892 m -4.44951,4.69663 3.01223,0.78921 m 1.49408,-5.54867 a 1.26882,2.9230439 14.681477 0 1 0.48656,3.14918 1.26882,2.9230439 14.681477 0 1 -1.96822,2.50603 1.26882,2.9230439 14.681477 0 1 -0.48656,-3.14918 1.26882,2.9230439 14.681477 0 1 1.96822,-2.50603 z m -3.03935,-0.7963 a 1.26882,2.9230439 14.681477 0 1 0.48657,3.14917 1.26882,2.9230439 14.681477 0 1 -1.96823,2.50604 1.26882,2.9230439 14.681477 0 1 -0.48656,-3.14919 1.26882,2.9230439 14.681477 0 1 1.96822,-2.50602 z" />
      <ellipse
         style="fill:#ffffff;fill-opacity:1;stroke:#ffffff;stroke-width:0.1;stroke-linecap:round;stroke-dasharray:none;stroke-opacity:1"
         id="path50"
         cx="-165.68239"
         cy="178.99831"
         rx="1.6042984"
         ry="0.69960868"
         transform="rotate(-75.318523)" />
    </g>
  </g>
</svg>
