<svg width="48" height="48" viewBox="0 0 48 48" fill="none" xmlns="http://www.w3.org/2000/svg">
<path d="M11.2426 13.6437L12.4149 12.4715C14.1106 10.7757 16.8599 10.7757 18.5557 12.4715L19.5047 13.4205C20.6763 14.5921 20.6763 16.4916 19.5047 17.6632C18.3332 18.8347 18.3332 20.7342 19.5047 21.9058L26.8613 29.2624C28.0329 30.434 29.9324 30.434 31.104 29.2624C32.2756 28.0908 34.175 28.0908 35.3466 29.2624L35.9545 29.8703C37.4618 31.3776 37.4618 33.8215 35.9545 35.3288L34.4411 36.8422C32.098 39.1853 28.299 39.1853 25.9558 36.8422L11.2426 22.129C8.89949 19.7858 8.8995 15.9869 11.2426 13.6437Z" fill="#298A56" stroke="#298A56" stroke-linejoin="round"/>
<path d="M23.6999 17.7001C27.7756 18.348 28.9994 19.6535 29.4895 23.4897" stroke="#298A56" stroke-linecap="round" stroke-linejoin="round"/>
<path d="M24.1009 12.0253C31.9292 13.3795 34.0814 15.7274 35.3843 23.3845" stroke="#298A56" stroke-linecap="round" stroke-linejoin="round"/>
</svg>
